<?xml version="1.0" standalone="no"?>
<!DOCTYPE svg PUBLIC "-//W3C//DTD SVG 1.1//EN" "http://www.w3.org/Graphics/SVG/1.1/DTD/svg11.dtd" >
<svg xmlns="http://www.w3.org/2000/svg">
<metadata>
This is a custom SVG webfont generated by Font Squirrel.
Copyright   : Copyright  2011 Nokia All rights reserved  Reproduction transfer distribution or storage of part or all of the contents in this document in any form without the prior written permission of Nokia is prohibited
Foundry     : Dalton Maag Ltd
</metadata>
<defs>
<font id="webfontegTy83vb" horiz-adv-x="868" >
<font-face units-per-em="2048" ascent="1638" descent="-410" />
<missing-glyph horiz-adv-x="518" />
<glyph unicode="&#xfb00;" horiz-adv-x="1380" d="M70 909v107h200v110q0 94 17.5 172t59.5 134.5t108.5 87t165.5 30.5q53 0 97 -7t66 -13l-16 -100q-16 4 -50 8t-69 4q-76 0 -125 -18.5t-78.5 -59.5t-41 -105.5t-11.5 -158.5v-84h516v110q0 94 17.5 172t58.5 134.5t107.5 87t162.5 30.5q51 0 93.5 -7t66.5 -13l-16 -100 q-16 4 -49 8t-66 4q-74 0 -122 -18.5t-77.5 -59.5t-41 -105.5t-11.5 -158.5v-84h314v-107h-314v-909h-123v909h-516v-909h-123v909h-200z" />
<glyph unicode="&#xfb01;" horiz-adv-x="1212" d="M915 909h-522v-909h-123v909h-200v107h200v110q0 94 17.5 172t58.5 134.5t107.5 87t162.5 30.5q51 0 94.5 -7t65.5 -13l-16 -100q-16 4 -49 8t-66 4q-74 0 -122 -18.5t-77.5 -59.5t-41 -105.5t-11.5 -158.5v-84h645v-1016h-123v909zM883 1356q0 45 25.5 72.5t66.5 27.5 t67.5 -27.5t26.5 -72.5q0 -47 -26.5 -74t-67.5 -27t-66.5 28t-25.5 73z" />
<glyph unicode="&#xfb02;" horiz-adv-x="1218" d="M70 909v107h200v110q0 94 17.5 172t58.5 134.5t107.5 87t162.5 30.5q51 0 94.5 -7t65.5 -13l-16 -100q-16 4 -49 8t-66 4q-74 0 -122 -18.5t-77.5 -59.5t-41 -105.5t-11.5 -158.5v-84h314v-107h-314v-909h-123v909h-200zM1053 0h-121v1536h121v-1536z" />
<glyph unicode="&#xfb03;" horiz-adv-x="1849" d="M70 909v107h200v110q0 94 17.5 172t59.5 134.5t108.5 87t165.5 30.5q53 0 97 -7t66 -13l-16 -100q-16 4 -50 8t-69 4q-76 0 -125 -18.5t-78.5 -59.5t-41 -105.5t-11.5 -158.5v-84h516v110q0 94 17.5 172t58.5 134.5t107.5 87t162.5 30.5q51 0 93.5 -7t66.5 -13l-16 -100 q-16 4 -49 8t-66 4q-74 0 -122 -18.5t-77.5 -59.5t-41 -105.5t-11.5 -158.5v-84h645v-1016h-123v909h-522v-909h-123v909h-516v-909h-123v909h-200zM1522 1356q0 45 25.5 72.5t66.5 27.5t67.5 -27.5t26.5 -72.5q0 -47 -26.5 -74t-67.5 -27t-66.5 28t-25.5 73z" />
<glyph unicode="&#xfb04;" horiz-adv-x="1857" d="M1692 0h-121v1536h121v-1536zM70 909v107h200v110q0 94 17.5 172t59.5 134.5t108.5 87t165.5 30.5q53 0 97 -7t66 -13l-16 -100q-16 4 -50 8t-69 4q-76 0 -125 -18.5t-78.5 -59.5t-41 -105.5t-11.5 -158.5v-84h516v110q0 94 17.5 172t58.5 134.5t107.5 87t162.5 30.5 q51 0 93.5 -7t66.5 -13l-16 -100q-16 4 -49 8t-66 4q-74 0 -122 -18.5t-77.5 -59.5t-41 -105.5t-11.5 -158.5v-84h314v-107h-314v-909h-123v909h-516v-909h-123v909h-200z" />
<glyph unicode="&#x9;" horiz-adv-x="518" />
<glyph unicode="&#xd;" horiz-adv-x="518" />
<glyph horiz-adv-x="0" />
<glyph horiz-adv-x="0" />
<glyph horiz-adv-x="0" />
<glyph unicode=" "  horiz-adv-x="518" />
<glyph unicode="&#x09;" horiz-adv-x="518" />
<glyph unicode="&#xa0;" horiz-adv-x="518" />
<glyph unicode="!" horiz-adv-x="573" d="M346 406h-123v1034h123v-1034zM186 90q0 49 29 79t72 30t71.5 -29t28.5 -80q0 -49 -28.5 -78.5t-71.5 -29.5t-72 29.5t-29 78.5z" />
<glyph unicode="&#x22;" horiz-adv-x="831" d="M172 1440h135l-16 -512h-105zM524 1440h135l-14 -512h-104z" />
<glyph unicode="#" horiz-adv-x="1187" d="M150 1038h225l76 375h108l-76 -375h348l76 375h109l-76 -375h199l-19 -100h-200l-86 -436h223l-19 -101h-223l-78 -401h-108l80 401h-353l-77 -401h-109l78 401h-199l19 101h200l86 436h-223zM377 502h350l84 436h-348z" />
<glyph unicode="$" horiz-adv-x="1212" d="M668 1430q57 0 114.5 -11.5t106.5 -27t87 -34t58 -32.5l-49 -100q-51 33 -136 62.5t-181 33.5v-551l69 -25q150 -53 233 -138t83 -228q0 -158 -95.5 -264.5t-289.5 -128.5v-209h-97v205q-88 2 -158.5 17t-125 34.5t-93 41t-63.5 38.5l53 100q25 -16 62 -35.5t86 -38 t108.5 -32t130.5 -15.5v580q-84 31 -153.5 61.5t-121.5 71.5t-81 99.5t-29 144.5q0 168 99.5 266t285.5 115v188h97v-188zM928 371q0 113 -64.5 170t-195.5 100v-545q115 12 187.5 79t72.5 196zM311 1057q0 -49 14.5 -86t45 -67t80 -54.5t120.5 -48.5v520 q-135 -16 -197.5 -81.5t-62.5 -182.5z" />
<glyph unicode="%" horiz-adv-x="1837" d="M1243 1413h119l-768 -1413h-121zM127 1028q0 199 78 305.5t221 106.5q147 0 220 -106.5t73 -305.5q0 -205 -78 -306t-217 -101q-297 -1 -297 407zM233 1028q0 -170 50.5 -240.5t140.5 -70.5t138 70.5t48 240.5q0 90 -12 150.5t-36.5 97.5t-59.5 52t-78 15q-41 0 -76 -15 t-60.5 -52t-40 -97.5t-14.5 -150.5zM1118 383q0 199 78 304.5t221 105.5q147 0 220 -105.5t73 -304.5q0 -205 -78 -307.5t-215 -102.5q-299 0 -299 410zM1227 383q0 -172 49 -242.5t141 -70.5q88 0 137.5 71.5t49.5 241.5q0 178 -49.5 245.5t-137.5 67.5q-43 0 -77.5 -15 t-59.5 -51t-39 -96.5t-14 -150.5z" />
<glyph unicode="&#x26;" horiz-adv-x="1411" d="M465 805q-25 29 -51.5 64.5t-50 76.5t-39 88t-15.5 99q0 74 24.5 136t71 107t111 71t146.5 26q70 0 129 -21.5t103 -60.5t68.5 -96.5t24.5 -127.5q0 -76 -25.5 -132t-71.5 -102t-110.5 -83t-140.5 -74l416 -487q25 20 51.5 53t52 72t48 78.5t38.5 74.5l96 -49 q-41 -88 -95 -169t-118 -144l175 -205h-152l-111 133q-78 -66 -193.5 -113t-250.5 -47q-115 0 -201 30t-144 83t-87 127t-29 160q0 160 88 261t242 171zM532 723q-55 -23 -105 -53.5t-87 -71.5t-58.5 -95t-21.5 -124q0 -145 88 -221t254 -76q55 0 107.5 11t100.5 30.5t88 43 t69 48.5zM426 1130q0 -78 46 -147.5t99 -128.5l112 53q54 27 96 63t67.5 82t25.5 111q0 100 -58 154.5t-157 54.5q-111 0 -171 -69t-60 -173z" />
<glyph unicode="'" horiz-adv-x="479" d="M172 1440h135l-16 -512h-105z" />
<glyph unicode="(" horiz-adv-x="577" d="M160 670q0 160 21.5 297t52 247.5t65.5 192.5t61 129h109q-31 -63 -64.5 -151.5t-61.5 -199t-45 -240.5t-17 -275t17 -275.5t45 -241t61.5 -199.5t64.5 -151h-109q-27 47 -61.5 129t-65 193t-52 248t-21.5 297z" />
<glyph unicode=")" horiz-adv-x="575" d="M420 670q0 -160 -21.5 -297t-53.5 -248t-66.5 -193t-61.5 -129h-106q31 63 63.5 151.5t60 199t45 240.5t17.5 276q0 145 -17.5 275t-45 240.5t-60.5 200t-63 150.5h106q27 -47 61.5 -129t66.5 -192.5t53.5 -247.5t21.5 -297z" />
<glyph unicode="*" horiz-adv-x="866" d="M496 1536l-11 -305l265 123l38 -109l-274 -98l205 -240l-92 -67l-189 254l-186 -254l-92 71l198 234l-272 90l43 108l264 -112l-14 305h117z" />
<glyph unicode="+" horiz-adv-x="1212" d="M154 762h395v424h115v-424h395v-111h-395v-424h-115v424h-395v111z" />
<glyph unicode="," horiz-adv-x="520" d="M154 86q0 53 29.5 83t70.5 30q49 0 74.5 -33t25.5 -86q0 -92 -49 -204t-153 -210l-60 51q59 66 94 135.5t43 133.5q-27 6 -51 29.5t-24 70.5z" />
<glyph unicode="-" horiz-adv-x="864" d="M137 633h588v-117h-588v117z" />
<glyph unicode="." horiz-adv-x="514" d="M158 88q0 49 28.5 80t71.5 31t71.5 -30t28.5 -81q0 -49 -29.5 -77.5t-72.5 -28.5t-70.5 28.5t-27.5 77.5z" />
<glyph unicode="/" horiz-adv-x="849" d="M47 -96l639 1632h117l-639 -1632h-117z" />
<glyph unicode="0" horiz-adv-x="1212" d="M125 702q0 362 121 547t362 185q246 0 362.5 -184.5t116.5 -547.5q0 -367 -122.5 -548t-356.5 -181q-483 0 -483 729zM254 702q0 -166 23.5 -283.5t68.5 -191t110.5 -107.5t149.5 -34q168 0 260 144.5t92 471.5q0 170 -24.5 288t-69.5 190.5t-110.5 105.5t-147.5 33 t-147.5 -33t-110.5 -105.5t-69.5 -190.5t-24.5 -288z" />
<glyph unicode="1" horiz-adv-x="1212" d="M653 1268l-393 -238l-49 94l461 289h106v-1413h-125v1268z" />
<glyph unicode="2" horiz-adv-x="1212" d="M567 680l121 100q53 45 90 90t55.5 92.5t18.5 104.5q0 111 -64.5 182.5t-209.5 71.5q-61 0 -109.5 -14.5t-86.5 -36t-66.5 -48t-49.5 -53.5l-80 70q25 31 61 64.5t86 63.5t114.5 48.5t144.5 18.5q104 0 177 -31t119 -81t67.5 -115.5t21.5 -133.5q0 -76 -26.5 -139.5 t-71.5 -117.5t-101.5 -103t-115.5 -95q-80 -63 -142.5 -119.5t-105.5 -115.5t-65.5 -124.5t-22.5 -145.5h675v-113h-804v35q0 111 22.5 196.5t68.5 161.5t115.5 144.5t163.5 142.5z" />
<glyph unicode="3" horiz-adv-x="1212" d="M387 778h105q86 0 149.5 22.5t103 60.5t59 89t19.5 111q0 55 -15 102t-49 83t-88.5 56.5t-129.5 20.5q-113 0 -182.5 -37t-108.5 -76l-66 76q20 23 53 49.5t79 48t103.5 36t127.5 14.5q104 0 180 -29t124 -78t71.5 -112.5t23.5 -133.5q0 -133 -69.5 -225t-194.5 -125 q145 -29 218 -120t73 -224q0 -98 -37 -175t-101.5 -129t-152.5 -79t-190 -27q-111 0 -196 18.5t-126 37.5l29 102q35 -14 108.5 -29.5t173.5 -15.5q168 0 268.5 74t100.5 221q0 61 -21.5 112.5t-64.5 89.5t-109.5 59.5t-156.5 21.5h-111v110z" />
<glyph unicode="4" horiz-adv-x="1212" d="M856 877v-420h225v-111h-225v-346h-121v346h-592v86l529 981h133l-514 -956h444v420h121z" />
<glyph unicode="5" horiz-adv-x="1212" d="M518 90q174 0 273.5 89t99.5 263q0 66 -15.5 125.5t-50 103.5t-91 69.5t-138.5 25.5q-92 0 -152.5 -19.5t-97.5 -39.5l-67 49l77 651h613v-113h-523l-57 -467q35 18 96.5 29.5t128.5 11.5q86 0 160 -25.5t128 -78.5t84 -133t30 -187q0 -96 -33 -181t-95.5 -148.5 t-153.5 -100.5t-208 -37q-111 0 -194.5 18.5t-124.5 37.5l29 102q35 -14 108.5 -29.5t173.5 -15.5z" />
<glyph unicode="6" horiz-adv-x="1212" d="M733 1331q-100 0 -176 -45t-127 -124t-78.5 -186.5t-32.5 -232.5q51 76 141.5 128.5t205.5 52.5q86 0 160.5 -29t131 -87t88 -144t31.5 -199q0 -111 -30.5 -202t-88 -155.5t-138.5 -99.5t-181 -35q-221 0 -336 159t-115 478q0 406 143.5 618t405.5 212q88 0 156 -18.5 t125 -47.5l-41 -98q-45 23 -102.5 39t-141.5 16zM639 82q145 0 228 96t83 275q0 180 -81 270t-218 90q-66 0 -124 -24.5t-104 -67.5t-72.5 -102.5t-26.5 -129.5q0 -92 21.5 -166.5t62.5 -128t99 -83t132 -29.5z" />
<glyph unicode="7" horiz-adv-x="1212" d="M352 0l533 1298h-717v115h852v-94l-533 -1319h-135z" />
<glyph unicode="8" horiz-adv-x="1212" d="M1018 1092q0 -61 -20.5 -115.5t-56.5 -98.5t-84 -80t-103 -63q66 -29 120 -63.5t92 -80.5t59.5 -103.5t21.5 -129.5q0 -82 -29 -151.5t-85 -121.5t-139 -82t-190 -30q-115 0 -198.5 29t-138 78t-80 113.5t-25.5 136.5q0 156 82 247t227 154q-125 53 -198.5 133t-73.5 215 q0 76 28.5 141.5t81.5 114.5t130 77t173 28q102 0 178 -27t127.5 -74t76 -110t24.5 -137zM922 360q0 68 -25 119t-68 89t-103 67t-134 49q-147 -55 -227 -135t-80 -199q0 -131 86 -200.5t235 -69.5q143 0 229.5 69.5t86.5 210.5zM895 1090q0 109 -70.5 177t-212.5 68 q-74 0 -129 -20.5t-91 -56t-54.5 -83t-18.5 -100.5q0 -61 26 -108t69 -83t100 -60.5t119 -43.5q115 41 188.5 120t73.5 190z" />
<glyph unicode="9" horiz-adv-x="1212" d="M483 82q106 0 183 42t129.5 118.5t81 186.5t34.5 243q-51 -74 -143 -128.5t-205 -54.5q-86 0 -160.5 29t-131 87.5t-88 143.5t-31.5 199q0 111 30.5 202t87 155.5t137 99.5t181.5 35q223 0 337.5 -156t114.5 -471q0 -418 -139 -629t-409 -211q-88 0 -163 14.5t-122 37.5 l26 100q41 -16 102.5 -29.5t147.5 -13.5zM588 1331q-143 0 -226 -96t-83 -274q0 -180 80.5 -270.5t215.5 -90.5q66 0 125.5 23.5t105.5 66.5t72.5 102.5t26.5 131.5q0 203 -83.5 305t-233.5 102z" />
<glyph unicode=":" horiz-adv-x="514" d="M158 84q0 49 28.5 80t71.5 31t71.5 -30t28.5 -81q0 -49 -29.5 -77.5t-72.5 -28.5t-70.5 28.5t-27.5 77.5zM158 907q0 49 28.5 80t71.5 31t71.5 -30t28.5 -81q0 -49 -29.5 -77.5t-72.5 -28.5t-70.5 28.5t-27.5 77.5z" />
<glyph unicode=";" horiz-adv-x="520" d="M158 907q0 49 28.5 80t71.5 31t71.5 -30t28.5 -81q0 -49 -29.5 -77.5t-72.5 -28.5t-70.5 28.5t-27.5 77.5zM154 86q0 53 29.5 83t70.5 30q49 0 74.5 -33t25.5 -86q0 -92 -49 -204t-153 -210l-60 51q59 66 94 135.5t43 133.5q-27 6 -51 29.5t-24 70.5z" />
<glyph unicode="&#x3c;" horiz-adv-x="1212" d="M993 391l-43 -100l-731 375v104l729 377l45 -100l-653 -326z" />
<glyph unicode="=" horiz-adv-x="1212" d="M188 971h836v-109h-836v109zM188 549h836v-111h-836v111z" />
<glyph unicode="&#x3e;" horiz-adv-x="1212" d="M219 1047l43 100l731 -377v-104l-729 -375l-45 100l653 326z" />
<glyph unicode="?" horiz-adv-x="1118" d="M457 379q0 78 12 135t39 104.5t68.5 92.5t101.5 98q23 20 50.5 48t51 63.5t39 77.5t15.5 92q0 123 -72 196.5t-221 73.5q-123 0 -214 -52.5t-151 -125.5l-74 75q27 33 68 71t96.5 71t127 53.5t161.5 20.5q102 0 178 -30t126 -81t74.5 -118.5t24.5 -143.5q0 -68 -17 -122 t-45 -98t-62.5 -80t-69.5 -67q-43 -37 -78 -70.5t-59.5 -73.5t-39 -90t-14.5 -120h-116zM422 90q0 49 28.5 79t71.5 30t72 -29t29 -80q0 -49 -29 -78.5t-72 -29.5t-71.5 29.5t-28.5 78.5z" />
<glyph unicode="@" horiz-adv-x="2066" d="M1077 -344q131 0 238.5 22.5t194.5 57.5t156 78t122 86l61 -84q-57 -49 -138 -96.5t-179 -84t-213 -60.5t-240 -24q-209 0 -380 59.5t-292.5 174.5t-188 283t-66.5 385q0 225 73.5 418.5t203.5 335t310.5 221t395.5 79.5q197 0 349 -53t256.5 -151.5t159 -239.5 t54.5 -318q0 -170 -46 -303t-119 -225t-164 -140t-183 -48q-96 0 -137 31.5t-62 68.5q-14 -12 -39.5 -28.5t-59.5 -33t-75 -27.5t-84 -11q-76 0 -140.5 24.5t-111.5 72.5t-73.5 119.5t-26.5 166.5q0 137 37 247.5t100.5 188.5t146 120t175.5 42q72 0 122 -18.5t82.5 -43 t50 -50.5t23.5 -38l33 123h92l-147 -758q-2 -8 -2 -24q0 -78 104 -78q76 0 146.5 45t125 127t87 195.5t32.5 252.5q0 172 -54 296t-149.5 205t-225.5 120t-279 39q-184 0 -342 -69.5t-274 -194.5t-181.5 -300t-65.5 -384q0 -182 52.5 -330t155 -252t252.5 -160.5t347 -56.5z M1006 123q39 0 76.5 11t68.5 27.5t53.5 35t34.5 32.5l49 265q2 18 8.5 45.5t10.5 56.5t8 54.5t4 39.5q0 45 -15.5 85t-45 71t-72.5 49t-101 18q-68 0 -128 -31.5t-106 -94t-72.5 -156.5t-26.5 -219q0 -145 67.5 -217t186.5 -72z" />
<glyph unicode="A" horiz-adv-x="1185" d="M883 401h-592l-129 -401h-123l481 1440h144l483 -1440h-133zM326 514h520l-258 778z" />
<glyph unicode="B" horiz-adv-x="1226" d="M592 1440q113 0 193.5 -30t132 -79t76 -114.5t24.5 -139.5q0 -70 -20.5 -124t-52.5 -94t-69.5 -65.5t-70.5 -37.5q51 -12 102 -40t92 -71t68 -104.5t27 -141.5q0 -178 -115 -288.5t-361 -110.5h-430v1440h404zM569 799q172 0 247 77.5t75 200.5q0 70 -26.5 118 t-69.5 76.5t-99.5 41t-117.5 12.5h-265v-526h256zM635 115q176 0 252 75.5t76 210.5q0 141 -97.5 213t-277.5 72h-275v-571h322z" />
<glyph unicode="C" horiz-adv-x="1275" d="M760 1350q-231 0 -358.5 -161t-127.5 -476q0 -324 127 -472.5t359 -148.5q68 0 124 12.5t103 31t84 41t64 42.5l59 -92q-70 -59 -183.5 -104.5t-258.5 -45.5q-313 0 -463 190.5t-150 545.5q0 168 38 306t115 236.5t192.5 152.5t271.5 54q84 0 153.5 -16t122.5 -40 t91 -49.5t61 -45.5l-66 -92q-51 43 -139 87t-219 44z" />
<glyph unicode="D" horiz-adv-x="1396" d="M616 1440q311 0 475 -188.5t164 -532.5q0 -174 -44 -308.5t-127 -225.5t-201.5 -138t-266.5 -47h-428v1440h428zM616 119q233 0 369.5 153.5t136.5 448.5q0 309 -136 454.5t-370 145.5h-299v-1202h299z" />
<glyph unicode="E" horiz-adv-x="1069" d="M188 1440h795v-119h-666v-512h521v-119h-521v-571h687v-119h-816v1440z" />
<glyph unicode="F" horiz-adv-x="1073" d="M193 1440h800v-119h-671v-512h546v-119h-546v-690h-129v1440z" />
<glyph unicode="G" horiz-adv-x="1335" d="M754 1360q-109 0 -198 -40t-151.5 -121t-97.5 -203t-35 -283q0 -328 128 -476.5t380 -148.5q98 0 175 15.5t124 33.5v479h-307v115h426v-665q-18 -10 -56 -25.5t-92.5 -32t-126 -28t-159.5 -11.5q-315 0 -471 188.5t-156 555.5q0 164 38 303t115 240.5t191.5 159 t268.5 57.5q139 0 244.5 -36t189.5 -104l-62 -94l-59 40q-33 22 -77 40t-101 29.5t-131 11.5z" />
<glyph unicode="H" horiz-adv-x="1366" d="M1049 1440h129v-1440h-129v709h-732v-709h-129v1440h129v-611h732v611z" />
<glyph unicode="I" horiz-adv-x="505" d="M317 0h-129v1440h129v-1440z" />
<glyph unicode="J" horiz-adv-x="968" d="M664 1440h129v-1065q0 -219 -101.5 -313.5t-281.5 -94.5q-76 0 -137.5 12.5t-107.5 30t-74 32.5t-36 21l49 101l34 -18q26 -13 65 -27.5t87 -25.5t101 -11q70 0 122 15.5t85 51t49.5 95t16.5 147.5v1049z" />
<glyph unicode="K" horiz-adv-x="1132" d="M317 0h-129v1440h129v-664l601 664h151l-600 -666l649 -774h-166l-635 754v-754z" />
<glyph unicode="L" horiz-adv-x="1064" d="M322 119h665v-119h-794v1440h129v-1321z" />
<glyph unicode="M" horiz-adv-x="1574" d="M1391 1440v-1440h-127v1239l-430 -788h-105l-418 763v-1214h-127v1440h135l467 -856l465 856h140z" />
<glyph unicode="N" horiz-adv-x="1351" d="M313 1227v-1227h-125v1440h136l714 -1221v1221h125v-1440h-125z" />
<glyph unicode="O" horiz-adv-x="1503" d="M141 721q0 168 40 306t118 236.5t192.5 152.5t262.5 54q147 0 260.5 -54t190.5 -152.5t117 -236.5t40 -306t-40 -306.5t-117 -237.5t-191.5 -153.5t-261.5 -54.5t-262 54.5t-192 153.5t-117 237.5t-40 306.5zM276 721q0 -143 29 -259t88.5 -199t148.5 -128t210 -45 t210 45t148 128t88 199t29 259t-29 259t-88 198t-148.5 127t-209.5 45q-121 0 -210 -45t-148.5 -127t-88.5 -198t-29 -259z" />
<glyph unicode="P" horiz-adv-x="1159" d="M918 999q0 170 -88.5 248t-243.5 78h-271v-645h252q170 0 260.5 79.5t90.5 239.5zM1047 999q0 -86 -27 -164.5t-85 -139t-148.5 -96.5t-215.5 -36h-256v-563h-127v1440h402q119 0 205 -35t142 -94.5t83 -139.5t27 -172z" />
<glyph unicode="Q" horiz-adv-x="1503" d="M1362 721q0 -260 -95.5 -446.5t-275.5 -260.5q27 -37 67 -69.5t89 -59t104.5 -44t112.5 -25.5l-25 -105q-68 8 -137 34t-132.5 60.5t-117 79.5t-90.5 95q-25 -4 -50.5 -6.5t-53.5 -2.5q-160 0 -276.5 58.5t-191.5 160t-112 237.5t-37 294q0 168 40 306t117 236.5 t191.5 152.5t262.5 54q147 0 261.5 -54t191.5 -152.5t117 -236.5t40 -306zM1227 721q0 143 -29 259t-88 198t-148.5 127t-209.5 45q-121 0 -210 -45t-148.5 -127t-88.5 -198t-29 -259t29 -259t88.5 -199t148.5 -128t210 -45t210 45t148 128t88 199t29 259z" />
<glyph unicode="R" horiz-adv-x="1181" d="M1108 0h-150l-352 592h-291v-592h-127v1440h379q129 0 216 -37t140.5 -97.5t77 -135t23.5 -150.5q0 -80 -22.5 -145.5t-61.5 -114.5t-91 -84t-110 -55zM897 1014q0 143 -81 227t-263 84h-238v-620h246q174 0 255 84t81 225z" />
<glyph unicode="S" horiz-adv-x="1142" d="M506 690q-172 53 -264 146.5t-92 234.5q0 84 27.5 158t84.5 129t143.5 87t202.5 32q55 0 112.5 -8.5t111 -22.5t98.5 -33.5t76 -40.5l-50 -106q-47 31 -141 61.5t-215 30.5q-156 0 -237.5 -72t-81.5 -199q0 -49 13 -87.5t44 -71.5t82 -59.5t127 -53.5l147 -51 q176 -61 255 -153.5t79 -237.5q0 -84 -29.5 -158t-88 -128t-147.5 -86t-206 -32q-88 0 -164 14.5t-136 35t-102 42t-61 35.5l53 107q29 -18 69 -38t91 -37t114.5 -28.5t137.5 -11.5q152 0 244 67.5t92 206.5q0 102 -59.5 172t-200.5 115z" />
<glyph unicode="T" horiz-adv-x="1157" d="M514 1319h-442v121h1011v-121h-440v-1319h-129v1319z" />
<glyph unicode="U" horiz-adv-x="1339" d="M666 -33q-147 0 -242.5 44t-153 124t-80 189.5t-22.5 240.5v875h129v-846q0 -145 22.5 -243.5t68.5 -157t116.5 -83t165.5 -24.5q94 0 163.5 24.5t115.5 83t69.5 155.5t23.5 243v848h129v-877q0 -131 -23.5 -240.5t-81.5 -188.5t-155.5 -123t-244.5 -44z" />
<glyph unicode="V" horiz-adv-x="1165" d="M588 180l407 1260h133l-481 -1440h-123l-489 1440h139z" />
<glyph unicode="W" horiz-adv-x="1572" d="M483 0h-141l-311 1440h133l260 -1247l299 1212h127l291 -1210l270 1245h131l-328 -1440h-143l-287 1198z" />
<glyph unicode="X" horiz-adv-x="1224" d="M68 0l473 764l-406 676h150l331 -568l351 568h141l-416 -672l461 -768h-152l-389 653l-397 -653h-147z" />
<glyph unicode="Y" horiz-adv-x="1114" d="M487 629l-452 811h147l375 -688l383 688h139l-463 -807v-633h-129v629z" />
<glyph unicode="Z" horiz-adv-x="1185" d="M102 102l807 1219h-786v119h944v-103l-809 -1218h834v-119h-990v102z" />
<glyph unicode="[" horiz-adv-x="698" d="M190 1536h420v-109h-299v-1527h299v-109h-420v1745z" />
<glyph unicode="\" horiz-adv-x="849" d="M686 -96l-639 1632h117l639 -1632h-117z" />
<glyph unicode="]" horiz-adv-x="827" d="M518 -209h-420v109h299v1527h-299v109h420v-1745z" />
<glyph unicode="^" horiz-adv-x="1212" d="M1044 647h-122l-314 643l-319 -643h-121l389 766h105z" />
<glyph unicode="_" horiz-adv-x="913" d="M0 -268h913v-113h-913v113z" />
<glyph unicode="`" horiz-adv-x="1052" d="M735 1204l-463 215l58 115l450 -242z" />
<glyph unicode="a" horiz-adv-x="1060" d="M780 492q-16 4 -45.5 9t-68.5 9t-84 7t-88 3q-152 0 -212.5 -63.5t-60.5 -173.5q0 -106 67.5 -157.5t176.5 -51.5q63 0 120.5 23.5t100.5 61.5t68.5 87t25.5 100v146zM418 -25q-53 0 -109.5 15.5t-101.5 50.5t-74 94.5t-29 145.5q0 147 94.5 240t284.5 93q45 0 92.5 -3 t87 -8t70.5 -10t47 -7v100q0 133 -75.5 190.5t-217.5 57.5q-102 0 -169.5 -23.5t-110.5 -46.5l-39 90q39 23 127 54.5t223 31.5q180 0 278.5 -85t98.5 -259v-696h-109l-4 156q-31 -51 -71.5 -86t-89 -55.5t-100.5 -30t-103 -9.5z" />
<glyph unicode="b" horiz-adv-x="1185" d="M627 932q-68 0 -129.5 -30t-108.5 -86t-74.5 -137t-27.5 -183v-232q16 -25 44.5 -53.5t67.5 -54t88.5 -43t104.5 -17.5q160 0 251 98.5t91 321.5q0 90 -18.5 167t-55.5 132t-95 86t-138 31zM279 143q0 -37 -1.5 -71.5t-1.5 -71.5h-110v1536h121v-713q45 92 136 155.5 t218 63.5q104 0 182 -39.5t130.5 -109.5t79 -167t26.5 -210q0 -150 -39 -251t-101.5 -163.5t-141.5 -89t-156 -26.5q-121 0 -205 42.5t-137 114.5z" />
<glyph unicode="c" horiz-adv-x="962" d="M252 510q0 -109 25.5 -188.5t69.5 -131t106.5 -76t136.5 -24.5q94 0 153.5 19.5t96.5 37.5l45 -90q-29 -23 -101.5 -51.5t-201.5 -28.5q-217 0 -336 137.5t-119 393.5q0 119 31.5 217t91 169t143.5 109.5t191 38.5q63 0 113.5 -10t88 -25.5t62.5 -32.5l41 -30l-55 -90 l-37 22q-23 13 -53.5 25t-69.5 20.5t-84 8.5q-147 0 -242.5 -103.5t-95.5 -316.5z" />
<glyph unicode="d" horiz-adv-x="1185" d="M563 932q-80 0 -138 -33t-96 -89t-56.5 -134t-18.5 -168q0 -111 23.5 -189.5t68.5 -128t108.5 -72t143.5 -22.5q55 0 103.5 16.5t87 41t68.5 54.5t46 54v227q0 102 -27.5 184.5t-74.5 139.5t-108.5 88t-129.5 31zM909 143q-59 -70 -145 -113.5t-209 -43.5 q-80 0 -156.5 25.5t-137 86t-96.5 160.5t-36 250q0 111 28.5 208t82 169.5t131.5 114.5t176 42q129 0 219 -61t137 -158v713h121v-1536h-113z" />
<glyph unicode="e" horiz-adv-x="1116" d="M629 88q96 0 160.5 19.5t103.5 35.5l35 -94q-31 -20 -113 -46t-199 -26q-248 0 -368.5 138.5t-120.5 392.5q0 121 30.5 220t88 169t140.5 107.5t187 37.5q98 0 176 -29.5t132.5 -96t83 -170t28.5 -250.5v-21h-745q10 -182 101.5 -284.5t279.5 -102.5zM872 573 q-12 174 -81.5 267.5t-219.5 93.5q-154 0 -229.5 -94.5t-91.5 -266.5h622z" />
<glyph unicode="f" horiz-adv-x="749" d="M70 909v107h200v110q0 94 17.5 172t59.5 134.5t108.5 87t165.5 30.5q53 0 97 -7t66 -13l-16 -100q-16 4 -50 8t-69 4q-76 0 -125 -18.5t-78.5 -59.5t-41 -105.5t-11.5 -158.5v-84h314v-107h-314v-909h-123v909h-200z" />
<glyph unicode="g" horiz-adv-x="1110" d="M852 930q57 -39 90 -106.5t33 -143.5q0 -94 -39 -160.5t-98.5 -109.5t-132 -62.5t-142.5 -19.5q-66 0 -127 11t-117 42q-29 -25 -52 -59.5t-23 -77.5q0 -35 10 -59.5t36.5 -41t72 -24.5t116.5 -10l226 -5q68 -2 129 -14t109 -39.5t76 -75t28 -118.5q0 -68 -33 -128.5 t-100.5 -105.5t-169 -71.5t-236.5 -26.5q-84 0 -160 13t-133 46t-92 84t-35 129q0 84 40 146.5t99 109.5q-39 20 -65.5 59.5t-26.5 98.5q0 68 37 123t82 92q-53 43 -84 105.5t-31 150.5q0 94 38 161.5t98.5 111.5t134 65.5t145.5 21.5q41 0 74 -4t60.5 -9t53 -9t54.5 -4h276 v-96h-57q-31 0 -81 2t-83 8zM510 6q-45 2 -97.5 3t-101.5 14q-35 -27 -71.5 -78t-36.5 -123q0 -59 25.5 -97t68.5 -61.5t98.5 -33t116.5 -9.5q94 0 171 15.5t130 45t83 69.5t30 89q0 31 -8.5 59.5t-32 51t-65.5 36t-107 15.5zM856 684q0 74 -25.5 124t-66.5 81t-95.5 44 t-109.5 13q-57 0 -111.5 -14t-96.5 -45t-67.5 -81t-25.5 -122q0 -74 25.5 -124t67.5 -80.5t95.5 -44t110.5 -13.5q55 0 109.5 13.5t96.5 44t67.5 80.5t25.5 124z" />
<glyph unicode="h" horiz-adv-x="1150" d="M287 821q47 98 137 159.5t225 61.5q166 0 255 -96t89 -282v-664h-121v647q0 80 -19 135.5t-53 88t-80 47t-102 14.5q-78 0 -139 -36t-104 -93.5t-65.5 -131t-22.5 -149.5v-522h-121v1536h121v-715z" />
<glyph unicode="i" horiz-adv-x="468" d="M174 1016h121v-1016h-121v1016zM141 1356q0 45 26 72.5t66 27.5q41 0 68 -27.5t27 -72.5q0 -47 -27 -74t-68 -27t-66.5 28t-25.5 73z" />
<glyph unicode="j" horiz-adv-x="468" d="M295 -29q0 -215 -80 -322.5t-260 -107.5q-29 0 -67 5t-60 14l14 102q20 -4 48 -8t55 -4q74 0 119 21.5t69.5 66.5t32.5 113.5t8 162.5v1002h121v-1045zM141 1356q0 45 26 72.5t66 27.5q41 0 68 -27.5t27 -72.5q0 -47 -27 -74t-68 -27t-66.5 28t-25.5 73z" />
<glyph unicode="k" horiz-adv-x="944" d="M287 559l434 457h145l-442 -457l483 -559h-155l-465 545v-545h-121v1536h121v-977z" />
<glyph unicode="l" horiz-adv-x="454" d="M289 0h-123v1536h123v-1536z" />
<glyph unicode="m" horiz-adv-x="1763" d="M1257 932q-74 0 -131 -34t-97 -89t-61.5 -125t-21.5 -141v-543h-121v649q0 160 -59 221.5t-168 61.5q-72 0 -129 -37t-98 -95.5t-62.5 -131t-21.5 -146.5v-522h-121v1016h113l4 -201q47 98 134 162.5t214 64.5q106 0 188 -58t105 -179q49 104 140 170.5t220 66.5 q160 0 241 -97t81 -281v-664h-121v649q0 160 -58.5 221.5t-169.5 61.5z" />
<glyph unicode="n" horiz-adv-x="1150" d="M287 0h-121v1016h113l4 -201q47 96 138 161.5t220 65.5q176 0 264 -96t88 -282v-664h-121v647q0 80 -19 135.5t-53 88t-80 47t-102 14.5q-78 0 -139 -36t-104 -93.5t-65.5 -131t-22.5 -149.5v-522z" />
<glyph unicode="o" horiz-adv-x="1189" d="M594 88q176 0 260 113.5t84 308.5q0 190 -85 306t-259 116q-172 0 -257 -116t-85 -306q0 -195 84 -308.5t258 -113.5zM594 1042q117 0 204 -39.5t145 -110.5t88 -168t30 -214t-31 -215t-89 -169t-146 -110t-201 -39q-115 0 -203 39t-146.5 110t-88 169t-29.5 215 t30.5 214t89 168t145.5 110.5t202 39.5z" />
<glyph unicode="p" horiz-adv-x="1185" d="M627 932q-80 0 -143.5 -36t-106.5 -96.5t-66.5 -137t-23.5 -156.5v-277q18 -18 50 -41.5t72 -44t87 -35t96 -14.5q158 0 250 101.5t92 326.5q0 88 -18.5 163t-56.5 130t-95 86t-137 31zM643 1042q104 0 182 -39.5t130.5 -109.5t78 -165t25.5 -206q0 -150 -40 -252 t-103.5 -165.5t-142.5 -91t-159 -27.5q-100 0 -183 34.5t-144 83.5v-555h-121v1467h113l4 -201q43 92 135 159.5t225 67.5z" />
<glyph unicode="q" horiz-adv-x="1185" d="M561 932q-147 0 -228 -112.5t-81 -311.5q0 -111 24.5 -189.5t68.5 -128t105.5 -73t135.5 -23.5q113 0 189.5 52.5t125.5 113.5v229q0 90 -25.5 171t-70.5 141.5t-107.5 95.5t-136.5 35zM551 1042q70 0 127 -19t100 -50t74 -70t49 -78l6 191h115v-1467h-121v588 q-18 -23 -49 -49.5t-75 -49t-100 -37.5t-124 -15q-82 0 -159 26.5t-136 87t-95 160.5t-36 248q0 111 27.5 208t81 169.5t133.5 114.5t182 42z" />
<glyph unicode="r" horiz-adv-x="765" d="M643 1026q23 0 49.5 -2t34.5 -6l-10 -111q-16 4 -39 5t-43 1q-74 0 -137.5 -31.5t-108.5 -90t-70.5 -141.5t-25.5 -187v-463h-121v1016h113l4 -234q20 49 53 94.5t78 78t101 52t122 19.5z" />
<glyph unicode="s" horiz-adv-x="950" d="M139 164q51 -29 134 -55.5t200 -26.5q152 0 208 51t56 129q0 74 -45 121t-172 70l-110 20q-66 12 -119 31.5t-93 51.5t-61.5 78t-21.5 114q0 141 104.5 217.5t272.5 76.5q102 0 185 -22.5t132 -48.5l-43 -94q-45 23 -111.5 41t-156.5 18q-139 0 -204 -44t-65 -130 q0 -39 11.5 -67.5t37 -50t69.5 -37t110 -27.5l112 -21q61 -12 113.5 -33.5t90.5 -55.5t59.5 -80t21.5 -109q0 -139 -99.5 -221.5t-279.5 -82.5q-127 0 -229.5 31t-149.5 62z" />
<glyph unicode="t" horiz-adv-x="804" d="M625 96q29 0 53 2t43 6l12 -98q-20 -6 -61 -12t-90 -6q-164 0 -232.5 77.5t-68.5 217.5v626h-211v107h211v299l120 33v-332h310v-107h-310v-592q0 -70 14.5 -112.5t43 -67t71 -33t95.5 -8.5z" />
<glyph unicode="u" horiz-adv-x="1157" d="M870 1016h121v-1016h-112l-5 197q-49 -98 -138 -160t-230 -62q-168 0 -254 95.5t-86 281.5v664h121v-647q0 -80 18.5 -134.5t52 -87t79.5 -47t102 -14.5q78 0 139 35t104 92t65.5 130t22.5 151v522z" />
<glyph unicode="v" horiz-adv-x="991" d="M430 0l-385 1016h133l322 -893l317 893h127l-383 -1016h-131z" />
<glyph unicode="w" horiz-adv-x="1400" d="M45 1016h129l250 -881l219 850h125l219 -850l248 881h121l-305 -1016h-131l-218 836l-219 -836h-131z" />
<glyph unicode="x" horiz-adv-x="974" d="M752 1016h129l-330 -477l371 -539h-142l-305 446l-293 -446h-131l361 528l-332 488h139l266 -398z" />
<glyph unicode="y" horiz-adv-x="1003" d="M45 1016h135l324 -830l330 830h124l-612 -1467h-119l211 500z" />
<glyph unicode="z" horiz-adv-x="987" d="M115 84l608 838h-600v104h751v-86l-610 -838h617v-102h-766v84z" />
<glyph unicode="{" horiz-adv-x="690" d="M119 723q41 8 69.5 29.5t46 50t24.5 63.5t7 72v256q0 78 18.5 141.5t58.5 107.5t104.5 68.5t156.5 24.5v-104q-127 0 -173 -62.5t-46 -200.5v-237q0 -92 -40 -163t-103 -103q63 -29 103 -93.5t40 -171.5v-243q0 -63 10.5 -112.5t35 -83.5t66.5 -51t107 -17v-103 q-98 0 -163.5 26.5t-104.5 74t-54.5 113t-15.5 145.5v239q0 72 -32.5 134.5t-114.5 78.5v121z" />
<glyph unicode="|" horiz-adv-x="512" d="M199 -96v1632h114v-1632h-114z" />
<glyph unicode="}" horiz-adv-x="690" d="M569 602q-82 -16 -113.5 -78.5t-31.5 -134.5v-239q0 -80 -15.5 -145.5t-54.5 -113t-104.5 -74t-163.5 -26.5v103q129 0 174 68.5t45 195.5v243q0 106 39 170t105 93q-66 33 -105 104.5t-39 163.5v237q0 137 -46 200t-173 63v104q92 0 156.5 -24.5t104.5 -68.5 t58.5 -107.5t18.5 -141.5v-256q0 -37 7 -72t24.5 -63.5t45 -50t68.5 -29.5v-121z" />
<glyph unicode="~" horiz-adv-x="1212" d="M827 840q72 0 120 29.5t100 76.5l65 -74q-55 -59 -124.5 -100t-164.5 -41q-72 0 -129 26.5t-104 55.5q-37 23 -76 42t-90 19q-66 0 -132.5 -38.5t-127.5 -98.5l-66 80q27 27 63 56.5t78 54t90 40t99 15.5q72 0 129 -26.5t105 -55.5q37 -23 77.5 -42t87.5 -19z" />
<glyph unicode="&#xa1;" horiz-adv-x="573" d="M346 -418h-123v1034h123v-1034zM186 932q0 49 29 78.5t72 29.5t71.5 -29.5t28.5 -78.5q0 -51 -28.5 -80t-71.5 -29t-72 30t-29 79z" />
<glyph unicode="&#xa2;" horiz-adv-x="1212" d="M733 1237q55 -2 103.5 -12.5t86.5 -24.5t65.5 -28.5t41.5 -26.5l-49 -90q-12 8 -37.5 20t-58.5 24.5t-72 21.5t-80 9v-851q88 2 151.5 24.5t98.5 38.5l43 -86q-29 -18 -105.5 -48t-187.5 -36v-199h-96v201q-94 8 -172 47t-134.5 105.5t-87 161t-30.5 217.5 q0 117 31.5 210t88 160.5t134.5 107.5t170 50v207h96v-203zM334 705q0 -106 23.5 -182.5t65.5 -125.5t97 -75.5t117 -36.5v841q-61 -10 -116.5 -37.5t-97.5 -79t-65.5 -126t-23.5 -178.5z" />
<glyph unicode="&#xa3;" horiz-adv-x="1212" d="M176 838h160l-12.5 112.5t-6.5 93.5q0 88 26 165t80 133.5t136 89t195 32.5q66 0 121 -14t99 -33.5t74.5 -42t47.5 -39.5l-66 -88q-14 12 -38.5 29.5t-60.5 35t-80 30t-95 12.5q-84 0 -143.5 -24.5t-96.5 -67.5t-54.5 -99.5t-17.5 -120.5q0 -41 5.5 -99t11.5 -105h364 v-107h-346q10 -53 15.5 -121.5t5.5 -109.5q0 -72 -17.5 -132.5t-42 -109.5t-51.5 -86t-45 -59h713v-113h-852v96l49 64t55.5 91t45 116.5t18.5 142.5q0 53 -5.5 112.5t-13.5 108.5h-178v107z" />
<glyph unicode="&#xa4;" horiz-adv-x="1212" d="M909 942q78 -96 78 -240q0 -135 -74 -231l168 -170l-65 -68l-170 170q-100 -82 -242 -81q-145 0 -239 79l-168 -168l-66 68l168 166q-72 96 -72 233q0 139 78 240l-174 176l68 70l174 -180q100 76 233 75q137 0 234 -71l174 176l69 -68zM879 702q0 125 -74 203t-199 78 q-123 0 -197.5 -78t-74.5 -203q0 -129 74.5 -204.5t197.5 -75.5q125 0 199 75.5t74 204.5z" />
<glyph unicode="&#xa5;" horiz-adv-x="1212" d="M1028 604h-362v-209h362v-104h-362v-291h-123v291h-348v104h348v209h-348v105h305l-410 731h148l370 -695l383 695h139l-423 -731h321v-105z" />
<glyph unicode="&#xa6;" horiz-adv-x="512" d="M199 866v670h114v-670h-114zM199 -451v672h114v-672h-114z" />
<glyph unicode="&#xa7;" horiz-adv-x="1144" d="M969 598q0 -86 -39 -159.5t-105 -131.5q47 -41 74 -98t27 -143q0 -74 -27 -137.5t-76 -109.5t-120.5 -72t-159.5 -26q-66 0 -119 10.5t-94 25t-70 29.5l-43 24l45 92q37 -20 106.5 -48t174.5 -28q55 0 104 14.5t85 44t57.5 74.5t21.5 109q0 80 -47 133t-135 88l-189 76 q-53 20 -100 48.5t-82 66.5t-56.5 88t-21.5 114q0 82 37 159t109 138q-53 47 -77 103.5t-24 134.5q0 82 30 146t82 108.5t122.5 68t150.5 23.5q63 0 115.5 -10.5t92.5 -23.5t68.5 -28.5t47.5 -27.5l-43 -91l-42 22q-26 13 -60.5 25.5t-76.5 20.5t-91 8q-59 0 -109.5 -13 t-89.5 -42t-60.5 -72t-21.5 -104q0 -160 190 -236l179 -71q127 -51 193.5 -126t66.5 -196zM492 887q-53 23 -84 41q-45 -35 -82 -96.5t-37 -133.5q0 -86 53 -140t156 -95l151 -62q51 -20 92 -45q18 14 39 37t38.5 51.5t29.5 64.5t12 77q0 86 -56 142t-153 95z" />
<glyph unicode="&#xa8;" horiz-adv-x="1009" d="M205 1311q0 47 27.5 74.5t68.5 27.5t67.5 -27.5t26.5 -74.5t-26.5 -75t-67.5 -28t-68.5 28t-27.5 75zM614 1311q0 47 27 74.5t68 27.5t68.5 -27.5t27.5 -74.5t-27.5 -75t-68.5 -28t-68 28t-27 75z" />
<glyph unicode="&#xa9;" horiz-adv-x="1685" d="M1589 723q0 -164 -55 -302t-154.5 -237.5t-236.5 -155t-299 -55.5q-164 0 -300 55.5t-235.5 155t-155 237.5t-55.5 302q0 162 55.5 299t154 237.5t235.5 157t303 56.5q162 0 299 -56.5t235.5 -157t153.5 -237.5t55 -299zM627 719q0 -154 64.5 -227.5t176.5 -73.5 q84 0 133.5 17.5t65.5 25.5l31 -68q-6 -6 -23.5 -16t-47.5 -20.5t-71 -18.5t-92 -8q-166 0 -253 103.5t-87 285.5q0 86 24.5 157.5t69 124t109 82t143.5 29.5q51 0 92.5 -9t71 -21.5t47 -23.5t23.5 -18l-39 -71q-16 10 -66.5 31.5t-128.5 21.5q-113 0 -178 -76.5t-65 -226.5 zM1485 721q0 141 -48 261t-134 208t-203 137t-254 49q-139 0 -257 -49t-204 -137t-135 -208t-49 -261t48 -261t134 -207t204 -136t257 -49q137 0 255 49t204 136t134 207t48 261z" />
<glyph unicode="&#xaa;" horiz-adv-x="737" d="M522 1133q-4 0 -18.5 2t-36 3t-46 3t-44.5 2q-80 0 -126 -29t-46 -92q0 -66 34.5 -93.5t96.5 -27.5q37 0 69.5 10.5t59.5 27.5t42 42t15 53v99zM535 840l-7 71q-33 -37 -90 -62.5t-114 -25.5q-92 0 -151.5 47.5t-59.5 149.5q0 96 68.5 146.5t191.5 50.5q18 0 40.5 -1.5 t44 -3.5t39 -3t25.5 -3v43q0 78 -42 112t-128 34q-57 0 -104 -12.5t-74 -28.5l-27 69q27 16 85.5 33t129.5 17q131 0 191.5 -59.5t60.5 -182.5v-391h-79zM614 639h-493v82h493v-82z" />
<glyph unicode="&#xab;" horiz-adv-x="960" d="M352 117l-235 395l235 395h123l-227 -395l227 -395h-123zM721 117l-236 395l236 395h123l-228 -395l228 -395h-123z" />
<glyph unicode="&#xac;" horiz-adv-x="1212" d="M205 926h801v-492h-111v385h-690v107z" />
<glyph unicode="&#xad;" horiz-adv-x="864" d="M137 633h588v-117h-588v117z" />
<glyph unicode="&#xae;" horiz-adv-x="1685" d="M1589 723q0 -164 -55 -302t-154.5 -237.5t-236.5 -155t-299 -55.5q-164 0 -300 55.5t-235.5 155t-155 237.5t-55.5 302q0 162 55.5 299t154 237.5t235.5 157t303 56.5q162 0 299 -56.5t235.5 -157t153.5 -237.5t55 -299zM1485 721q0 139 -48 259t-134 208t-203 138 t-254 50q-139 0 -257 -50t-204 -138t-135 -208t-49 -259t48 -259t134 -207t204 -137t257 -50q137 0 255 50t204 138t134 207t48 258zM1143 338h-107l-176 303h-168v-303h-98v764h256q70 0 120 -18.5t81.5 -50.5t46 -72.5t14.5 -86.5q0 -88 -45 -138t-111 -72zM1014 872 q0 66 -38 105t-122 39h-162v-289h156q78 0 122 39.5t44 105.5z" />
<glyph unicode="&#xaf;" horiz-adv-x="1034" d="M227 1255v109h582v-109h-582z" />
<glyph unicode="&#xb0;" horiz-adv-x="815" d="M682 1141q0 -57 -21.5 -106.5t-58.5 -84.5t-87 -55.5t-107 -20.5q-123 0 -199 74t-76 191q0 55 20.5 103t57.5 85t87 57.5t110 20.5q121 0 197.5 -73.5t76.5 -190.5zM588 1141q0 78 -51.5 129t-128.5 51q-80 0 -130.5 -52t-50.5 -130q0 -82 51.5 -131.5t131.5 -49.5 q76 0 127 49.5t51 133.5z" />
<glyph unicode="&#xb1;" horiz-adv-x="1212" d="M154 819h395v402h115v-402h393v-110h-393v-402h-115v402h-395v110zM154 109h903v-109h-903v109z" />
<glyph unicode="&#xb2;" d="M401 1024q72 45 115 88t43 109q0 59 -39 94t-112 35q-74 0 -121 -34t-74 -63l-61 58q12 18 35.5 40.5t55 42t74.5 33t97 13.5q123 0 189.5 -60.5t66.5 -154.5q0 -45 -17.5 -83t-46 -70t-67.5 -61.5t-82 -56.5l-70 -46q-33 -22 -57.5 -48t-40 -57t-15.5 -74h408v-90h-516 v39q0 59 12 105t40 86t72.5 77t110.5 78z" />
<glyph unicode="&#xb3;" d="M287 1083h110q82 0 128 40t46 110q0 59 -43 89t-116 30q-80 0 -131.5 -27t-75.5 -45l-47 66q35 33 103.5 63.5t160.5 30.5q70 0 118 -17.5t77.5 -45t43 -64.5t13.5 -76q0 -74 -38 -120t-89 -68q61 -20 104 -66.5t43 -128.5q0 -104 -79.5 -167.5t-231.5 -63.5 q-72 0 -125 9t-94 21l18 86q33 -10 81 -19t108 -9q115 0 165 40t50 105q0 63 -41 102t-144 39h-114v86z" />
<glyph unicode="&#xb4;" horiz-adv-x="1052" d="M723 1534l57 -115l-465 -215l-43 88z" />
<glyph unicode="&#xb5;" horiz-adv-x="1155" d="M166 1016h121v-645q0 -78 18.5 -132.5t52 -88t79.5 -49t102 -15.5q80 0 141 35t103 93t64.5 133t22.5 157v512h121v-1016h-112l-5 197q-16 -33 -44.5 -72t-70.5 -72t-99.5 -55.5t-131.5 -22.5q-86 0 -150.5 38t-92.5 79v-543h-119v1467z" />
<glyph unicode="&#xb6;" horiz-adv-x="1161" d="M483 678q-90 0 -160.5 27.5t-117.5 78t-71.5 121t-24.5 154.5q0 82 26.5 151.5t75.5 120.5t119.5 80t161.5 29h471v-1719h-119v1604h-240v-1604h-121v957z" />
<glyph unicode="&#xb7;" horiz-adv-x="514" d="M158 709q0 49 28.5 80t71.5 31t71.5 -30t28.5 -81q0 -49 -29.5 -77.5t-72.5 -28.5t-70.5 28.5t-27.5 77.5z" />
<glyph unicode="&#xb8;" horiz-adv-x="1034" d="M532 -100q102 -8 152.5 -57.5t50.5 -127.5q0 -98 -70.5 -151t-181.5 -53q-86 0 -134 14t-58 18l22 82q35 -10 69 -18t85 -8q76 0 117 28.5t41 85.5q0 100 -152 101q-29 0 -61 -7l41 193h100z" />
<glyph unicode="&#xb9;" d="M424 1307l-209 -123l-43 78l266 163h90v-786h-104v668z" />
<glyph unicode="&#xba;" horiz-adv-x="780" d="M389 823q-141 0 -217 89t-76 235q0 72 20.5 131t59.5 102t93.5 68t119.5 25q141 0 218 -91.5t77 -234.5t-79 -233.5t-216 -90.5zM389 905q98 0 147.5 62.5t49.5 179.5t-49.5 180.5t-147.5 63.5q-92 0 -143 -63.5t-51 -180.5t48 -179.5t146 -62.5zM676 639h-570v82h570 v-82z" />
<glyph unicode="&#xbb;" horiz-adv-x="960" d="M713 512l-228 395h123l236 -395l-236 -395h-123zM344 512l-227 395h123l235 -395l-235 -395h-123z" />
<glyph unicode="&#xbc;" horiz-adv-x="1875" d="M1237 1413h125l-764 -1413h-125zM426 1307l-209 -123l-43 78l266 163h90v-786h-104v668zM1579 463v-203h131v-88h-131v-170h-92v170h-367v59l326 557h108l-309 -528h242v203h92z" />
<glyph unicode="&#xbd;" horiz-adv-x="1875" d="M1233 1413h125l-764 -1413h-125zM424 1307l-209 -123l-43 78l266 163h90v-786h-104v668zM1415 387q72 45 115 88t43 109q0 59 -39 94t-112 35q-74 0 -121 -34t-74 -63l-61 58q12 18 35.5 40.5t55 42t74.5 33t97 13.5q123 0 189.5 -60.5t66.5 -154.5q0 -45 -17.5 -83 t-46 -70t-67.5 -61.5t-82 -56.5l-70 -46q-33 -22 -57.5 -48t-40 -57t-15.5 -74h408v-90h-516v39q0 59 12 105t40 86t72.5 77t110.5 78z" />
<glyph unicode="&#xbe;" horiz-adv-x="1875" d="M1309 1413h125l-764 -1413h-125zM1640 463v-203h131v-88h-131v-170h-92v170h-367v59l326 557h108l-309 -528h242v203h92zM318 1083h110q82 0 128 40t46 110q0 59 -43 89t-116 30q-80 0 -131.5 -27t-75.5 -45l-47 66q35 33 103.5 63.5t160.5 30.5q70 0 118 -17.5t77.5 -45 t43 -64.5t13.5 -76q0 -74 -38 -120t-89 -68q61 -20 104 -66.5t43 -128.5q0 -104 -79.5 -167.5t-231.5 -63.5q-72 0 -125 9t-94 21l18 86q33 -10 81 -19t108 -9q115 0 165 40t50 105q0 63 -41 102t-144 39h-114v86z" />
<glyph unicode="&#xbf;" horiz-adv-x="1081" d="M635 653q0 -78 -12.5 -135t-39 -104t-68.5 -92.5t-101 -98.5q-23 -20 -50.5 -48t-51 -63.5t-39 -77.5t-15.5 -91q0 -123 71.5 -197t221.5 -74q123 0 214 52.5t150 125.5l74 -75q-27 -35 -67.5 -72t-96 -69.5t-127 -53t-161.5 -20.5q-102 0 -178 29.5t-126.5 80.5t-75 119 t-24.5 143q0 68 17.5 122.5t45 98.5t62.5 79.5t70 66.5q43 37 77.5 70.5t59 73.5t39 90.5t14.5 119.5h117zM670 942q0 -49 -29 -78.5t-72 -29.5t-71.5 28.5t-28.5 79.5q0 49 28.5 79t71.5 30t72 -30t29 -79z" />
<glyph unicode="&#xc0;" horiz-adv-x="1185" d="M883 401h-592l-129 -401h-123l481 1440h144l483 -1440h-133zM326 514h520l-258 778zM795 1563l-477 200l53 119l465 -229z" />
<glyph unicode="&#xc1;" horiz-adv-x="1185" d="M883 401h-592l-129 -401h-123l481 1440h144l483 -1440h-133zM326 514h520l-258 778zM794 1882l53 -119l-477 -200l-41 90z" />
<glyph unicode="&#xc2;" horiz-adv-x="1185" d="M883 401h-592l-129 -401h-123l481 1440h144l483 -1440h-133zM326 514h520l-258 778zM869 1561l-281 198l-280 -198l-68 69l291 252h115l290 -252z" />
<glyph unicode="&#xc3;" horiz-adv-x="1185" d="M883 401h-592l-129 -401h-123l481 1440h144l483 -1440h-133zM326 514h520l-258 778zM436 1815q51 0 91 -18.5t74 -42t67 -42t71 -18.5q96 0 97 118h108q0 -115 -54 -171t-153 -56q-51 0 -89 18.5t-71.5 41t-66.5 41t-70 18.5q-100 0 -100 -117h-108q0 111 51 169.5 t153 58.5z" />
<glyph unicode="&#xc4;" horiz-adv-x="1185" d="M883 401h-592l-129 -401h-123l481 1440h144l483 -1440h-133zM326 514h520l-258 778zM285 1708q0 49 28.5 78t69.5 29q43 0 71 -29t28 -78q0 -47 -28 -76.5t-71 -29.5q-41 0 -69.5 29.5t-28.5 76.5zM691 1708q0 49 28.5 78t69.5 29q43 0 71.5 -29t28.5 -78 q0 -47 -28.5 -76.5t-71.5 -29.5q-41 0 -69.5 29.5t-28.5 76.5z" />
<glyph unicode="&#xc5;" horiz-adv-x="1185" d="M809 1599q0 -72 -38 -123t-97 -73l473 -1403h-133l-131 401h-592l-129 -401h-123l467 1401q-63 20 -101 72.5t-38 123.5q0 49 17 88t48 68t72 44t86 15q96 0 157.5 -58.5t61.5 -154.5zM326 514h520l-258 778zM713 1597q0 59 -35 93t-90 34q-51 0 -87 -32.5t-36 -94.5 q0 -57 35 -90.5t88 -33.5q55 0 90 32.5t35 91.5z" />
<glyph unicode="&#xc6;" horiz-adv-x="1730" d="M795 1440h852v-119h-664v-512h518v-119h-518v-571h684v-119h-811v416h-469l-217 -416h-135zM449 526h407v789z" />
<glyph unicode="&#xc7;" horiz-adv-x="1275" d="M760 1350q-231 0 -358.5 -161t-127.5 -476q0 -324 127 -472.5t359 -148.5q68 0 124 12.5t103 31t84 41t64 42.5l59 -92q-70 -59 -183.5 -104.5t-258.5 -45.5h-7l-16 -77q102 -8 152.5 -59.5t50.5 -125.5q0 -98 -69.5 -151t-182.5 -53q-86 0 -134 14t-59 18l21 88 q35 -10 69.5 -18t86.5 -8q72 0 110.5 24.5t38.5 81.5q0 45 -32.5 70.5t-108.5 25.5q-16 0 -35 -1t-35 -5l39 185q-258 31 -380 217t-122 510q0 168 38 306t115 236.5t192.5 152.5t271.5 54q84 0 153.5 -16t122.5 -40t91 -49.5t61 -45.5l-66 -92q-51 43 -139 87t-219 44z" />
<glyph unicode="&#xc8;" horiz-adv-x="1069" d="M188 1440h795v-119h-666v-512h521v-119h-521v-571h687v-119h-816v1440zM805 1563l-477 200l53 119l465 -229z" />
<glyph unicode="&#xc9;" horiz-adv-x="1069" d="M188 1440h795v-119h-666v-512h521v-119h-521v-571h687v-119h-816v1440zM815 1882l53 -119l-477 -200l-41 90z" />
<glyph unicode="&#xca;" horiz-adv-x="1069" d="M188 1440h795v-119h-666v-512h521v-119h-521v-571h687v-119h-816v1440zM885 1561l-281 198l-280 -198l-68 69l291 252h115l290 -252z" />
<glyph unicode="&#xcb;" horiz-adv-x="1069" d="M188 1440h795v-119h-666v-512h521v-119h-521v-571h687v-119h-816v1440zM289 1708q0 49 28.5 78t69.5 29q43 0 71 -29t28 -78q0 -47 -28 -76.5t-71 -29.5q-41 0 -69.5 29.5t-28.5 76.5zM695 1708q0 49 28.5 78t69.5 29q43 0 71.5 -29t28.5 -78q0 -47 -28.5 -76.5 t-71.5 -29.5q-41 0 -69.5 29.5t-28.5 76.5z" />
<glyph unicode="&#xcc;" horiz-adv-x="505" d="M317 0h-129v1440h129v-1440zM481 1563l-477 200l53 119l465 -229z" />
<glyph unicode="&#xcd;" horiz-adv-x="505" d="M317 0h-129v1440h129v-1440zM461 1882l53 -119l-477 -200l-41 90z" />
<glyph unicode="&#xce;" horiz-adv-x="505" d="M317 0h-129v1440h129v-1440zM535 1561l-281 198l-280 -198l-68 69l291 252h115l290 -252z" />
<glyph unicode="&#xcf;" horiz-adv-x="505" d="M317 0h-129v1440h129v-1440zM-47 1708q0 49 28.5 78t69.5 29q43 0 71 -29t28 -78q0 -47 -28 -76.5t-71 -29.5q-41 0 -69.5 29.5t-28.5 76.5zM359 1708q0 49 28.5 78t69.5 29q43 0 71.5 -29t28.5 -78q0 -47 -28.5 -76.5t-71.5 -29.5q-41 0 -69.5 29.5t-28.5 76.5z" />
<glyph unicode="&#xd0;" horiz-adv-x="1411" d="M45 788h158v652h428q313 0 477 -188.5t164 -532.5q0 -174 -45 -308.5t-128 -225.5t-202 -138t-266 -47h-428v678h-158v110zM631 119q236 0 371 152.5t135 449.5q0 309 -136.5 454.5t-369.5 145.5h-299v-533h332v-110h-332v-559h299z" />
<glyph unicode="&#xd1;" horiz-adv-x="1351" d="M313 1227v-1227h-125v1440h136l714 -1221v1221h125v-1440h-125zM532 1815q51 0 91 -18.5t74 -42t67 -42t71 -18.5q96 0 97 118h108q0 -115 -54 -171t-153 -56q-51 0 -89 18.5t-71.5 41t-66.5 41t-70 18.5q-100 0 -100 -117h-108q0 111 51 169.5t153 58.5z" />
<glyph unicode="&#xd2;" horiz-adv-x="1503" d="M141 721q0 168 40 306t118 236.5t192.5 152.5t262.5 54q147 0 260.5 -54t190.5 -152.5t117 -236.5t40 -306t-40 -306.5t-117 -237.5t-191.5 -153.5t-261.5 -54.5t-262 54.5t-192 153.5t-117 237.5t-40 306.5zM276 721q0 -143 29 -259t88.5 -199t148.5 -128t210 -45 t210 45t148 128t88 199t29 259t-29 259t-88 198t-148.5 127t-209.5 45q-121 0 -210 -45t-148.5 -127t-88.5 -198t-29 -259zM993 1563l-477 200l53 119l465 -229z" />
<glyph unicode="&#xd3;" horiz-adv-x="1503" d="M141 721q0 168 40 306t118 236.5t192.5 152.5t262.5 54q147 0 260.5 -54t190.5 -152.5t117 -236.5t40 -306t-40 -306.5t-117 -237.5t-191.5 -153.5t-261.5 -54.5t-262 54.5t-192 153.5t-117 237.5t-40 306.5zM276 721q0 -143 29 -259t88.5 -199t148.5 -128t210 -45 t210 45t148 128t88 199t29 259t-29 259t-88 198t-148.5 127t-209.5 45q-121 0 -210 -45t-148.5 -127t-88.5 -198t-29 -259zM964 1882l53 -119l-477 -200l-41 90z" />
<glyph unicode="&#xd4;" horiz-adv-x="1503" d="M141 721q0 168 40 306t118 236.5t192.5 152.5t262.5 54q147 0 260.5 -54t190.5 -152.5t117 -236.5t40 -306t-40 -306.5t-117 -237.5t-191.5 -153.5t-261.5 -54.5t-262 54.5t-192 153.5t-117 237.5t-40 306.5zM276 721q0 -143 29 -259t88.5 -199t148.5 -128t210 -45 t210 45t148 128t88 199t29 259t-29 259t-88 198t-148.5 127t-209.5 45q-121 0 -210 -45t-148.5 -127t-88.5 -198t-29 -259zM1045 1561l-281 198l-280 -198l-68 69l291 252h115l290 -252z" />
<glyph unicode="&#xd5;" horiz-adv-x="1503" d="M141 721q0 168 40 306t118 236.5t192.5 152.5t262.5 54q147 0 260.5 -54t190.5 -152.5t117 -236.5t40 -306t-40 -306.5t-117 -237.5t-191.5 -153.5t-261.5 -54.5t-262 54.5t-192 153.5t-117 237.5t-40 306.5zM276 721q0 -143 29 -259t88.5 -199t148.5 -128t210 -45 t210 45t148 128t88 199t29 259t-29 259t-88 198t-148.5 127t-209.5 45q-121 0 -210 -45t-148.5 -127t-88.5 -198t-29 -259zM616 1815q51 0 91 -18.5t74 -42t67 -42t71 -18.5q96 0 97 118h108q0 -115 -54 -171t-153 -56q-51 0 -89 18.5t-71.5 41t-66.5 41t-70 18.5 q-100 0 -100 -117h-108q0 111 51 169.5t153 58.5z" />
<glyph unicode="&#xd6;" horiz-adv-x="1503" d="M141 721q0 168 40 306t118 236.5t192.5 152.5t262.5 54q147 0 260.5 -54t190.5 -152.5t117 -236.5t40 -306t-40 -306.5t-117 -237.5t-191.5 -153.5t-261.5 -54.5t-262 54.5t-192 153.5t-117 237.5t-40 306.5zM276 721q0 -143 29 -259t88.5 -199t148.5 -128t210 -45 t210 45t148 128t88 199t29 259t-29 259t-88 198t-148.5 127t-209.5 45q-121 0 -210 -45t-148.5 -127t-88.5 -198t-29 -259zM461 1708q0 49 28.5 78t69.5 29q43 0 71 -29t28 -78q0 -47 -28 -76.5t-71 -29.5q-41 0 -69.5 29.5t-28.5 76.5zM867 1708q0 49 28.5 78t69.5 29 q43 0 71.5 -29t28.5 -78q0 -47 -28.5 -76.5t-71.5 -29.5q-41 0 -69.5 29.5t-28.5 76.5z" />
<glyph unicode="&#xd7;" horiz-adv-x="1212" d="M311 1092l295 -324l295 319l80 -71l-303 -322l297 -317l-78 -72l-293 316l-293 -314l-78 72l297 317l-299 322z" />
<glyph unicode="&#xd8;" horiz-adv-x="1503" d="M322 150q-90 98 -135.5 244.5t-45.5 326.5q0 168 40 306t117 236.5t191.5 152.5t262.5 54q106 0 192 -28.5t158 -81.5l112 176l91 -55l-123 -191q90 -98 135 -243.5t45 -325.5q0 -168 -40 -306.5t-117 -237.5t-191.5 -153.5t-261.5 -54.5q-104 0 -191.5 28t-159.5 81 l-102 -162l-90 57zM276 721q0 -143 30 -260t89 -199l641 993q-55 45 -125.5 70t-158.5 25q-121 0 -210 -45t-148.5 -127t-88.5 -198t-29 -259zM1227 721q0 289 -119 455l-637 -994q111 -92 281 -92q121 0 210 45t148 128t88 199t29 259z" />
<glyph unicode="&#xd9;" horiz-adv-x="1339" d="M666 -33q-147 0 -242.5 44t-153 124t-80 189.5t-22.5 240.5v875h129v-846q0 -145 22.5 -243.5t68.5 -157t116.5 -83t165.5 -24.5q94 0 163.5 24.5t115.5 83t69.5 155.5t23.5 243v848h129v-877q0 -131 -23.5 -240.5t-81.5 -188.5t-155.5 -123t-244.5 -44zM885 1563 l-477 200l53 119l465 -229z" />
<glyph unicode="&#xda;" horiz-adv-x="1339" d="M666 -33q-147 0 -242.5 44t-153 124t-80 189.5t-22.5 240.5v875h129v-846q0 -145 22.5 -243.5t68.5 -157t116.5 -83t165.5 -24.5q94 0 163.5 24.5t115.5 83t69.5 155.5t23.5 243v848h129v-877q0 -131 -23.5 -240.5t-81.5 -188.5t-155.5 -123t-244.5 -44zM924 1882 l53 -119l-477 -200l-41 90z" />
<glyph unicode="&#xdb;" horiz-adv-x="1339" d="M666 -33q-147 0 -242.5 44t-153 124t-80 189.5t-22.5 240.5v875h129v-846q0 -145 22.5 -243.5t68.5 -157t116.5 -83t165.5 -24.5q94 0 163.5 24.5t115.5 83t69.5 155.5t23.5 243v848h129v-877q0 -131 -23.5 -240.5t-81.5 -188.5t-155.5 -123t-244.5 -44zM971 1561 l-281 198l-280 -198l-68 69l291 252h115l290 -252z" />
<glyph unicode="&#xdc;" horiz-adv-x="1339" d="M666 -33q-147 0 -242.5 44t-153 124t-80 189.5t-22.5 240.5v875h129v-846q0 -145 22.5 -243.5t68.5 -157t116.5 -83t165.5 -24.5q94 0 163.5 24.5t115.5 83t69.5 155.5t23.5 243v848h129v-877q0 -131 -23.5 -240.5t-81.5 -188.5t-155.5 -123t-244.5 -44zM381 1708 q0 49 28.5 78t69.5 29q43 0 71 -29t28 -78q0 -47 -28 -76.5t-71 -29.5q-41 0 -69.5 29.5t-28.5 76.5zM787 1708q0 49 28.5 78t69.5 29q43 0 71.5 -29t28.5 -78q0 -47 -28.5 -76.5t-71.5 -29.5q-41 0 -69.5 29.5t-28.5 76.5z" />
<glyph unicode="&#xdd;" horiz-adv-x="1114" d="M487 629l-452 811h147l375 -688l383 688h139l-463 -807v-633h-129v629zM833 1882l53 -119l-477 -200l-41 90z" />
<glyph unicode="&#xde;" horiz-adv-x="1150" d="M1047 733q0 -98 -33 -179t-92.5 -138.5t-145.5 -89t-192 -31.5h-269v-295h-127v1440h127v-269h277q104 0 188 -29.5t143.5 -86t91.5 -138.5t32 -184zM918 733q0 166 -87.5 245t-246.5 79h-269v-647h260q166 0 254.5 83.5t88.5 239.5z" />
<glyph unicode="&#xdf;" horiz-adv-x="1241" d="M786 78q117 0 177.5 58.5t60.5 154.5q0 82 -47 134t-164 107q-63 31 -106 56.5t-69 53.5t-37 58.5t-11 71.5q0 76 43 131t96 107q47 47 84 97t37 122q0 106 -75 160.5t-193 54.5q-164 0 -228.5 -105.5t-64.5 -304.5v-1034h-123v1042q0 238 98 373t320 135 q96 0 167.5 -24.5t120 -66.5t73 -99t24.5 -123q0 -86 -36 -146.5t-91 -117.5l-91 -94q-40 -43 -40 -99q0 -31 15 -53t41 -40.5t60.5 -35t73.5 -37.5q61 -33 106.5 -64.5t76 -68.5t46 -83t15.5 -107q0 -66 -22.5 -123t-67.5 -100t-111.5 -69t-155.5 -26q-43 0 -86 6.5 t-81.5 16.5t-68.5 22.5t-46 24.5l37 92q51 -27 111 -42t132 -15z" />
<glyph unicode="&#xe0;" horiz-adv-x="1060" d="M780 492q-16 4 -45.5 9t-68.5 9t-84 7t-88 3q-152 0 -212.5 -63.5t-60.5 -173.5q0 -106 67.5 -157.5t176.5 -51.5q63 0 120.5 23.5t100.5 61.5t68.5 87t25.5 100v146zM418 -25q-53 0 -109.5 15.5t-101.5 50.5t-74 94.5t-29 145.5q0 147 94.5 240t284.5 93q45 0 92.5 -3 t87 -8t70.5 -10t47 -7v100q0 133 -75.5 190.5t-217.5 57.5q-102 0 -169.5 -23.5t-110.5 -46.5l-39 90q39 23 127 54.5t223 31.5q180 0 278.5 -85t98.5 -259v-696h-109l-4 156q-31 -51 -71.5 -86t-89 -55.5t-100.5 -30t-103 -9.5zM739 1204l-463 215l58 115l450 -242z" />
<glyph unicode="&#xe1;" horiz-adv-x="1060" d="M780 492q-16 4 -45.5 9t-68.5 9t-84 7t-88 3q-152 0 -212.5 -63.5t-60.5 -173.5q0 -106 67.5 -157.5t176.5 -51.5q63 0 120.5 23.5t100.5 61.5t68.5 87t25.5 100v146zM418 -25q-53 0 -109.5 15.5t-101.5 50.5t-74 94.5t-29 145.5q0 147 94.5 240t284.5 93q45 0 92.5 -3 t87 -8t70.5 -10t47 -7v100q0 133 -75.5 190.5t-217.5 57.5q-102 0 -169.5 -23.5t-110.5 -46.5l-39 90q39 23 127 54.5t223 31.5q180 0 278.5 -85t98.5 -259v-696h-109l-4 156q-31 -51 -71.5 -86t-89 -55.5t-100.5 -30t-103 -9.5zM723 1534l57 -115l-465 -215l-43 88z" />
<glyph unicode="&#xe2;" horiz-adv-x="1060" d="M780 492q-16 4 -45.5 9t-68.5 9t-84 7t-88 3q-152 0 -212.5 -63.5t-60.5 -173.5q0 -106 67.5 -157.5t176.5 -51.5q63 0 120.5 23.5t100.5 61.5t68.5 87t25.5 100v146zM418 -25q-53 0 -109.5 15.5t-101.5 50.5t-74 94.5t-29 145.5q0 147 94.5 240t284.5 93q45 0 92.5 -3 t87 -8t70.5 -10t47 -7v100q0 133 -75.5 190.5t-217.5 57.5q-102 0 -169.5 -23.5t-110.5 -46.5l-39 90q39 23 127 54.5t223 31.5q180 0 278.5 -85t98.5 -259v-696h-109l-4 156q-31 -51 -71.5 -86t-89 -55.5t-100.5 -30t-103 -9.5zM205 1253l276 258h102l277 -258l-70 -65 l-258 201l-258 -201z" />
<glyph unicode="&#xe3;" horiz-adv-x="1060" d="M780 492q-16 4 -45.5 9t-68.5 9t-84 7t-88 3q-152 0 -212.5 -63.5t-60.5 -173.5q0 -106 67.5 -157.5t176.5 -51.5q63 0 120.5 23.5t100.5 61.5t68.5 87t25.5 100v146zM418 -25q-53 0 -109.5 15.5t-101.5 50.5t-74 94.5t-29 145.5q0 147 94.5 240t284.5 93q45 0 92.5 -3 t87 -8t70.5 -10t47 -7v100q0 133 -75.5 190.5t-217.5 57.5q-102 0 -169.5 -23.5t-110.5 -46.5l-39 90q39 23 127 54.5t223 31.5q180 0 278.5 -85t98.5 -259v-696h-109l-4 156q-31 -51 -71.5 -86t-89 -55.5t-100.5 -30t-103 -9.5zM374 1421q51 0 89 -18.5t70 -42t63.5 -42 t70.5 -18.5q51 0 71.5 32t20.5 87h109q0 -111 -51 -169t-150 -58q-49 0 -86 18.5t-70.5 41t-64.5 41t-67 18.5q-51 0 -73 -31t-22 -86h-108q0 106 50 166.5t148 60.5z" />
<glyph unicode="&#xe4;" horiz-adv-x="1060" d="M780 492q-16 4 -45.5 9t-68.5 9t-84 7t-88 3q-152 0 -212.5 -63.5t-60.5 -173.5q0 -106 67.5 -157.5t176.5 -51.5q63 0 120.5 23.5t100.5 61.5t68.5 87t25.5 100v146zM418 -25q-53 0 -109.5 15.5t-101.5 50.5t-74 94.5t-29 145.5q0 147 94.5 240t284.5 93q45 0 92.5 -3 t87 -8t70.5 -10t47 -7v100q0 133 -75.5 190.5t-217.5 57.5q-102 0 -169.5 -23.5t-110.5 -46.5l-39 90q39 23 127 54.5t223 31.5q180 0 278.5 -85t98.5 -259v-696h-109l-4 156q-31 -51 -71.5 -86t-89 -55.5t-100.5 -30t-103 -9.5zM230 1311q0 47 27.5 74.5t68.5 27.5 t67.5 -27.5t26.5 -74.5t-26.5 -75t-67.5 -28t-68.5 28t-27.5 75zM639 1311q0 47 27 74.5t68 27.5t68.5 -27.5t27.5 -74.5t-27.5 -75t-68.5 -28t-68 28t-27 75z" />
<glyph unicode="&#xe5;" horiz-adv-x="1060" d="M780 492q-16 4 -45.5 9t-68.5 9t-84 7t-88 3q-152 0 -212.5 -63.5t-60.5 -173.5q0 -106 67.5 -157.5t176.5 -51.5q63 0 120.5 23.5t100.5 61.5t68.5 87t25.5 100v146zM418 -25q-53 0 -109.5 15.5t-101.5 50.5t-74 94.5t-29 145.5q0 147 94.5 240t284.5 93q45 0 92.5 -3 t87 -8t70.5 -10t47 -7v100q0 133 -75.5 190.5t-217.5 57.5q-102 0 -169.5 -23.5t-110.5 -46.5l-39 90q39 23 127 54.5t223 31.5q180 0 278.5 -85t98.5 -259v-696h-109l-4 156q-31 -51 -71.5 -86t-89 -55.5t-100.5 -30t-103 -9.5zM749 1380q0 -98 -60.5 -154.5t-154.5 -56.5 q-96 0 -157.5 56.5t-61.5 152.5q0 98 63.5 154.5t155.5 56.5q96 0 155.5 -56.5t59.5 -152.5zM657 1378q0 59 -35 93t-90 34q-51 0 -87 -32.5t-36 -94.5q0 -59 35 -93t88 -34q55 0 90 34t35 93z" />
<glyph unicode="&#xe6;" horiz-adv-x="1765" d="M1272 88q59 0 103 6t76 15.5t53.5 18.5t37.5 15l35 -94q-25 -16 -101.5 -44t-215.5 -28q-98 0 -168 24t-119 58.5t-79 76.5t-48 79q-16 -35 -46 -77t-78 -77.5t-119 -60.5t-169 -25q-147 0 -238.5 79t-91.5 227q0 160 101.5 244.5t288.5 84.5q59 0 138 -6t146 -18v96 q0 121 -76.5 186.5t-207.5 65.5q-102 0 -177 -24.5t-110 -45.5l-39 90q16 12 46 26.5t74 28t102.5 22.5t133.5 9q129 0 212 -56t128 -144q25 37 57.5 73.5t75.5 65.5t98.5 46t123.5 17q219 0 321 -138t102 -394v-35h-745q4 -86 26.5 -156.5t67.5 -122t114 -80t167 -28.5z M778 487l-42 9q-32 6 -72.5 10t-86 8t-83.5 4q-139 0 -206 -56t-67 -181q0 -100 64.5 -153.5t179.5 -53.5q68 0 125 20.5t99 56t65.5 84t23.5 103.5v149zM1520 573q-10 176 -81 268.5t-220 92.5q-147 0 -228.5 -97.5t-91.5 -263.5h621z" />
<glyph unicode="&#xe7;" horiz-adv-x="962" d="M252 510q0 -109 25.5 -188.5t69.5 -131t106.5 -76t136.5 -24.5q94 0 153.5 19.5t96.5 37.5l45 -90q-29 -23 -101.5 -51.5t-201.5 -28.5h-2l-17 -77q102 -8 152.5 -57.5t50.5 -127.5q0 -98 -70.5 -151t-181.5 -53q-86 0 -134 14t-58 18l22 82q35 -10 68.5 -18t85.5 -8 q76 0 116.5 28.5t40.5 85.5q0 100 -151 101q-29 0 -62 -7l37 181q-170 29 -261 163t-91 357q0 119 31.5 217t91 169t143.5 109.5t191 38.5q63 0 113.5 -10t88 -25.5t62.5 -32.5l41 -30l-55 -90l-37 22q-23 13 -53.5 25t-69.5 20.5t-84 8.5q-147 0 -242.5 -103.5 t-95.5 -316.5z" />
<glyph unicode="&#xe8;" horiz-adv-x="1116" d="M629 88q96 0 160.5 19.5t103.5 35.5l35 -94q-31 -20 -113 -46t-199 -26q-248 0 -368.5 138.5t-120.5 392.5q0 121 30.5 220t88 169t140.5 107.5t187 37.5q98 0 176 -29.5t132.5 -96t83 -170t28.5 -250.5v-21h-745q10 -182 101.5 -284.5t279.5 -102.5zM872 573 q-12 174 -81.5 267.5t-219.5 93.5q-154 0 -229.5 -94.5t-91.5 -266.5h622zM811 1204l-463 215l58 115l450 -242z" />
<glyph unicode="&#xe9;" horiz-adv-x="1116" d="M629 88q96 0 160.5 19.5t103.5 35.5l35 -94q-31 -20 -113 -46t-199 -26q-248 0 -368.5 138.5t-120.5 392.5q0 121 30.5 220t88 169t140.5 107.5t187 37.5q98 0 176 -29.5t132.5 -96t83 -170t28.5 -250.5v-21h-745q10 -182 101.5 -284.5t279.5 -102.5zM872 573 q-12 174 -81.5 267.5t-219.5 93.5q-154 0 -229.5 -94.5t-91.5 -266.5h622zM776 1534l57 -115l-465 -215l-43 88z" />
<glyph unicode="&#xea;" horiz-adv-x="1116" d="M629 88q96 0 160.5 19.5t103.5 35.5l35 -94q-31 -20 -113 -46t-199 -26q-248 0 -368.5 138.5t-120.5 392.5q0 121 30.5 220t88 169t140.5 107.5t187 37.5q98 0 176 -29.5t132.5 -96t83 -170t28.5 -250.5v-21h-745q10 -182 101.5 -284.5t279.5 -102.5zM872 573 q-12 174 -81.5 267.5t-219.5 93.5q-154 0 -229.5 -94.5t-91.5 -266.5h622zM256 1253l276 258h102l277 -258l-70 -65l-258 201l-258 -201z" />
<glyph unicode="&#xeb;" horiz-adv-x="1116" d="M629 88q96 0 160.5 19.5t103.5 35.5l35 -94q-31 -20 -113 -46t-199 -26q-248 0 -368.5 138.5t-120.5 392.5q0 121 30.5 220t88 169t140.5 107.5t187 37.5q98 0 176 -29.5t132.5 -96t83 -170t28.5 -250.5v-21h-745q10 -182 101.5 -284.5t279.5 -102.5zM872 573 q-12 174 -81.5 267.5t-219.5 93.5q-154 0 -229.5 -94.5t-91.5 -266.5h622zM283 1311q0 47 27.5 74.5t68.5 27.5t67.5 -27.5t26.5 -74.5t-26.5 -75t-67.5 -28t-68.5 28t-27.5 75zM692 1311q0 47 27 74.5t68 27.5t68.5 -27.5t27.5 -74.5t-27.5 -75t-68.5 -28t-68 28t-27 75z " />
<glyph unicode="&#xec;" horiz-adv-x="468" d="M172 1016h123v-1016h-123v1016zM446 1204l-463 215l58 115l450 -242z" />
<glyph unicode="&#xed;" horiz-adv-x="468" d="M172 1016h123v-1016h-123v1016zM451 1534l57 -115l-465 -215l-43 88z" />
<glyph unicode="&#xee;" horiz-adv-x="468" d="M172 1016h123v-1016h-123v1016zM-84 1253l276 258h102l277 -258l-70 -65l-258 201l-258 -201z" />
<glyph unicode="&#xef;" horiz-adv-x="468" d="M172 1016h123v-1016h-123v1016zM-67 1311q0 47 27.5 74.5t68.5 27.5t67.5 -27.5t26.5 -74.5t-26.5 -75t-67.5 -28t-68.5 28t-27.5 75zM342 1311q0 47 27 74.5t68 27.5t68.5 -27.5t27.5 -74.5t-27.5 -75t-68.5 -28t-68 28t-27 75z" />
<glyph unicode="&#xf0;" horiz-adv-x="1153" d="M725 1366q158 -129 233.5 -317.5t75.5 -423.5q0 -152 -25.5 -273t-81 -205t-141.5 -129t-206 -45q-227 0 -338 133.5t-111 364.5q0 111 32 200t89 150.5t135 94t168 32.5q123 0 203 -45t137 -127q-10 170 -72.5 296t-183.5 222l-213 -178l-64 72l199 162 q-55 37 -118.5 66.5t-131.5 51.5l33 97q88 -29 167 -67t136 -79l182 152l62 -74zM580 84q160 0 238.5 102.5t78.5 294.5q0 78 -21.5 143.5t-63.5 113.5t-102.5 75t-138.5 27q-162 0 -239.5 -102.5t-77.5 -268.5q0 -193 80 -289t246 -96z" />
<glyph unicode="&#xf1;" horiz-adv-x="1150" d="M287 0h-121v1016h113l4 -201q47 96 138 161.5t220 65.5q176 0 264 -96t88 -282v-664h-121v647q0 80 -19 135.5t-53 88t-80 47t-102 14.5q-78 0 -139 -36t-104 -93.5t-65.5 -131t-22.5 -149.5v-522zM438 1421q51 0 89 -18.5t70 -42t63.5 -42t70.5 -18.5q51 0 71.5 32 t20.5 87h109q0 -111 -51 -169t-150 -58q-49 0 -86 18.5t-70.5 41t-64.5 41t-67 18.5q-51 0 -73 -31t-22 -86h-108q0 106 50 166.5t148 60.5z" />
<glyph unicode="&#xf2;" horiz-adv-x="1189" d="M594 88q176 0 260 113.5t84 308.5q0 190 -85 306t-259 116q-172 0 -257 -116t-85 -306q0 -195 84 -308.5t258 -113.5zM594 1042q117 0 204 -39.5t145 -110.5t88 -168t30 -214t-31 -215t-89 -169t-146 -110t-201 -39q-115 0 -203 39t-146.5 110t-88 169t-29.5 215 t30.5 214t89 168t145.5 110.5t202 39.5zM829 1204l-463 215l58 115l450 -242z" />
<glyph unicode="&#xf3;" horiz-adv-x="1189" d="M594 88q176 0 260 113.5t84 308.5q0 190 -85 306t-259 116q-172 0 -257 -116t-85 -306q0 -195 84 -308.5t258 -113.5zM594 1042q117 0 204 -39.5t145 -110.5t88 -168t30 -214t-31 -215t-89 -169t-146 -110t-201 -39q-115 0 -203 39t-146.5 110t-88 169t-29.5 215 t30.5 214t89 168t145.5 110.5t202 39.5zM797 1534l57 -115l-465 -215l-43 88z" />
<glyph unicode="&#xf4;" horiz-adv-x="1189" d="M594 88q176 0 260 113.5t84 308.5q0 190 -85 306t-259 116q-172 0 -257 -116t-85 -306q0 -195 84 -308.5t258 -113.5zM594 1042q117 0 204 -39.5t145 -110.5t88 -168t30 -214t-31 -215t-89 -169t-146 -110t-201 -39q-115 0 -203 39t-146.5 110t-88 169t-29.5 215 t30.5 214t89 168t145.5 110.5t202 39.5zM283 1253l276 258h102l277 -258l-70 -65l-258 201l-258 -201z" />
<glyph unicode="&#xf5;" horiz-adv-x="1189" d="M594 88q176 0 260 113.5t84 308.5q0 190 -85 306t-259 116q-172 0 -257 -116t-85 -306q0 -195 84 -308.5t258 -113.5zM594 1042q117 0 204 -39.5t145 -110.5t88 -168t30 -214t-31 -215t-89 -169t-146 -110t-201 -39q-115 0 -203 39t-146.5 110t-88 169t-29.5 215 t30.5 214t89 168t145.5 110.5t202 39.5zM454 1421q51 0 89 -18.5t70 -42t63.5 -42t70.5 -18.5q51 0 71.5 32t20.5 87h109q0 -111 -51 -169t-150 -58q-49 0 -86 18.5t-70.5 41t-64.5 41t-67 18.5q-51 0 -73 -31t-22 -86h-108q0 106 50 166.5t148 60.5z" />
<glyph unicode="&#xf6;" horiz-adv-x="1189" d="M594 88q176 0 260 113.5t84 308.5q0 190 -85 306t-259 116q-172 0 -257 -116t-85 -306q0 -195 84 -308.5t258 -113.5zM594 1042q117 0 204 -39.5t145 -110.5t88 -168t30 -214t-31 -215t-89 -169t-146 -110t-201 -39q-115 0 -203 39t-146.5 110t-88 169t-29.5 215 t30.5 214t89 168t145.5 110.5t202 39.5zM303 1311q0 47 27.5 74.5t68.5 27.5t67.5 -27.5t26.5 -74.5t-26.5 -75t-67.5 -28t-68.5 28t-27.5 75zM712 1311q0 47 27 74.5t68 27.5t68.5 -27.5t27.5 -74.5t-27.5 -75t-68.5 -28t-68 28t-27 75z" />
<glyph unicode="&#xf7;" horiz-adv-x="1212" d="M606 258q-43 0 -71.5 29.5t-28.5 77.5q0 47 28.5 76.5t71.5 29.5q41 0 70 -29.5t29 -76.5t-29 -77t-70 -30zM506 1047q0 47 28.5 76.5t71.5 29.5q41 0 70 -29.5t29 -76.5q0 -45 -29 -76t-70 -31q-43 0 -71.5 30t-28.5 77zM174 764h864v-109h-864v109z" />
<glyph unicode="&#xf8;" horiz-adv-x="1189" d="M594 1042q156 0 264 -73l94 135l78 -53l-100 -144q66 -72 98.5 -173t32.5 -224q0 -117 -31 -215t-89 -169t-146 -110t-201 -39q-78 0 -144.5 18.5t-119.5 53.5l-88 -127l-80 51l96 138q-66 72 -98.5 174t-32.5 225q0 117 30.5 214t89 168t145.5 110.5t202 39.5zM252 510 q0 -190 76 -297l463 661q-80 57 -197 58q-172 0 -257 -114.5t-85 -307.5zM594 86q172 0 256 111.5t88 300.5q0 31 -2 60.5t-6 57.5q-18 111 -72 189l-463 -662q80 -57 199 -57z" />
<glyph unicode="&#xf9;" horiz-adv-x="1157" d="M870 1016h121v-1016h-112l-5 197q-49 -98 -138 -160t-230 -62q-168 0 -254 95.5t-86 281.5v664h121v-647q0 -80 18.5 -134.5t52 -87t79.5 -47t102 -14.5q78 0 139 35t104 92t65.5 130t22.5 151v522zM772 1204l-463 215l58 115l450 -242z" />
<glyph unicode="&#xfa;" horiz-adv-x="1157" d="M870 1016h121v-1016h-112l-5 197q-49 -98 -138 -160t-230 -62q-168 0 -254 95.5t-86 281.5v664h121v-647q0 -80 18.5 -134.5t52 -87t79.5 -47t102 -14.5q78 0 139 35t104 92t65.5 130t22.5 151v522zM805 1534l57 -115l-465 -215l-43 88z" />
<glyph unicode="&#xfb;" horiz-adv-x="1157" d="M870 1016h121v-1016h-112l-5 197q-49 -98 -138 -160t-230 -62q-168 0 -254 95.5t-86 281.5v664h121v-647q0 -80 18.5 -134.5t52 -87t79.5 -47t102 -14.5q78 0 139 35t104 92t65.5 130t22.5 151v522zM263 1253l276 258h102l277 -258l-70 -65l-258 201l-258 -201z" />
<glyph unicode="&#xfc;" horiz-adv-x="1157" d="M870 1016h121v-1016h-112l-5 197q-49 -98 -138 -160t-230 -62q-168 0 -254 95.5t-86 281.5v664h121v-647q0 -80 18.5 -134.5t52 -87t79.5 -47t102 -14.5q78 0 139 35t104 92t65.5 130t22.5 151v522zM281 1311q0 47 27.5 74.5t68.5 27.5t67.5 -27.5t26.5 -74.5t-26.5 -75 t-67.5 -28t-68.5 28t-27.5 75zM690 1311q0 47 27 74.5t68 27.5t68.5 -27.5t27.5 -74.5t-27.5 -75t-68.5 -28t-68 28t-27 75z" />
<glyph unicode="&#xfd;" horiz-adv-x="1003" d="M45 1016h135l324 -830l330 830h124l-612 -1467h-119l211 500zM758 1534l57 -115l-465 -215l-43 88z" />
<glyph unicode="&#xfe;" horiz-adv-x="1185" d="M287 821q45 92 135 156.5t221 64.5q104 0 182 -39.5t130.5 -109.5t78 -165t25.5 -206q0 -150 -40 -252t-103.5 -165.5t-142.5 -91t-159 -27.5q-100 0 -183 34.5t-144 83.5v-555h-121v1987h121v-715zM625 932q-80 0 -142.5 -37t-106.5 -97.5t-66.5 -137t-22.5 -158.5v-273 q18 -18 50 -41.5t72 -44t87 -35t96 -14.5q158 0 250 101.5t92 326.5q0 88 -18.5 163t-56.5 130t-96 86t-138 31z" />
<glyph unicode="&#xff;" horiz-adv-x="1003" d="M45 1016h135l324 -830l330 830h124l-612 -1467h-119l211 500zM215 1311q0 47 27.5 74.5t68.5 27.5t67.5 -27.5t26.5 -74.5t-26.5 -75t-67.5 -28t-68.5 28t-27.5 75zM624 1311q0 47 27 74.5t68 27.5t68.5 -27.5t27.5 -74.5t-27.5 -75t-68.5 -28t-68 28t-27 75z" />
<glyph unicode="&#x100;" horiz-adv-x="1185" d="M883 401h-592l-129 -401h-123l481 1440h144l483 -1440h-133zM326 514h520l-258 778zM285 1636v115h602v-115h-602z" />
<glyph unicode="&#x101;" horiz-adv-x="1060" d="M780 492q-16 4 -45.5 9t-68.5 9t-84 7t-88 3q-152 0 -212.5 -63.5t-60.5 -173.5q0 -106 67.5 -157.5t176.5 -51.5q63 0 120.5 23.5t100.5 61.5t68.5 87t25.5 100v146zM418 -25q-53 0 -109.5 15.5t-101.5 50.5t-74 94.5t-29 145.5q0 147 94.5 240t284.5 93q45 0 92.5 -3 t87 -8t70.5 -10t47 -7v100q0 133 -75.5 190.5t-217.5 57.5q-102 0 -169.5 -23.5t-110.5 -46.5l-39 90q39 23 127 54.5t223 31.5q180 0 278.5 -85t98.5 -259v-696h-109l-4 156q-31 -51 -71.5 -86t-89 -55.5t-100.5 -30t-103 -9.5zM241 1257v109h582v-109h-582z" />
<glyph unicode="&#x102;" horiz-adv-x="1185" d="M883 401h-592l-129 -401h-123l481 1440h144l483 -1440h-133zM326 514h520l-258 778zM588 1659q88 0 137.5 49t49.5 143h114q0 -59 -18.5 -112t-55 -95t-94 -67t-137.5 -25t-137 25t-94 65.5t-54.5 95t-17.5 113.5h119q0 -94 51 -143t137 -49z" />
<glyph unicode="&#x103;" horiz-adv-x="1060" d="M780 492q-16 4 -45.5 9t-68.5 9t-84 7t-88 3q-152 0 -212.5 -63.5t-60.5 -173.5q0 -106 67.5 -157.5t176.5 -51.5q63 0 120.5 23.5t100.5 61.5t68.5 87t25.5 100v146zM418 -25q-53 0 -109.5 15.5t-101.5 50.5t-74 94.5t-29 145.5q0 147 94.5 240t284.5 93q45 0 92.5 -3 t87 -8t70.5 -10t47 -7v100q0 133 -75.5 190.5t-217.5 57.5q-102 0 -169.5 -23.5t-110.5 -46.5l-39 90q39 23 127 54.5t223 31.5q180 0 278.5 -85t98.5 -259v-696h-109l-4 156q-31 -51 -71.5 -86t-89 -55.5t-100.5 -30t-103 -9.5zM547 1280q88 0 136 45t48 139h111 q0 -59 -17.5 -110t-53.5 -91t-92 -62.5t-134 -22.5q-80 0 -136.5 22.5t-92 61t-52 91t-16.5 111.5h115q0 -94 49 -139t135 -45z" />
<glyph unicode="&#x104;" horiz-adv-x="1185" d="M883 401h-592l-129 -401h-123l481 1440h144l481 -1440q-53 -41 -94 -90t-41 -107q0 -45 27.5 -65.5t76.5 -20.5q27 0 37 2v-90q-14 -2 -26.5 -3t-32.5 -1q-94 0 -147.5 42t-53.5 110q0 72 38 124t97 99h-12zM326 514h520l-258 778z" />
<glyph unicode="&#x105;" horiz-adv-x="1060" d="M901 -365q-14 -2 -22.5 -3t-28.5 -1q-86 0 -143.5 35t-57.5 117q0 66 38 118t99 99l-4 156q-31 -51 -71.5 -86t-89 -55.5t-100.5 -30t-103 -9.5q-53 0 -109.5 15.5t-101.5 50.5t-74 94.5t-29 145.5q0 147 94.5 240t284.5 93q45 0 92.5 -3t87 -8t70.5 -10t47 -7v100 q0 133 -75.5 190.5t-217.5 57.5q-102 0 -169.5 -23.5t-110.5 -46.5l-39 90q39 23 127 54.5t223 31.5q180 0 278.5 -85t98.5 -259v-696q-53 -41 -93 -90t-40 -107q0 -41 24.5 -63.5t79.5 -22.5q27 0 35 2v-84zM780 492q-16 4 -45.5 9t-68.5 9t-84 7t-88 3 q-152 0 -212.5 -63.5t-60.5 -173.5q0 -106 67.5 -157.5t176.5 -51.5q63 0 120.5 23.5t100.5 61.5t68.5 87t25.5 100v146z" />
<glyph unicode="&#x106;" horiz-adv-x="1275" d="M760 1350q-231 0 -358.5 -161t-127.5 -476q0 -324 127 -472.5t359 -148.5q68 0 124 12.5t103 31t84 41t64 42.5l59 -92q-70 -59 -183.5 -104.5t-258.5 -45.5q-313 0 -463 190.5t-150 545.5q0 168 38 306t115 236.5t192.5 152.5t271.5 54q84 0 153.5 -16t122.5 -40 t91 -49.5t61 -45.5l-66 -92q-51 43 -139 87t-219 44zM936 1882l53 -119l-477 -200l-41 90z" />
<glyph unicode="&#x107;" horiz-adv-x="962" d="M252 510q0 -109 25.5 -188.5t69.5 -131t106.5 -76t136.5 -24.5q94 0 153.5 19.5t96.5 37.5l45 -90q-29 -23 -101.5 -51.5t-201.5 -28.5q-217 0 -336 137.5t-119 393.5q0 119 31.5 217t91 169t143.5 109.5t191 38.5q63 0 113.5 -10t88 -25.5t62.5 -32.5l41 -30l-55 -90 l-37 22q-23 13 -53.5 25t-69.5 20.5t-84 8.5q-147 0 -242.5 -103.5t-95.5 -316.5zM746 1534l57 -115l-465 -215l-43 88z" />
<glyph unicode="&#x108;" horiz-adv-x="1275" d="M760 1350q-231 0 -358.5 -161t-127.5 -476q0 -324 127 -472.5t359 -148.5q68 0 124 12.5t103 31t84 41t64 42.5l59 -92q-70 -59 -183.5 -104.5t-258.5 -45.5q-313 0 -463 190.5t-150 545.5q0 168 38 306t115 236.5t192.5 152.5t271.5 54q84 0 153.5 -16t122.5 -40 t91 -49.5t61 -45.5l-66 -92q-51 43 -139 87t-219 44zM1032 1561l-281 198l-280 -198l-68 69l291 252h115l290 -252z" />
<glyph unicode="&#x109;" horiz-adv-x="962" d="M252 510q0 -109 25.5 -188.5t69.5 -131t106.5 -76t136.5 -24.5q94 0 153.5 19.5t96.5 37.5l45 -90q-29 -23 -101.5 -51.5t-201.5 -28.5q-217 0 -336 137.5t-119 393.5q0 119 31.5 217t91 169t143.5 109.5t191 38.5q63 0 113.5 -10t88 -25.5t62.5 -32.5l41 -30l-55 -90 l-37 22q-23 13 -53.5 25t-69.5 20.5t-84 8.5q-147 0 -242.5 -103.5t-95.5 -316.5zM244 1253l276 258h102l277 -258l-70 -65l-258 201l-258 -201z" />
<glyph unicode="&#x10a;" horiz-adv-x="1275" d="M760 1350q-231 0 -358.5 -161t-127.5 -476q0 -324 127 -472.5t359 -148.5q68 0 124 12.5t103 31t84 41t64 42.5l59 -92q-70 -59 -183.5 -104.5t-258.5 -45.5q-313 0 -463 190.5t-150 545.5q0 168 38 306t115 236.5t192.5 152.5t271.5 54q84 0 153.5 -16t122.5 -40 t91 -49.5t61 -45.5l-66 -92q-51 43 -139 87t-219 44zM651 1698q0 47 28.5 75.5t69.5 28.5t67.5 -28.5t26.5 -75.5t-26.5 -74t-67.5 -27t-69.5 27t-28.5 74z" />
<glyph unicode="&#x10b;" horiz-adv-x="962" d="M252 510q0 -109 25.5 -188.5t69.5 -131t106.5 -76t136.5 -24.5q94 0 153.5 19.5t96.5 37.5l45 -90q-29 -23 -101.5 -51.5t-201.5 -28.5q-217 0 -336 137.5t-119 393.5q0 119 31.5 217t91 169t143.5 109.5t191 38.5q63 0 113.5 -10t88 -25.5t62.5 -32.5l41 -30l-55 -90 l-37 22q-23 13 -53.5 25t-69.5 20.5t-84 8.5q-147 0 -242.5 -103.5t-95.5 -316.5zM498 1311q0 45 26.5 72.5t67.5 27.5t65.5 -27.5t24.5 -72.5t-24.5 -72t-65.5 -27t-67.5 27t-26.5 72z" />
<glyph unicode="&#x10c;" horiz-adv-x="1275" d="M760 1350q-231 0 -358.5 -161t-127.5 -476q0 -324 127 -472.5t359 -148.5q68 0 124 12.5t103 31t84 41t64 42.5l59 -92q-70 -59 -183.5 -104.5t-258.5 -45.5q-313 0 -463 190.5t-150 545.5q0 168 38 306t115 236.5t192.5 152.5t271.5 54q84 0 153.5 -16t122.5 -40 t91 -49.5t61 -45.5l-66 -92q-51 43 -139 87t-219 44zM694 1561l-291 249l68 72l280 -201l281 201l67 -72l-290 -249h-115z" />
<glyph unicode="&#x10d;" horiz-adv-x="962" d="M252 510q0 -109 25.5 -188.5t69.5 -131t106.5 -76t136.5 -24.5q94 0 153.5 19.5t96.5 37.5l45 -90q-29 -23 -101.5 -51.5t-201.5 -28.5q-217 0 -336 137.5t-119 393.5q0 119 31.5 217t91 169t143.5 109.5t191 38.5q63 0 113.5 -10t88 -25.5t62.5 -32.5l41 -30l-55 -90 l-37 22q-23 13 -53.5 25t-69.5 20.5t-84 8.5q-147 0 -242.5 -103.5t-95.5 -316.5zM596 1307l256 200l70 -65l-275 -258h-104l-276 258l71 65z" />
<glyph unicode="&#x10e;" horiz-adv-x="1396" d="M616 1440q311 0 475 -188.5t164 -532.5q0 -174 -44 -308.5t-127 -225.5t-201.5 -138t-266.5 -47h-428v1440h428zM616 119q233 0 369.5 153.5t136.5 448.5q0 309 -136 454.5t-370 145.5h-299v-1202h299zM596 1561l-291 249l68 72l280 -201l281 201l67 -72l-290 -249h-115z " />
<glyph unicode="&#x10f;" horiz-adv-x="1331" d="M563 932q-80 0 -138 -33t-96 -89t-56.5 -134t-18.5 -168q0 -111 23.5 -189.5t68.5 -128t108.5 -72t143.5 -22.5q55 0 103.5 16.5t87 41t68.5 54.5t46 54v227q0 102 -27.5 184.5t-74.5 139.5t-108.5 88t-129.5 31zM909 143q-59 -70 -145 -113.5t-209 -43.5 q-80 0 -156.5 25.5t-137 86t-96.5 160.5t-36 250q0 111 28.5 208t82 169.5t131.5 114.5t176 42q129 0 219 -61t137 -158v713h121v-1536h-113zM1204 1440q0 51 31 78.5t72 27.5q47 0 72.5 -34.5t25.5 -90.5q0 -43 -13.5 -95t-36 -106.5t-52 -104.5t-64.5 -91l-61 45 q18 31 35.5 68t31 73.5t23.5 70.5t16 60q-29 8 -54.5 36t-25.5 63z" />
<glyph unicode="&#x110;" horiz-adv-x="1402" d="M37 788h158v652h428q311 0 475 -188.5t164 -532.5q0 -174 -44 -308.5t-127 -225.5t-202 -138t-266 -47h-428v678h-158v110zM623 119q233 0 369 153.5t136 448.5q0 309 -136 454.5t-369 145.5h-299v-533h331v-110h-331v-559h299z" />
<glyph unicode="&#x111;" horiz-adv-x="1206" d="M907 143q-59 -70 -145 -113.5t-209 -43.5q-80 0 -157 25.5t-137 86t-96 160.5t-36 250q0 111 28.5 208t82 169.5t131 114.5t176.5 42q131 0 220 -61t136 -158v408h-407v102h407v203h121v-203h139v-102h-139v-1231h-113zM561 932q-80 0 -138 -33t-96 -89t-56.5 -134 t-18.5 -168q0 -111 23.5 -189.5t68.5 -128t108.5 -72t143.5 -22.5q55 0 104.5 16.5t88 41t67.5 54.5t45 54v227q0 102 -27.5 184.5t-74.5 139.5t-108.5 88t-129.5 31z" />
<glyph unicode="&#x112;" horiz-adv-x="1069" d="M188 1440h795v-119h-666v-512h521v-119h-521v-571h687v-119h-816v1440zM295 1636v115h602v-115h-602z" />
<glyph unicode="&#x113;" horiz-adv-x="1116" d="M629 88q96 0 160.5 19.5t103.5 35.5l35 -94q-31 -20 -113 -46t-199 -26q-248 0 -368.5 138.5t-120.5 392.5q0 121 30.5 220t88 169t140.5 107.5t187 37.5q98 0 176 -29.5t132.5 -96t83 -170t28.5 -250.5v-21h-745q10 -182 101.5 -284.5t279.5 -102.5zM872 573 q-12 174 -81.5 267.5t-219.5 93.5q-154 0 -229.5 -94.5t-91.5 -266.5h622zM286 1257v109h582v-109h-582z" />
<glyph unicode="&#x114;" horiz-adv-x="1069" d="M188 1440h795v-119h-666v-512h521v-119h-521v-571h687v-119h-816v1440zM600 1659q88 0 137.5 49t49.5 143h114q0 -59 -18.5 -112t-55 -95t-94 -67t-137.5 -25t-137 25t-94 65.5t-54.5 95t-17.5 113.5h119q0 -94 51 -143t137 -49z" />
<glyph unicode="&#x115;" horiz-adv-x="1116" d="M629 88q96 0 160.5 19.5t103.5 35.5l35 -94q-31 -20 -113 -46t-199 -26q-248 0 -368.5 138.5t-120.5 392.5q0 121 30.5 220t88 169t140.5 107.5t187 37.5q98 0 176 -29.5t132.5 -96t83 -170t28.5 -250.5v-21h-745q10 -182 101.5 -284.5t279.5 -102.5zM872 573 q-12 174 -81.5 267.5t-219.5 93.5q-154 0 -229.5 -94.5t-91.5 -266.5h622zM588 1280q88 0 136 45t48 139h111q0 -59 -17.5 -110t-53.5 -91t-92 -62.5t-134 -22.5q-80 0 -136.5 22.5t-92 61t-52 91t-16.5 111.5h115q0 -94 49 -139t135 -45z" />
<glyph unicode="&#x116;" horiz-adv-x="1069" d="M188 1440h795v-119h-666v-512h521v-119h-521v-571h687v-119h-816v1440zM508 1698q0 47 28.5 75.5t69.5 28.5t67.5 -28.5t26.5 -75.5t-26.5 -74t-67.5 -27t-69.5 27t-28.5 74z" />
<glyph unicode="&#x117;" horiz-adv-x="1116" d="M629 88q96 0 160.5 19.5t103.5 35.5l35 -94q-31 -20 -113 -46t-199 -26q-248 0 -368.5 138.5t-120.5 392.5q0 121 30.5 220t88 169t140.5 107.5t187 37.5q98 0 176 -29.5t132.5 -96t83 -170t28.5 -250.5v-21h-745q10 -182 101.5 -284.5t279.5 -102.5zM872 573 q-12 174 -81.5 267.5t-219.5 93.5q-154 0 -229.5 -94.5t-91.5 -266.5h622zM485 1311q0 45 26.5 72.5t67.5 27.5t65.5 -27.5t24.5 -72.5t-24.5 -72t-65.5 -27t-67.5 27t-26.5 72z" />
<glyph unicode="&#x118;" horiz-adv-x="1069" d="M188 1440h795v-119h-666v-512h521v-119h-521v-571h687v-119q-53 -41 -94.5 -90t-41.5 -107q0 -45 28 -65.5t77 -20.5q27 0 37 2v-90q-14 -2 -26.5 -3t-33.5 -1q-94 0 -147 42t-53 110q0 72 37.5 124t97.5 99h-697v1440z" />
<glyph unicode="&#x119;" horiz-adv-x="1116" d="M629 88q96 0 160.5 19.5t103.5 35.5l35 -94q-16 -10 -50 -24.5t-81 -24.5q-53 -41 -92 -90t-39 -107q0 -41 24.5 -63.5t79.5 -22.5q27 0 35 2v-84q-14 -2 -22.5 -3t-28.5 -1q-86 0 -143.5 35t-57.5 117q0 59 28.5 107.5t77.5 89.5q-10 -2 -21 -3h-22q-248 0 -368.5 138.5 t-120.5 392.5q0 121 30.5 220t88 169t140.5 107.5t187 37.5q98 0 176 -29.5t132.5 -96t83 -170t28.5 -250.5v-21h-745q10 -182 101.5 -284.5t279.5 -102.5zM872 573q-12 174 -81.5 267.5t-219.5 93.5q-154 0 -229.5 -94.5t-91.5 -266.5h622z" />
<glyph unicode="&#x11a;" horiz-adv-x="1069" d="M188 1440h795v-119h-666v-512h521v-119h-521v-571h687v-119h-816v1440zM551 1561l-291 249l68 72l280 -201l281 201l67 -72l-290 -249h-115z" />
<glyph unicode="&#x11b;" horiz-adv-x="1116" d="M629 88q96 0 160.5 19.5t103.5 35.5l35 -94q-31 -20 -113 -46t-199 -26q-248 0 -368.5 138.5t-120.5 392.5q0 121 30.5 220t88 169t140.5 107.5t187 37.5q98 0 176 -29.5t132.5 -96t83 -170t28.5 -250.5v-21h-745q10 -182 101.5 -284.5t279.5 -102.5zM872 573 q-12 174 -81.5 267.5t-219.5 93.5q-154 0 -229.5 -94.5t-91.5 -266.5h622zM587 1307l256 200l70 -65l-275 -258h-104l-276 258l71 65z" />
<glyph unicode="&#x11c;" horiz-adv-x="1335" d="M754 1360q-109 0 -198 -40t-151.5 -121t-97.5 -203t-35 -283q0 -328 128 -476.5t380 -148.5q98 0 175 15.5t124 33.5v479h-307v115h426v-665q-18 -10 -56 -25.5t-92.5 -32t-126 -28t-159.5 -11.5q-315 0 -471 188.5t-156 555.5q0 164 38 303t115 240.5t191.5 159 t268.5 57.5q139 0 244.5 -36t189.5 -104l-62 -94l-59 40q-33 22 -77 40t-101 29.5t-131 11.5zM1039 1561l-281 198l-280 -198l-68 69l291 252h115l290 -252z" />
<glyph unicode="&#x11d;" horiz-adv-x="1110" d="M852 930q57 -39 90 -106.5t33 -143.5q0 -94 -39 -160.5t-98.5 -109.5t-132 -62.5t-142.5 -19.5q-66 0 -127 11t-117 42q-29 -25 -52 -59.5t-23 -77.5q0 -35 10 -59.5t36.5 -41t72 -24.5t116.5 -10l226 -5q68 -2 129 -14t109 -39.5t76 -75t28 -118.5q0 -68 -33 -128.5 t-100.5 -105.5t-169 -71.5t-236.5 -26.5q-84 0 -160 13t-133 46t-92 84t-35 129q0 84 40 146.5t99 109.5q-39 20 -65.5 59.5t-26.5 98.5q0 68 37 123t82 92q-53 43 -84 105.5t-31 150.5q0 94 38 161.5t98.5 111.5t134 65.5t145.5 21.5q41 0 74 -4t60.5 -9t53 -9t54.5 -4h276 v-96h-57q-31 0 -81 2t-83 8zM510 6q-45 2 -97.5 3t-101.5 14q-35 -27 -71.5 -78t-36.5 -123q0 -59 25.5 -97t68.5 -61.5t98.5 -33t116.5 -9.5q94 0 171 15.5t130 45t83 69.5t30 89q0 31 -8.5 59.5t-32 51t-65.5 36t-107 15.5zM856 684q0 74 -25.5 124t-66.5 81t-95.5 44 t-109.5 13q-57 0 -111.5 -14t-96.5 -45t-67.5 -81t-25.5 -122q0 -74 25.5 -124t67.5 -80.5t95.5 -44t110.5 -13.5q55 0 109.5 13.5t96.5 44t67.5 80.5t25.5 124zM263 1253l276 258h102l277 -258l-70 -65l-258 201l-258 -201z" />
<glyph unicode="&#x11e;" horiz-adv-x="1335" d="M754 1360q-109 0 -198 -40t-151.5 -121t-97.5 -203t-35 -283q0 -328 128 -476.5t380 -148.5q98 0 175 15.5t124 33.5v479h-307v115h426v-665q-18 -10 -56 -25.5t-92.5 -32t-126 -28t-159.5 -11.5q-315 0 -471 188.5t-156 555.5q0 164 38 303t115 240.5t191.5 159 t268.5 57.5q139 0 244.5 -36t189.5 -104l-62 -94l-59 40q-33 22 -77 40t-101 29.5t-131 11.5zM762 1659q88 0 137.5 49t49.5 143h114q0 -59 -18.5 -112t-55 -95t-94 -67t-137.5 -25t-137 25t-94 65.5t-54.5 95t-17.5 113.5h119q0 -94 51 -143t137 -49z" />
<glyph unicode="&#x11f;" horiz-adv-x="1110" d="M852 930q57 -39 90 -106.5t33 -143.5q0 -94 -39 -160.5t-98.5 -109.5t-132 -62.5t-142.5 -19.5q-66 0 -127 11t-117 42q-29 -25 -52 -59.5t-23 -77.5q0 -35 10 -59.5t36.5 -41t72 -24.5t116.5 -10l226 -5q68 -2 129 -14t109 -39.5t76 -75t28 -118.5q0 -68 -33 -128.5 t-100.5 -105.5t-169 -71.5t-236.5 -26.5q-84 0 -160 13t-133 46t-92 84t-35 129q0 84 40 146.5t99 109.5q-39 20 -65.5 59.5t-26.5 98.5q0 68 37 123t82 92q-53 43 -84 105.5t-31 150.5q0 94 38 161.5t98.5 111.5t134 65.5t145.5 21.5q41 0 74 -4t60.5 -9t53 -9t54.5 -4h276 v-96h-57q-31 0 -81 2t-83 8zM510 6q-45 2 -97.5 3t-101.5 14q-35 -27 -71.5 -78t-36.5 -123q0 -59 25.5 -97t68.5 -61.5t98.5 -33t116.5 -9.5q94 0 171 15.5t130 45t83 69.5t30 89q0 31 -8.5 59.5t-32 51t-65.5 36t-107 15.5zM856 684q0 74 -25.5 124t-66.5 81t-95.5 44 t-109.5 13q-57 0 -111.5 -14t-96.5 -45t-67.5 -81t-25.5 -122q0 -74 25.5 -124t67.5 -80.5t95.5 -44t110.5 -13.5q55 0 109.5 13.5t96.5 44t67.5 80.5t25.5 124zM578 1280q88 0 136 45t48 139h111q0 -59 -17.5 -110t-53.5 -91t-92 -62.5t-134 -22.5q-80 0 -136.5 22.5 t-92 61t-52 91t-16.5 111.5h115q0 -94 49 -139t135 -45z" />
<glyph unicode="&#x120;" horiz-adv-x="1335" d="M754 1360q-109 0 -198 -40t-151.5 -121t-97.5 -203t-35 -283q0 -328 128 -476.5t380 -148.5q98 0 175 15.5t124 33.5v479h-307v115h426v-665q-18 -10 -56 -25.5t-92.5 -32t-126 -28t-159.5 -11.5q-315 0 -471 188.5t-156 555.5q0 164 38 303t115 240.5t191.5 159 t268.5 57.5q139 0 244.5 -36t189.5 -104l-62 -94l-59 40q-33 22 -77 40t-101 29.5t-131 11.5zM647 1698q0 47 28.5 75.5t69.5 28.5t67.5 -28.5t26.5 -75.5t-26.5 -74t-67.5 -27t-69.5 27t-28.5 74z" />
<glyph unicode="&#x121;" horiz-adv-x="1110" d="M852 930q57 -39 90 -106.5t33 -143.5q0 -94 -39 -160.5t-98.5 -109.5t-132 -62.5t-142.5 -19.5q-66 0 -127 11t-117 42q-29 -25 -52 -59.5t-23 -77.5q0 -35 10 -59.5t36.5 -41t72 -24.5t116.5 -10l226 -5q68 -2 129 -14t109 -39.5t76 -75t28 -118.5q0 -68 -33 -128.5 t-100.5 -105.5t-169 -71.5t-236.5 -26.5q-84 0 -160 13t-133 46t-92 84t-35 129q0 84 40 146.5t99 109.5q-39 20 -65.5 59.5t-26.5 98.5q0 68 37 123t82 92q-53 43 -84 105.5t-31 150.5q0 94 38 161.5t98.5 111.5t134 65.5t145.5 21.5q41 0 74 -4t60.5 -9t53 -9t54.5 -4h276 v-96h-57q-31 0 -81 2t-83 8zM510 6q-45 2 -97.5 3t-101.5 14q-35 -27 -71.5 -78t-36.5 -123q0 -59 25.5 -97t68.5 -61.5t98.5 -33t116.5 -9.5q94 0 171 15.5t130 45t83 69.5t30 89q0 31 -8.5 59.5t-32 51t-65.5 36t-107 15.5zM856 684q0 74 -25.5 124t-66.5 81t-95.5 44 t-109.5 13q-57 0 -111.5 -14t-96.5 -45t-67.5 -81t-25.5 -122q0 -74 25.5 -124t67.5 -80.5t95.5 -44t110.5 -13.5q55 0 109.5 13.5t96.5 44t67.5 80.5t25.5 124zM485 1311q0 45 26.5 72.5t67.5 27.5t65.5 -27.5t24.5 -72.5t-24.5 -72t-65.5 -27t-67.5 27t-26.5 72z" />
<glyph unicode="&#x122;" horiz-adv-x="1335" d="M754 1360q-109 0 -198 -40t-151.5 -121t-97.5 -203t-35 -283q0 -328 128 -476.5t380 -148.5q98 0 175 15.5t124 33.5v479h-307v115h426v-665q-18 -10 -56 -25.5t-92.5 -32t-126 -28t-159.5 -11.5q-315 0 -471 188.5t-156 555.5q0 164 38 303t115 240.5t191.5 159 t268.5 57.5q139 0 244.5 -36t189.5 -104l-62 -94l-59 40q-33 22 -77 40t-101 29.5t-131 11.5zM811 -209q0 -86 -41 -168t-90 -139l-63 39q29 43 51.5 97t26.5 87q-29 10 -54.5 35t-25.5 59q0 43 25.5 72t68.5 29q47 0 74.5 -31t27.5 -80z" />
<glyph unicode="&#x123;" horiz-adv-x="1110" d="M852 930q57 -39 90 -106.5t33 -143.5q0 -94 -39 -160.5t-98.5 -109.5t-132 -62.5t-142.5 -19.5q-66 0 -127 11t-117 42q-29 -25 -52 -59.5t-23 -77.5q0 -35 10 -59.5t36.5 -41t72 -24.5t116.5 -10l226 -5q68 -2 129 -14t109 -39.5t76 -75t28 -118.5q0 -68 -33 -128.5 t-100.5 -105.5t-169 -71.5t-236.5 -26.5q-84 0 -160 13t-133 46t-92 84t-35 129q0 84 40 146.5t99 109.5q-39 20 -65.5 59.5t-26.5 98.5q0 68 37 123t82 92q-53 43 -84 105.5t-31 150.5q0 94 38 161.5t98.5 111.5t134 65.5t145.5 21.5q41 0 74 -4t60.5 -9t53 -9t54.5 -4h276 v-96h-57q-31 0 -81 2t-83 8zM510 6q-45 2 -97.5 3t-101.5 14q-35 -27 -71.5 -78t-36.5 -123q0 -59 25.5 -97t68.5 -61.5t98.5 -33t116.5 -9.5q94 0 171 15.5t130 45t83 69.5t30 89q0 31 -8.5 59.5t-32 51t-65.5 36t-107 15.5zM856 684q0 74 -25.5 124t-66.5 81t-95.5 44 t-109.5 13q-57 0 -111.5 -14t-96.5 -45t-67.5 -81t-25.5 -122q0 -74 25.5 -124t67.5 -80.5t95.5 -44t110.5 -13.5q55 0 109.5 13.5t96.5 44t67.5 80.5t25.5 124zM486 1284q0 86 42 168t91 139l59 -39q-29 -43 -50 -98t-25 -88q29 -10 52 -35.5t23 -56.5q0 -47 -27.5 -72.5 t-66.5 -25.5q-45 0 -71.5 31.5t-26.5 76.5z" />
<glyph unicode="&#x124;" horiz-adv-x="1366" d="M1049 1440h129v-1440h-129v709h-732v-709h-129v1440h129v-611h732v611zM979 1561l-281 198l-280 -198l-68 69l291 252h115l290 -252z" />
<glyph unicode="&#x125;" horiz-adv-x="1150" d="M287 821q47 98 137 159.5t225 61.5q166 0 255 -96t89 -282v-664h-121v647q0 80 -19 135.5t-53 88t-80 47t-102 14.5q-78 0 -139 -36t-104 -93.5t-65.5 -131t-22.5 -149.5v-522h-121v1536h121v-715zM164 1645l248 237h110l250 -237l-63 -64l-242 184l-242 -184z" />
<glyph unicode="&#x126;" horiz-adv-x="1415" d="M1192 1075v-1075h-129v709h-731v-709h-131v1075h-154v111h154v254h131v-254h731v254h129v-254h176v-111h-176zM1063 1075h-731v-248h731v248z" />
<glyph unicode="&#x127;" horiz-adv-x="1171" d="M307 1348h383v-103h-383v-424q47 98 137.5 159.5t225.5 61.5q166 0 255 -96t89 -282v-664h-121v647q0 80 -19.5 135.5t-53.5 88t-80 47t-101 14.5q-78 0 -139.5 -36t-104.5 -93.5t-65.5 -131t-22.5 -149.5v-522h-121v1245h-141v103h141v188h121v-188z" />
<glyph unicode="&#x128;" horiz-adv-x="505" d="M317 0h-129v1440h129v-1440zM100 1815q51 0 91 -18.5t74 -42t67 -42t71 -18.5q96 0 97 118h108q0 -115 -54 -171t-153 -56q-51 0 -89 18.5t-71.5 41t-66.5 41t-70 18.5q-100 0 -100 -117h-108q0 111 51 169.5t153 58.5z" />
<glyph unicode="&#x129;" horiz-adv-x="468" d="M172 1016h123v-1016h-123v1016zM79 1421q51 0 89 -18.5t70 -42t63.5 -42t70.5 -18.5q51 0 71.5 32t20.5 87h109q0 -111 -51 -169t-150 -58q-49 0 -86 18.5t-70.5 41t-64.5 41t-67 18.5q-51 0 -73 -31t-22 -86h-108q0 106 50 166.5t148 60.5z" />
<glyph unicode="&#x12a;" horiz-adv-x="505" d="M317 0h-129v1440h129v-1440zM-43 1636v115h602v-115h-602z" />
<glyph unicode="&#x12b;" horiz-adv-x="468" d="M172 1016h123v-1016h-123v1016zM-54 1257v109h582v-109h-582z" />
<glyph unicode="&#x12c;" horiz-adv-x="505" d="M317 0h-129v1440h129v-1440zM260 1659q88 0 137.5 49t49.5 143h114q0 -59 -18.5 -112t-55 -95t-94 -67t-137.5 -25t-137 25t-94 65.5t-54.5 95t-17.5 113.5h119q0 -94 51 -143t137 -49z" />
<glyph unicode="&#x12d;" horiz-adv-x="468" d="M172 1016h123v-1016h-123v1016zM231 1280q88 0 136 45t48 139h111q0 -59 -17.5 -110t-53.5 -91t-92 -62.5t-134 -22.5q-80 0 -136.5 22.5t-92 61t-52 91t-16.5 111.5h115q0 -94 49 -139t135 -45z" />
<glyph unicode="&#x12e;" horiz-adv-x="505" d="M317 0q-53 -41 -94 -90t-41 -107q0 -45 28 -65.5t77 -20.5q27 0 37 2v-90q-14 -2 -26.5 -3t-33.5 -1q-94 0 -147.5 42t-53.5 110q0 72 38 124t98 99h-11v1440h129v-1440z" />
<glyph unicode="&#x12f;" horiz-adv-x="468" d="M174 1016h121v-1016q-53 -41 -93 -90t-40 -107q0 -41 24.5 -63.5t79.5 -22.5q27 0 35 2v-84q-14 -2 -22.5 -3t-28.5 -1q-86 0 -143.5 35t-57.5 117q0 66 37 118t96 99h-8v1016zM141 1356q0 45 26 72.5t66 27.5q41 0 68 -27.5t27 -72.5q0 -47 -27 -74t-68 -27t-66.5 28 t-25.5 73z" />
<glyph unicode="&#x130;" horiz-adv-x="505" d="M317 0h-129v1440h129v-1440zM162 1698q0 47 28.5 75.5t69.5 28.5t67.5 -28.5t26.5 -75.5t-26.5 -74t-67.5 -27t-69.5 27t-28.5 74z" />
<glyph unicode="&#x131;" horiz-adv-x="468" d="M172 1016h123v-1016h-123v1016z" />
<glyph unicode="&#x132;" horiz-adv-x="1468" d="M317 0h-129v1440h129v-1440zM1164 1440h129v-1065q0 -219 -101.5 -313.5t-281.5 -94.5q-76 0 -137.5 12.5t-107.5 30t-74 32.5t-36 21l49 101l34 -18q26 -13 65 -27.5t87 -25.5t101 -11q70 0 122 15.5t85 51t49.5 95t16.5 147.5v1049z" />
<glyph unicode="&#x133;" horiz-adv-x="929" d="M174 1016h121v-1016h-121v1016zM141 1356q0 45 26 72.5t66 27.5q41 0 68 -27.5t27 -72.5q0 -47 -27 -74t-68 -27t-66.5 28t-25.5 73zM756 -29q0 -215 -80 -322.5t-260 -107.5q-29 0 -67 5t-60 14l14 102q20 -4 48 -8t55 -4q74 0 119 21.5t69.5 66.5t32.5 113.5t8 162.5 v1002h121v-1045zM602 1356q0 45 26 72.5t66 27.5q41 0 68 -27.5t27 -72.5q0 -47 -27 -74t-68 -27t-66.5 28t-25.5 73z" />
<glyph unicode="&#x134;" horiz-adv-x="968" d="M664 1440h129v-1065q0 -219 -101.5 -313.5t-281.5 -94.5q-76 0 -137.5 12.5t-107.5 30t-74 32.5t-36 21l49 101l34 -18q26 -13 65 -27.5t87 -25.5t101 -11q70 0 122 15.5t85 51t49.5 95t16.5 147.5v1049zM1008 1561l-281 198l-280 -198l-68 69l291 252h115l290 -252z" />
<glyph unicode="&#x135;" horiz-adv-x="468" d="M295 -29q0 -215 -80 -322.5t-260 -107.5q-29 0 -67 5t-60 14l14 102q20 -4 48 -8t55 -4q74 0 119 21.5t69.5 66.5t32.5 113.5t8 162.5v1002h121v-1045zM-84 1253l276 258h102l277 -258l-70 -65l-258 201l-258 -201z" />
<glyph unicode="&#x136;" horiz-adv-x="1132" d="M317 0h-129v1440h129v-664l601 664h151l-600 -666l649 -774h-166l-635 754v-754zM690 -209q0 -86 -41 -168t-90 -139l-63 39q29 43 51.5 97t26.5 87q-29 10 -54.5 35t-25.5 59q0 43 25.5 72t68.5 29q47 0 74.5 -31t27.5 -80z" />
<glyph unicode="&#x137;" horiz-adv-x="944" d="M287 559l434 457h145l-442 -457l483 -559h-155l-465 545v-545h-121v1536h121v-977zM612 -209q0 -86 -42 -168t-91 -139l-59 39q29 43 50.5 98t25.5 88q-23 8 -49.5 33t-26.5 61q0 45 26.5 71t65.5 26q47 0 73.5 -31t26.5 -78z" />
<glyph unicode="&#x138;" horiz-adv-x="944" d="M905 0h-155l-463 522v-522h-121v1016h121v-479l438 479h145l-446 -475z" />
<glyph unicode="&#x139;" horiz-adv-x="1064" d="M322 119h665v-119h-794v1440h129v-1321zM530 1882l53 -119l-477 -200l-41 90z" />
<glyph unicode="&#x13a;" horiz-adv-x="454" d="M289 0h-123v1536h123v-1536zM0 1702l471 156l37 -123l-477 -127z" />
<glyph unicode="&#x13b;" horiz-adv-x="1064" d="M322 119h665v-119h-794v1440h129v-1321zM639 -209q0 -86 -41 -168t-90 -139l-63 39q29 43 51.5 97t26.5 87q-29 10 -54.5 35t-25.5 59q0 43 25.5 72t68.5 29q47 0 74.5 -31t27.5 -80z" />
<glyph unicode="&#x13c;" horiz-adv-x="454" d="M289 0h-123v1536h123v-1536zM317 -209q0 -86 -42 -168t-91 -139l-59 39q29 43 50.5 98t25.5 88q-23 8 -49.5 33t-26.5 61q0 45 26.5 71t65.5 26q47 0 73.5 -31t26.5 -78z" />
<glyph unicode="&#x13d;" horiz-adv-x="1064" d="M322 119h665v-119h-794v1440h129v-1321zM659 1366q0 51 31 78.5t72 27.5q47 0 72.5 -34.5t25.5 -90.5q0 -43 -13.5 -95t-36 -106.5t-52 -104.5t-64.5 -91l-61 45q18 31 35.5 68t31 73.5t23.5 70.5t16 60q-29 8 -54.5 36t-25.5 63z" />
<glyph unicode="&#x13e;" horiz-adv-x="600" d="M289 0h-123v1536h123v-1536zM475 1440q0 51 31 78.5t72 27.5q47 0 72.5 -34.5t25.5 -90.5q0 -43 -13.5 -95t-36 -106.5t-52 -104.5t-64.5 -91l-61 45q18 31 35.5 68t31 73.5t23.5 70.5t16 60q-29 8 -54.5 36t-25.5 63z" />
<glyph unicode="&#x13f;" horiz-adv-x="1064" d="M322 119h665v-119h-794v1440h129v-1321zM695 854q0 49 28.5 80t71.5 31t71.5 -30t28.5 -81q0 -49 -29.5 -77.5t-72.5 -28.5t-70.5 28.5t-27.5 77.5z" />
<glyph unicode="&#x140;" horiz-adv-x="704" d="M307 0h-123v1536h123v-1536zM492 838q0 49 28.5 80t71.5 31t71.5 -30t28.5 -81q0 -49 -29.5 -77.5t-72.5 -28.5t-70.5 28.5t-27.5 77.5z" />
<glyph unicode="&#x141;" horiz-adv-x="1069" d="M340 805l410 225v-119l-410 -225v-567h666v-119h-795v618l-172 -94v119l172 92v705h129v-635z" />
<glyph unicode="&#x142;" horiz-adv-x="548" d="M334 911l174 140v-129l-174 -140v-782h-121v686l-172 -141v131l172 139v721h121v-625z" />
<glyph unicode="&#x143;" horiz-adv-x="1351" d="M313 1227v-1227h-125v1440h136l714 -1221v1221h125v-1440h-125zM921 1882l53 -119l-477 -200l-41 90z" />
<glyph unicode="&#x144;" horiz-adv-x="1150" d="M287 0h-121v1016h113l4 -201q47 96 138 161.5t220 65.5q176 0 264 -96t88 -282v-664h-121v647q0 80 -19 135.5t-53 88t-80 47t-102 14.5q-78 0 -139 -36t-104 -93.5t-65.5 -131t-22.5 -149.5v-522zM786 1534l57 -115l-465 -215l-43 88z" />
<glyph unicode="&#x145;" horiz-adv-x="1351" d="M313 1227v-1227h-125v1440h136l714 -1221v1221h125v-1440h-125zM774 -209q0 -86 -41 -168t-90 -139l-63 39q29 43 51.5 97t26.5 87q-29 10 -54.5 35t-25.5 59q0 43 25.5 72t68.5 29q47 0 74.5 -31t27.5 -80z" />
<glyph unicode="&#x146;" horiz-adv-x="1150" d="M287 0h-121v1016h113l4 -201q47 96 138 161.5t220 65.5q176 0 264 -96t88 -282v-664h-121v647q0 80 -19 135.5t-53 88t-80 47t-102 14.5q-78 0 -139 -36t-104 -93.5t-65.5 -131t-22.5 -149.5v-522zM686 -209q0 -86 -42 -168t-91 -139l-59 39q29 43 50.5 98t25.5 88 q-23 8 -49.5 33t-26.5 61q0 45 26.5 71t65.5 26q47 0 73.5 -31t26.5 -78z" />
<glyph unicode="&#x147;" horiz-adv-x="1351" d="M313 1227v-1227h-125v1440h136l714 -1221v1221h125v-1440h-125zM631 1561l-291 249l68 72l280 -201l281 201l67 -72l-290 -249h-115z" />
<glyph unicode="&#x148;" horiz-adv-x="1150" d="M287 0h-121v1016h113l4 -201q47 96 138 161.5t220 65.5q176 0 264 -96t88 -282v-664h-121v647q0 80 -19 135.5t-53 88t-80 47t-102 14.5q-78 0 -139 -36t-104 -93.5t-65.5 -131t-22.5 -149.5v-522zM602 1307l256 200l70 -65l-275 -258h-104l-276 258l71 65z" />
<glyph unicode="&#x149;" horiz-adv-x="1210" d="M357 0h-121v1016h113l4 -201q47 96 138 161.5t220 65.5q176 0 264 -96t88 -282v-664h-121v647q0 80 -19 135.5t-53 88t-80 47t-102 14.5q-78 0 -139 -36t-104 -93.5t-65.5 -131t-22.5 -149.5v-522zM69 1427q0 49 30 79t71 30q47 0 73.5 -35t26.5 -90q0 -41 -12.5 -94 t-36 -108.5t-55 -107.5t-68.5 -91l-59 47q23 31 41 66.5t32.5 72.5t22.5 72t10 59q-29 8 -52.5 32.5t-23.5 67.5z" />
<glyph unicode="&#x14a;" horiz-adv-x="1351" d="M1042 764q0 311 -88 449.5t-249 138.5q-80 0 -150 -27t-123 -81t-84 -135t-31 -187v-922h-129v1440h123l8 -172q31 41 70 78.5t88 65.5t107.5 44.5t128.5 16.5q223 0 342 -169t119 -540q0 -225 -30 -376.5t-85 -244t-133 -131.5t-172 -39q-35 0 -60.5 3.5t-68.5 15.5 l22 108q51 -14 105 -14q137 0 213.5 163t76.5 515z" />
<glyph unicode="&#x14b;" horiz-adv-x="1150" d="M287 0h-121v1016h113l4 -201q47 98 138 162.5t220 64.5q176 0 264 -96t88 -282v-744q0 -203 -83 -298t-269 -95q-14 0 -33.5 1t-40 4t-38 7t-27.5 8l14 101q20 -4 54 -8.5t61 -4.5q70 0 117 16.5t74.5 54.5t38.5 100.5t11 156.5v684q0 80 -19 135.5t-53 88t-80 47 t-102 14.5q-78 0 -139 -36t-104 -94.5t-65.5 -131t-22.5 -148.5v-522z" />
<glyph unicode="&#x14c;" horiz-adv-x="1503" d="M141 721q0 168 40 306t118 236.5t192.5 152.5t262.5 54q147 0 260.5 -54t190.5 -152.5t117 -236.5t40 -306t-40 -306.5t-117 -237.5t-191.5 -153.5t-261.5 -54.5t-262 54.5t-192 153.5t-117 237.5t-40 306.5zM276 721q0 -143 29 -259t88.5 -199t148.5 -128t210 -45 t210 45t148 128t88 199t29 259t-29 259t-88 198t-148.5 127t-209.5 45q-121 0 -210 -45t-148.5 -127t-88.5 -198t-29 -259zM463 1636v115h602v-115h-602z" />
<glyph unicode="&#x14d;" horiz-adv-x="1189" d="M594 88q176 0 260 113.5t84 308.5q0 190 -85 306t-259 116q-172 0 -257 -116t-85 -306q0 -195 84 -308.5t258 -113.5zM594 1042q117 0 204 -39.5t145 -110.5t88 -168t30 -214t-31 -215t-89 -169t-146 -110t-201 -39q-115 0 -203 39t-146.5 110t-88 169t-29.5 215 t30.5 214t89 168t145.5 110.5t202 39.5zM309 1257v109h582v-109h-582z" />
<glyph unicode="&#x14e;" horiz-adv-x="1503" d="M141 721q0 168 40 306t118 236.5t192.5 152.5t262.5 54q147 0 260.5 -54t190.5 -152.5t117 -236.5t40 -306t-40 -306.5t-117 -237.5t-191.5 -153.5t-261.5 -54.5t-262 54.5t-192 153.5t-117 237.5t-40 306.5zM276 721q0 -143 29 -259t88.5 -199t148.5 -128t210 -45 t210 45t148 128t88 199t29 259t-29 259t-88 198t-148.5 127t-209.5 45q-121 0 -210 -45t-148.5 -127t-88.5 -198t-29 -259zM766 1659q88 0 137.5 49t49.5 143h114q0 -59 -18.5 -112t-55 -95t-94 -67t-137.5 -25t-137 25t-94 65.5t-54.5 95t-17.5 113.5h119q0 -94 51 -143 t137 -49z" />
<glyph unicode="&#x14f;" horiz-adv-x="1189" d="M594 88q176 0 260 113.5t84 308.5q0 190 -85 306t-259 116q-172 0 -257 -116t-85 -306q0 -195 84 -308.5t258 -113.5zM594 1042q117 0 204 -39.5t145 -110.5t88 -168t30 -214t-31 -215t-89 -169t-146 -110t-201 -39q-115 0 -203 39t-146.5 110t-88 169t-29.5 215 t30.5 214t89 168t145.5 110.5t202 39.5zM602 1280q88 0 136 45t48 139h111q0 -59 -17.5 -110t-53.5 -91t-92 -62.5t-134 -22.5q-80 0 -136.5 22.5t-92 61t-52 91t-16.5 111.5h115q0 -94 49 -139t135 -45z" />
<glyph unicode="&#x150;" horiz-adv-x="1503" d="M141 721q0 168 40 306t118 236.5t192.5 152.5t262.5 54q147 0 260.5 -54t190.5 -152.5t117 -236.5t40 -306t-40 -306.5t-117 -237.5t-191.5 -153.5t-261.5 -54.5t-262 54.5t-192 153.5t-117 237.5t-40 306.5zM276 721q0 -143 29 -259t88.5 -199t148.5 -128t210 -45 t210 45t148 128t88 199t29 259t-29 259t-88 198t-148.5 127t-209.5 45q-121 0 -210 -45t-148.5 -127t-88.5 -198t-29 -259zM854 1626l283 303l86 -88l-299 -285zM447 1626l282 303l86 -88l-299 -285z" />
<glyph unicode="&#x151;" horiz-adv-x="1189" d="M594 88q176 0 260 113.5t84 308.5q0 190 -85 306t-259 116q-172 0 -257 -116t-85 -306q0 -195 84 -308.5t258 -113.5zM594 1042q117 0 204 -39.5t145 -110.5t88 -168t30 -214t-31 -215t-89 -169t-146 -110t-201 -39q-115 0 -203 39t-146.5 110t-88 169t-29.5 215 t30.5 214t89 168t145.5 110.5t202 39.5zM694 1227l289 329l90 -81l-305 -314zM287 1227l289 329l90 -81l-306 -314z" />
<glyph unicode="&#x152;" horiz-adv-x="1820" d="M1743 1440v-121h-664v-510h518v-119h-518v-569h684v-121h-977q-330 0 -488.5 180t-158.5 535q0 166 40 300t121 228t203 145.5t285 51.5h955zM952 121v1200h-161q-264 0 -391.5 -152.5t-127.5 -453.5t126 -447.5t388 -146.5h166z" />
<glyph unicode="&#x153;" horiz-adv-x="1935" d="M1438 88q98 0 162.5 19.5t103.5 35.5l33 -94q-29 -20 -111 -46t-199 -26q-164 0 -270 64.5t-160 187.5q-53 -117 -154.5 -184.5t-248.5 -67.5q-115 0 -203 39t-146.5 110t-88 169t-29.5 215t30.5 214t89 168t145.5 110.5t202 39.5q158 0 256 -69.5t149 -188.5 q53 119 149.5 188.5t233.5 69.5q98 0 176 -29.5t132.5 -96t84 -170t29.5 -250.5v-21h-749q10 -182 102.5 -284.5t280.5 -102.5zM594 88q176 0 261 113.5t85 308.5q0 190 -86 306t-260 116q-172 0 -257 -116t-85 -306q0 -195 84 -308.5t258 -113.5zM1681 573 q-10 174 -79.5 267.5t-219.5 93.5q-154 0 -231.5 -94.5t-93.5 -266.5h624z" />
<glyph unicode="&#x154;" horiz-adv-x="1181" d="M1108 0h-150l-352 592h-291v-592h-127v1440h379q129 0 216 -37t140.5 -97.5t77 -135t23.5 -150.5q0 -80 -22.5 -145.5t-61.5 -114.5t-91 -84t-110 -55zM897 1014q0 143 -81 227t-263 84h-238v-620h246q174 0 255 84t81 225zM770 1882l53 -119l-477 -200l-41 90z" />
<glyph unicode="&#x155;" horiz-adv-x="765" d="M643 1026q23 0 49.5 -2t34.5 -6l-10 -111q-16 4 -39 5t-43 1q-74 0 -137.5 -31.5t-108.5 -90t-70.5 -141.5t-25.5 -187v-463h-121v1016h113l4 -234q20 49 53 94.5t78 78t101 52t122 19.5zM649 1534l57 -115l-465 -215l-43 88z" />
<glyph unicode="&#x156;" horiz-adv-x="1181" d="M1108 0h-150l-352 592h-291v-592h-127v1440h379q129 0 216 -37t140.5 -97.5t77 -135t23.5 -150.5q0 -80 -22.5 -145.5t-61.5 -114.5t-91 -84t-110 -55zM897 1014q0 143 -81 227t-263 84h-238v-620h246q174 0 255 84t81 225zM692 -209q0 -86 -41 -168t-90 -139l-63 39 q29 43 51.5 97t26.5 87q-29 10 -54.5 35t-25.5 59q0 43 25.5 72t68.5 29q47 0 74.5 -31t27.5 -80z" />
<glyph unicode="&#x157;" horiz-adv-x="765" d="M643 1026q23 0 49.5 -2t34.5 -6l-10 -111q-16 4 -39 5t-43 1q-74 0 -137.5 -31.5t-108.5 -90t-70.5 -141.5t-25.5 -187v-463h-121v1016h113l4 -234q20 49 53 94.5t78 78t101 52t122 19.5zM340 -209q0 -86 -42 -168t-91 -139l-59 39q29 43 50.5 98t25.5 88q-23 8 -49.5 33 t-26.5 61q0 45 26.5 71t65.5 26q47 0 73.5 -31t26.5 -78z" />
<glyph unicode="&#x158;" horiz-adv-x="1181" d="M1108 0h-150l-352 592h-291v-592h-127v1440h379q129 0 216 -37t140.5 -97.5t77 -135t23.5 -150.5q0 -80 -22.5 -145.5t-61.5 -114.5t-91 -84t-110 -55zM897 1014q0 143 -81 227t-263 84h-238v-620h246q174 0 255 84t81 225zM494 1561l-291 249l68 72l280 -201l281 201 l67 -72l-290 -249h-115z" />
<glyph unicode="&#x159;" horiz-adv-x="765" d="M643 1026q23 0 49.5 -2t34.5 -6l-10 -111q-16 4 -39 5t-43 1q-74 0 -137.5 -31.5t-108.5 -90t-70.5 -141.5t-25.5 -187v-463h-121v1016h113l4 -234q20 49 53 94.5t78 78t101 52t122 19.5zM432 1307l256 200l70 -65l-275 -258h-104l-276 258l71 65z" />
<glyph unicode="&#x15a;" horiz-adv-x="1142" d="M506 690q-172 53 -264 146.5t-92 234.5q0 84 27.5 158t84.5 129t143.5 87t202.5 32q55 0 112.5 -8.5t111 -22.5t98.5 -33.5t76 -40.5l-50 -106q-47 31 -141 61.5t-215 30.5q-156 0 -237.5 -72t-81.5 -199q0 -49 13 -87.5t44 -71.5t82 -59.5t127 -53.5l147 -51 q176 -61 255 -153.5t79 -237.5q0 -84 -29.5 -158t-88 -128t-147.5 -86t-206 -32q-88 0 -164 14.5t-136 35t-102 42t-61 35.5l53 107q29 -18 69 -38t91 -37t114.5 -28.5t137.5 -11.5q152 0 244 67.5t92 206.5q0 102 -59.5 172t-200.5 115zM784 1882l53 -119l-477 -200l-41 90 z" />
<glyph unicode="&#x15b;" horiz-adv-x="950" d="M139 164q51 -29 134 -55.5t200 -26.5q152 0 208 51t56 129q0 74 -45 121t-172 70l-110 20q-66 12 -119 31.5t-93 51.5t-61.5 78t-21.5 114q0 141 104.5 217.5t272.5 76.5q102 0 185 -22.5t132 -48.5l-43 -94q-45 23 -111.5 41t-156.5 18q-139 0 -204 -44t-65 -130 q0 -39 11.5 -67.5t37 -50t69.5 -37t110 -27.5l112 -21q61 -12 113.5 -33.5t90.5 -55.5t59.5 -80t21.5 -109q0 -139 -99.5 -221.5t-279.5 -82.5q-127 0 -229.5 31t-149.5 62zM696 1534l57 -115l-465 -215l-43 88z" />
<glyph unicode="&#x15c;" horiz-adv-x="1142" d="M506 690q-172 53 -264 146.5t-92 234.5q0 84 27.5 158t84.5 129t143.5 87t202.5 32q55 0 112.5 -8.5t111 -22.5t98.5 -33.5t76 -40.5l-50 -106q-47 31 -141 61.5t-215 30.5q-156 0 -237.5 -72t-81.5 -199q0 -49 13 -87.5t44 -71.5t82 -59.5t127 -53.5l147 -51 q176 -61 255 -153.5t79 -237.5q0 -84 -29.5 -158t-88 -128t-147.5 -86t-206 -32q-88 0 -164 14.5t-136 35t-102 42t-61 35.5l53 107q29 -18 69 -38t91 -37t114.5 -28.5t137.5 -11.5q152 0 244 67.5t92 206.5q0 102 -59.5 172t-200.5 115zM877 1561l-281 198l-280 -198 l-68 69l291 252h115l290 -252z" />
<glyph unicode="&#x15d;" horiz-adv-x="950" d="M139 164q51 -29 134 -55.5t200 -26.5q152 0 208 51t56 129q0 74 -45 121t-172 70l-110 20q-66 12 -119 31.5t-93 51.5t-61.5 78t-21.5 114q0 141 104.5 217.5t272.5 76.5q102 0 185 -22.5t132 -48.5l-43 -94q-45 23 -111.5 41t-156.5 18q-139 0 -204 -44t-65 -130 q0 -39 11.5 -67.5t37 -50t69.5 -37t110 -27.5l112 -21q61 -12 113.5 -33.5t90.5 -55.5t59.5 -80t21.5 -109q0 -139 -99.5 -221.5t-279.5 -82.5q-127 0 -229.5 31t-149.5 62zM168 1253l276 258h102l277 -258l-70 -65l-258 201l-258 -201z" />
<glyph unicode="&#x15e;" horiz-adv-x="1142" d="M506 690q-172 53 -264 146.5t-92 234.5q0 84 27.5 158t84.5 129t143.5 87t202.5 32q55 0 112.5 -8.5t111 -22.5t98.5 -33.5t76 -40.5l-50 -106q-47 31 -141 61.5t-215 30.5q-156 0 -237.5 -72t-81.5 -199q0 -49 13 -87.5t44 -71.5t82 -59.5t127 -53.5l147 -51 q176 -61 255 -153.5t79 -237.5q0 -80 -26.5 -149.5t-79 -124t-132 -88.5t-184.5 -40l-14 -71q102 -8 152.5 -59.5t50.5 -125.5q0 -98 -70 -151t-182 -53q-86 0 -134.5 14t-58.5 18l21 88q35 -10 69.5 -18t85.5 -8q72 0 111 24.5t39 81.5q0 45 -33 70.5t-108 25.5 q-16 0 -35 -1t-35 -5l37 170q-78 4 -144.5 19.5t-119 35t-89 39t-55.5 31.5l53 107q29 -18 69 -38t91 -37t114.5 -28.5t137.5 -11.5q152 0 244 67.5t92 206.5q0 102 -59.5 172t-200.5 115z" />
<glyph unicode="&#x15f;" horiz-adv-x="950" d="M139 164q51 -29 134 -55.5t200 -26.5q152 0 208 51t56 129q0 74 -45 121t-172 70l-110 20q-66 12 -119 31.5t-93 51.5t-61.5 78t-21.5 114q0 141 104.5 217.5t272.5 76.5q102 0 185 -22.5t132 -48.5l-43 -94q-45 23 -111.5 41t-156.5 18q-139 0 -204 -44t-65 -130 q0 -39 11.5 -67.5t37 -50t69.5 -37t110 -27.5l112 -21q61 -12 113.5 -33.5t90.5 -55.5t59.5 -80t21.5 -109q0 -135 -92 -215t-258 -86l-17 -80q102 -8 152.5 -57.5t50.5 -127.5q0 -98 -70.5 -151t-181.5 -53q-86 0 -134 14t-58 18l22 82q35 -10 69 -18t85 -8q76 0 117 28.5 t41 85.5q0 100 -152 101q-29 0 -61 -7l36 175q-104 8 -185 34.5t-122 53.5z" />
<glyph unicode="&#x160;" horiz-adv-x="1142" d="M506 690q-172 53 -264 146.5t-92 234.5q0 84 27.5 158t84.5 129t143.5 87t202.5 32q55 0 112.5 -8.5t111 -22.5t98.5 -33.5t76 -40.5l-50 -106q-47 31 -141 61.5t-215 30.5q-156 0 -237.5 -72t-81.5 -199q0 -49 13 -87.5t44 -71.5t82 -59.5t127 -53.5l147 -51 q176 -61 255 -153.5t79 -237.5q0 -84 -29.5 -158t-88 -128t-147.5 -86t-206 -32q-88 0 -164 14.5t-136 35t-102 42t-61 35.5l53 107q29 -18 69 -38t91 -37t114.5 -28.5t137.5 -11.5q152 0 244 67.5t92 206.5q0 102 -59.5 172t-200.5 115zM553 1561l-291 249l68 72l280 -201 l281 201l67 -72l-290 -249h-115z" />
<glyph unicode="&#x161;" horiz-adv-x="950" d="M139 164q51 -29 134 -55.5t200 -26.5q152 0 208 51t56 129q0 74 -45 121t-172 70l-110 20q-66 12 -119 31.5t-93 51.5t-61.5 78t-21.5 114q0 141 104.5 217.5t272.5 76.5q102 0 185 -22.5t132 -48.5l-43 -94q-45 23 -111.5 41t-156.5 18q-139 0 -204 -44t-65 -130 q0 -39 11.5 -67.5t37 -50t69.5 -37t110 -27.5l112 -21q61 -12 113.5 -33.5t90.5 -55.5t59.5 -80t21.5 -109q0 -139 -99.5 -221.5t-279.5 -82.5q-127 0 -229.5 31t-149.5 62zM485 1307l256 200l70 -65l-275 -258h-104l-276 258l71 65z" />
<glyph unicode="&#x162;" horiz-adv-x="1157" d="M514 1319h-442v121h1011v-121h-440v-1319h-12l-21 -100q102 -8 152.5 -59.5t50.5 -125.5q0 -98 -69.5 -151t-182.5 -53q-86 0 -134 14t-58 18l20 88q35 -10 70 -18t86 -8q72 0 110.5 24.5t38.5 81.5q0 45 -32.5 70.5t-108.5 25.5q-16 0 -34.5 -1t-35.5 -5l43 199h-12 v1319z" />
<glyph unicode="&#x163;" horiz-adv-x="804" d="M625 96q29 0 53 2t43 6l12 -98q-20 -6 -61 -12t-90 -6q-12 0 -24.5 1t-22.5 1l-19 -90q102 -8 152.5 -59.5t50.5 -125.5q0 -98 -69.5 -151t-182.5 -53q-86 0 -134 14t-59 18l21 88q35 -10 69.5 -18t86.5 -8q72 0 110.5 24.5t38.5 81.5q0 45 -32.5 70.5t-108.5 25.5 q-16 0 -34.5 -1t-35.5 -5l43 211q-80 31 -115.5 99.5t-35.5 171.5v626h-211v107h211v299l120 33v-332h310v-107h-310v-592q0 -70 14.5 -112.5t43 -67t71 -33t95.5 -8.5z" />
<glyph unicode="&#x164;" horiz-adv-x="1157" d="M514 1319h-442v121h1011v-121h-440v-1319h-129v1319zM526 1561l-291 249l68 72l280 -201l281 201l67 -72l-290 -249h-115z" />
<glyph unicode="&#x165;" horiz-adv-x="817" d="M625 96q29 0 53 2t43 6l12 -98q-20 -6 -61 -12t-90 -6q-164 0 -232.5 77.5t-68.5 217.5v626h-211v107h211v299l120 33v-332h310v-107h-310v-592q0 -70 14.5 -112.5t43 -67t71 -33t95.5 -8.5zM811 1425q0 -37 -10 -82t-27.5 -89t-38 -84t-40.5 -66l-64 35q10 18 20.5 43.5 t19.5 54.5t15.5 57.5t8.5 53.5q-29 8 -51.5 33.5t-22.5 60.5q0 47 27.5 74.5t66.5 27.5q47 0 71.5 -33t24.5 -86z" />
<glyph unicode="&#x166;" horiz-adv-x="1157" d="M514 700h-342v113h342v506h-442v121h1011v-121h-440v-506h342v-113h-342v-700h-129v700z" />
<glyph unicode="&#x167;" horiz-adv-x="804" d="M401 526v-209q0 -70 14.5 -112.5t43 -67t70.5 -33t96 -8.5q29 0 53 2t43 6l12 -98q-20 -6 -61 -12t-90 -6q-164 0 -232.5 77.5t-68.5 217.5v243h-211v105h211v278h-211v107h211v299l120 33v-332h310v-107h-310v-278h310v-105h-310z" />
<glyph unicode="&#x168;" horiz-adv-x="1339" d="M666 -33q-147 0 -242.5 44t-153 124t-80 189.5t-22.5 240.5v875h129v-846q0 -145 22.5 -243.5t68.5 -157t116.5 -83t165.5 -24.5q94 0 163.5 24.5t115.5 83t69.5 155.5t23.5 243v848h129v-877q0 -131 -23.5 -240.5t-81.5 -188.5t-155.5 -123t-244.5 -44zM526 1815 q51 0 91 -18.5t74 -42t67 -42t71 -18.5q96 0 97 118h108q0 -115 -54 -171t-153 -56q-51 0 -89 18.5t-71.5 41t-66.5 41t-70 18.5q-100 0 -100 -117h-108q0 111 51 169.5t153 58.5z" />
<glyph unicode="&#x169;" horiz-adv-x="1157" d="M870 1016h121v-1016h-112l-5 197q-49 -98 -138 -160t-230 -62q-168 0 -254 95.5t-86 281.5v664h121v-647q0 -80 18.5 -134.5t52 -87t79.5 -47t102 -14.5q78 0 139 35t104 92t65.5 130t22.5 151v522zM432 1421q51 0 89 -18.5t70 -42t63.5 -42t70.5 -18.5q51 0 71.5 32 t20.5 87h109q0 -111 -51 -169t-150 -58q-49 0 -86 18.5t-70.5 41t-64.5 41t-67 18.5q-51 0 -73 -31t-22 -86h-108q0 106 50 166.5t148 60.5z" />
<glyph unicode="&#x16a;" horiz-adv-x="1339" d="M666 -33q-147 0 -242.5 44t-153 124t-80 189.5t-22.5 240.5v875h129v-846q0 -145 22.5 -243.5t68.5 -157t116.5 -83t165.5 -24.5q94 0 163.5 24.5t115.5 83t69.5 155.5t23.5 243v848h129v-877q0 -131 -23.5 -240.5t-81.5 -188.5t-155.5 -123t-244.5 -44zM367 1636v115 h602v-115h-602z" />
<glyph unicode="&#x16b;" horiz-adv-x="1157" d="M870 1016h121v-1016h-112l-5 197q-49 -98 -138 -160t-230 -62q-168 0 -254 95.5t-86 281.5v664h121v-647q0 -80 18.5 -134.5t52 -87t79.5 -47t102 -14.5q78 0 139 35t104 92t65.5 130t22.5 151v522zM295 1257v109h582v-109h-582z" />
<glyph unicode="&#x16c;" horiz-adv-x="1339" d="M666 -33q-147 0 -242.5 44t-153 124t-80 189.5t-22.5 240.5v875h129v-846q0 -145 22.5 -243.5t68.5 -157t116.5 -83t165.5 -24.5q94 0 163.5 24.5t115.5 83t69.5 155.5t23.5 243v848h129v-877q0 -131 -23.5 -240.5t-81.5 -188.5t-155.5 -123t-244.5 -44zM678 1659 q88 0 137.5 49t49.5 143h114q0 -59 -18.5 -112t-55 -95t-94 -67t-137.5 -25t-137 25t-94 65.5t-54.5 95t-17.5 113.5h119q0 -94 51 -143t137 -49z" />
<glyph unicode="&#x16d;" horiz-adv-x="1157" d="M870 1016h121v-1016h-112l-5 197q-49 -98 -138 -160t-230 -62q-168 0 -254 95.5t-86 281.5v664h121v-647q0 -80 18.5 -134.5t52 -87t79.5 -47t102 -14.5q78 0 139 35t104 92t65.5 130t22.5 151v522zM586 1280q88 0 136 45t48 139h111q0 -59 -17.5 -110t-53.5 -91 t-92 -62.5t-134 -22.5q-80 0 -136.5 22.5t-92 61t-52 91t-16.5 111.5h115q0 -94 49 -139t135 -45z" />
<glyph unicode="&#x16e;" horiz-adv-x="1339" d="M666 -33q-147 0 -242.5 44t-153 124t-80 189.5t-22.5 240.5v875h129v-846q0 -145 22.5 -243.5t68.5 -157t116.5 -83t165.5 -24.5q94 0 163.5 24.5t115.5 83t69.5 155.5t23.5 243v848h129v-877q0 -131 -23.5 -240.5t-81.5 -188.5t-155.5 -123t-244.5 -44zM903 1683 q0 -96 -61.5 -153t-153.5 -57q-94 0 -156.5 57t-62.5 151q0 96 64.5 153.5t154.5 57.5q94 0 154.5 -57.5t60.5 -151.5zM811 1681q0 59 -35 93t-90 34q-51 0 -87 -33.5t-36 -93.5q0 -59 35 -93t88 -34q55 0 90 33t35 94z" />
<glyph unicode="&#x16f;" horiz-adv-x="1157" d="M870 1016h121v-1016h-112l-5 197q-49 -98 -138 -160t-230 -62q-168 0 -254 95.5t-86 281.5v664h121v-647q0 -80 18.5 -134.5t52 -87t79.5 -47t102 -14.5q78 0 139 35t104 92t65.5 130t22.5 151v522zM805 1380q0 -98 -60.5 -154.5t-154.5 -56.5q-96 0 -157.5 56.5 t-61.5 152.5q0 98 63.5 154.5t155.5 56.5q96 0 155.5 -56.5t59.5 -152.5zM713 1378q0 59 -35 93t-90 34q-51 0 -87 -32.5t-36 -94.5q0 -59 35 -93t88 -34q55 0 90 34t35 93z" />
<glyph unicode="&#x170;" horiz-adv-x="1339" d="M666 -33q-147 0 -242.5 44t-153 124t-80 189.5t-22.5 240.5v875h129v-846q0 -145 22.5 -243.5t68.5 -157t116.5 -83t165.5 -24.5q94 0 163.5 24.5t115.5 83t69.5 155.5t23.5 243v848h129v-877q0 -131 -23.5 -240.5t-81.5 -188.5t-155.5 -123t-244.5 -44zM761 1626 l283 303l86 -88l-299 -285zM354 1626l282 303l86 -88l-299 -285z" />
<glyph unicode="&#x171;" horiz-adv-x="1157" d="M870 1016h121v-1016h-112l-5 197q-49 -98 -138 -160t-230 -62q-168 0 -254 95.5t-86 281.5v664h121v-647q0 -80 18.5 -134.5t52 -87t79.5 -47t102 -14.5q78 0 139 35t104 92t65.5 130t22.5 151v522zM651 1227l289 329l90 -81l-305 -314zM244 1227l289 329l90 -81 l-306 -314z" />
<glyph unicode="&#x172;" horiz-adv-x="1339" d="M809 -371q-14 -2 -26.5 -3t-32.5 -1q-94 0 -147.5 42t-53.5 110q0 59 25.5 105t68.5 85q-139 4 -231.5 49t-146.5 124t-75.5 187.5t-21.5 237.5v875h129v-846q0 -145 22.5 -243.5t68.5 -157t116.5 -83t165.5 -24.5q94 0 163.5 24.5t115.5 83t69.5 155.5t23.5 243v848h129 v-877q0 -119 -19 -220t-65.5 -178t-123 -126t-193.5 -64q-41 -37 -71.5 -79.5t-30.5 -92.5q0 -45 27.5 -65.5t76.5 -20.5q27 0 37 2v-90z" />
<glyph unicode="&#x173;" horiz-adv-x="1157" d="M997 -365q-14 -2 -22 -3t-29 -1q-86 0 -143.5 35t-57.5 117q0 66 37 118t97 99l-5 197q-49 -98 -138 -160t-230 -62q-168 0 -254 95.5t-86 281.5v664h121v-647q0 -80 18.5 -134.5t52 -87t79.5 -47t102 -14.5q78 0 139 35t104 92t65.5 130t22.5 151v522h121v-1016 q-53 -41 -93 -90t-40 -107q0 -41 24.5 -63.5t80.5 -22.5q27 0 34 2v-84z" />
<glyph unicode="&#x174;" horiz-adv-x="1572" d="M483 0h-141l-311 1440h133l260 -1247l299 1212h127l291 -1210l270 1245h131l-328 -1440h-143l-287 1198zM1067 1561l-281 198l-280 -198l-68 69l291 252h115l290 -252z" />
<glyph unicode="&#x175;" horiz-adv-x="1400" d="M45 1016h129l250 -881l219 850h125l219 -850l248 881h121l-305 -1016h-131l-218 836l-219 -836h-131zM381 1253l276 258h102l277 -258l-70 -65l-258 201l-258 -201z" />
<glyph unicode="&#x176;" horiz-adv-x="1114" d="M487 629l-452 811h147l375 -688l383 688h139l-463 -807v-633h-129v629zM842 1561l-281 198l-280 -198l-68 69l291 252h115l290 -252z" />
<glyph unicode="&#x177;" horiz-adv-x="1003" d="M45 1016h135l324 -830l330 830h124l-612 -1467h-119l211 500zM189 1253l276 258h102l277 -258l-70 -65l-258 201l-258 -201z" />
<glyph unicode="&#x178;" horiz-adv-x="1114" d="M487 629l-452 811h147l375 -688l383 688h139l-463 -807v-633h-129v629zM264 1708q0 49 28.5 78t69.5 29q43 0 71 -29t28 -78q0 -47 -28 -76.5t-71 -29.5q-41 0 -69.5 29.5t-28.5 76.5zM670 1708q0 49 28.5 78t69.5 29q43 0 71.5 -29t28.5 -78q0 -47 -28.5 -76.5 t-71.5 -29.5q-41 0 -69.5 29.5t-28.5 76.5z" />
<glyph unicode="&#x179;" horiz-adv-x="1185" d="M102 102l807 1219h-786v119h944v-103l-809 -1218h834v-119h-990v102zM827 1882l53 -119l-477 -200l-41 90z" />
<glyph unicode="&#x17a;" horiz-adv-x="987" d="M115 84l608 838h-600v104h751v-86l-610 -838h617v-102h-766v84zM723 1534l57 -115l-465 -215l-43 88z" />
<glyph unicode="&#x17b;" horiz-adv-x="1185" d="M102 102l807 1219h-786v119h944v-103l-809 -1218h834v-119h-990v102zM504 1698q0 47 28.5 75.5t69.5 28.5t67.5 -28.5t26.5 -75.5t-26.5 -74t-67.5 -27t-69.5 27t-28.5 74z" />
<glyph unicode="&#x17c;" horiz-adv-x="987" d="M115 84l608 838h-600v104h751v-86l-610 -838h617v-102h-766v84zM416 1311q0 45 26.5 72.5t67.5 27.5t65.5 -27.5t24.5 -72.5t-24.5 -72t-65.5 -27t-67.5 27t-26.5 72z" />
<glyph unicode="&#x17d;" horiz-adv-x="1185" d="M102 102l807 1219h-786v119h944v-103l-809 -1218h834v-119h-990v102zM557 1561l-291 249l68 72l280 -201l281 201l67 -72l-290 -249h-115z" />
<glyph unicode="&#x17e;" horiz-adv-x="987" d="M115 84l608 838h-600v104h751v-86l-610 -838h617v-102h-766v84zM526 1307l256 200l70 -65l-275 -258h-104l-276 258l71 65z" />
<glyph unicode="&#x17f;" horiz-adv-x="471" d="M166 1126q0 94 17.5 172t58.5 134.5t108.5 87t165.5 30.5q53 0 96 -7t66 -13l-14 -100q-16 4 -51 8t-70 4q-76 0 -125 -18.5t-79 -59.5t-41 -105.5t-11 -158.5v-1100h-121v1126z" />
<glyph unicode="&#x192;" horiz-adv-x="1212" d="M510 774h-207l8 103h209l23 264q16 193 115.5 301t289.5 108q59 0 104.5 -9t67.5 -15l-28 -101q-16 4 -53.5 10.5t-82.5 6.5q-80 0 -134 -23.5t-88 -69.5t-50 -112t-25 -152l-16 -208h318l-7 -103h-321l-72 -831q-18 -205 -112.5 -310.5t-284.5 -105.5q-16 0 -39 2 t-45.5 5t-43 8t-34.5 9l23 101q31 -6 69.5 -12.5t67.5 -6.5q74 0 124 20.5t81.5 63.5t48 112t24.5 165z" />
<glyph unicode="&#x1a0;" horiz-adv-x="1503" d="M141 721q0 168 40 306t118 236.5t192.5 152.5t262.5 54q90 0 165.5 -20t139.5 -57q72 2 99.5 33.5t27.5 84.5q0 49 -13.5 89t-29.5 67h129q14 -29 25.5 -76t11.5 -84q0 -160 -144 -198q98 -100 147.5 -250t49.5 -338q0 -168 -40 -306.5t-117 -237.5t-191.5 -153.5 t-261.5 -54.5t-262 54.5t-192 153.5t-117 237.5t-40 306.5zM276 721q0 -143 29 -259t88.5 -199t148.5 -128t210 -45t210 45t148 128t88 199t29 259t-29 259t-88 198t-148.5 127t-209.5 45q-121 0 -210 -45t-148.5 -127t-88.5 -198t-29 -259z" />
<glyph unicode="&#x1a1;" horiz-adv-x="1196" d="M1079 1085q0 -76 -36.5 -121.5t-104.5 -66.5q59 -72 91 -171t32 -216t-31 -215t-89 -169t-146 -110t-201 -39q-115 0 -203 39t-146.5 110t-88 169t-29.5 215t30.5 214t89 168t145.5 110.5t202 39.5q143 0 248 -63q66 4 93.5 30.5t27.5 75.5t-12.5 88t-28.5 66h120 q14 -29 25.5 -73t11.5 -81zM594 88q176 0 260 113.5t84 308.5q0 190 -85 306t-259 116q-172 0 -257 -116t-85 -306q0 -195 84 -308.5t258 -113.5z" />
<glyph unicode="&#x1af;" horiz-adv-x="1345" d="M666 -33q-147 0 -242.5 44t-153 124t-80 189.5t-22.5 240.5v875h129v-846q0 -145 22.5 -243.5t68.5 -157t116.5 -83t165.5 -24.5q94 0 163.5 24.5t115.5 83t69.5 155.5t23.5 243v848h93q45 0 70.5 27.5t25.5 70.5q0 41 -12.5 77t-22.5 58h121q10 -23 22.5 -61.5 t12.5 -81.5q0 -84 -47.5 -131t-133.5 -60v-776q0 -131 -23.5 -240.5t-81.5 -188.5t-155.5 -123t-244.5 -44z" />
<glyph unicode="&#x1b0;" horiz-adv-x="1202" d="M870 1016h74q55 0 87 24.5t32 73.5q0 33 -13.5 68t-25.5 57h121q10 -23 21.5 -56.5t11.5 -72.5q0 -74 -48.5 -124t-138.5 -60v-926h-112l-5 197q-49 -98 -138 -160t-230 -62q-168 0 -254 95.5t-86 281.5v664h121v-647q0 -80 18.5 -134.5t52 -87t79.5 -47t102 -14.5 q78 0 139 35t104 92t65.5 130t22.5 151v522z" />
<glyph unicode="&#x218;" horiz-adv-x="1142" d="M506 690q-172 53 -264 146.5t-92 234.5q0 84 27.5 158t84.5 129t143.5 87t202.5 32q55 0 112.5 -8.5t111 -22.5t98.5 -33.5t76 -40.5l-50 -106q-47 31 -141 61.5t-215 30.5q-156 0 -237.5 -72t-81.5 -199q0 -49 13 -87.5t44 -71.5t82 -59.5t127 -53.5l147 -51 q176 -61 255 -153.5t79 -237.5q0 -84 -29.5 -158t-88 -128t-147.5 -86t-206 -32q-88 0 -164 14.5t-136 35t-102 42t-61 35.5l53 107q29 -18 69 -38t91 -37t114.5 -28.5t137.5 -11.5q152 0 244 67.5t92 206.5q0 102 -59.5 172t-200.5 115zM677 -209q0 -86 -41 -168t-90 -139 l-63 39q29 43 51.5 97t26.5 87q-29 10 -54.5 35t-25.5 59q0 43 25.5 72t68.5 29q47 0 74.5 -31t27.5 -80z" />
<glyph unicode="&#x219;" horiz-adv-x="950" d="M139 164q51 -29 134 -55.5t200 -26.5q152 0 208 51t56 129q0 74 -45 121t-172 70l-110 20q-66 12 -119 31.5t-93 51.5t-61.5 78t-21.5 114q0 141 104.5 217.5t272.5 76.5q102 0 185 -22.5t132 -48.5l-43 -94q-45 23 -111.5 41t-156.5 18q-139 0 -204 -44t-65 -130 q0 -39 11.5 -67.5t37 -50t69.5 -37t110 -27.5l112 -21q61 -12 113.5 -33.5t90.5 -55.5t59.5 -80t21.5 -109q0 -139 -99.5 -221.5t-279.5 -82.5q-127 0 -229.5 31t-149.5 62zM573 -209q0 -86 -42 -168t-91 -139l-59 39q29 43 50.5 98t25.5 88q-23 8 -49.5 33t-26.5 61 q0 45 26.5 71t65.5 26q47 0 73.5 -31t26.5 -78z" />
<glyph unicode="&#x21a;" horiz-adv-x="1157" d="M514 1319h-442v121h1011v-121h-440v-1319h-129v1319zM673 -209q0 -86 -41 -168t-90 -139l-63 39q29 43 51.5 97t26.5 87q-29 10 -54.5 35t-25.5 59q0 43 25.5 72t68.5 29q47 0 74.5 -31t27.5 -80z" />
<glyph unicode="&#x21b;" horiz-adv-x="804" d="M625 96q29 0 53 2t43 6l12 -98q-20 -6 -61 -12t-90 -6q-164 0 -232.5 77.5t-68.5 217.5v626h-211v107h211v299l120 33v-332h310v-107h-310v-592q0 -70 14.5 -112.5t43 -67t71 -33t95.5 -8.5zM573 -209q0 -86 -42 -168t-91 -139l-59 39q29 43 50.5 98t25.5 88 q-23 8 -49.5 33t-26.5 61q0 45 26.5 71t65.5 26q47 0 73.5 -31t26.5 -78z" />
<glyph unicode="&#x237;" horiz-adv-x="468" d="M295 -29q0 -215 -80 -322.5t-260 -107.5q-29 0 -67 5t-60 14l14 102q20 -4 48 -8t55 -4q74 0 119 21.5t69.5 66.5t32.5 113.5t8 162.5v1002h121v-1045z" />
<glyph unicode="&#x2bc;" horiz-adv-x="559" d="M180 1427q0 49 30 79t71 30q47 0 73.5 -35t26.5 -90q0 -41 -12.5 -94t-36 -108.5t-55 -107.5t-68.5 -91l-59 47q23 31 41 66.5t32.5 72.5t22.5 72t10 59q-29 8 -52.5 32.5t-23.5 67.5z" />
<glyph unicode="&#x2c6;" horiz-adv-x="1034" d="M195 1253l276 258h102l277 -258l-70 -65l-258 201l-258 -201z" />
<glyph unicode="&#x2c7;" horiz-adv-x="1034" d="M524 1307l256 200l70 -65l-275 -258h-104l-276 258l71 65z" />
<glyph unicode="&#x2c9;" horiz-adv-x="1034" d="M227 1257v109h582v-109h-582z" />
<glyph unicode="&#x2d8;" horiz-adv-x="1034" d="M512 1280q88 0 136 45t48 139h111q0 -59 -17.5 -110t-53.5 -91t-92 -62.5t-134 -22.5q-80 0 -136.5 22.5t-92 61t-52 91t-16.5 111.5h115q0 -94 49 -139t135 -45z" />
<glyph unicode="&#x2d9;" horiz-adv-x="1034" d="M424 1311q0 45 26.5 72.5t67.5 27.5t65.5 -27.5t24.5 -72.5t-24.5 -72t-65.5 -27t-67.5 27t-26.5 72z" />
<glyph unicode="&#x2da;" horiz-adv-x="1034" d="M735 1380q0 -98 -60.5 -154.5t-154.5 -56.5q-96 0 -157.5 56.5t-61.5 152.5q0 98 63.5 154.5t155.5 56.5q96 0 155.5 -56.5t59.5 -152.5zM643 1378q0 59 -35 93t-90 34q-51 0 -87 -32.5t-36 -94.5q0 -59 35 -93t88 -34q55 0 90 34t35 93z" />
<glyph unicode="&#x2db;" horiz-adv-x="1034" d="M621 -365q-14 -2 -22.5 -3t-29.5 -1q-86 0 -143 35t-57 117q0 66 36.5 118t96.5 99h112q-53 -41 -93 -90t-40 -107q0 -41 24.5 -63.5t80.5 -22.5q27 0 35 2v-84z" />
<glyph unicode="&#x2dc;" horiz-adv-x="1034" d="M360 1421q51 0 89 -18.5t70 -42t63.5 -42t70.5 -18.5q51 0 71.5 32t20.5 87h109q0 -111 -51 -169t-150 -58q-49 0 -86 18.5t-70.5 41t-64.5 41t-67 18.5q-51 0 -73 -31t-22 -86h-108q0 106 50 166.5t148 60.5z" />
<glyph unicode="&#x2dd;" horiz-adv-x="1034" d="M524 1227l289 329l90 -81l-305 -314zM117 1227l289 329l90 -81l-306 -314z" />
<glyph unicode="&#x394;" horiz-adv-x="1179" d="M35 0l483 1440h139l488 -1440h-1110zM195 117h778l-389 1177z" />
<glyph unicode="&#x3a9;" horiz-adv-x="1605" d="M809 1350q-111 0 -199 -38t-151.5 -115t-97 -191.5t-33.5 -270.5q0 -141 28.5 -246.5t74.5 -181.5t102.5 -126t111.5 -81v-100h-514v115h320q-35 31 -79 83t-84 128.5t-67.5 178t-27.5 230.5q0 152 37.5 286t114.5 233.5t192.5 157.5t273.5 58q154 0 266.5 -58 t187 -158.5t111.5 -234.5t37 -286q0 -123 -26.5 -224t-66.5 -178t-86 -131.5t-85 -84.5h328v-115h-514v100q57 33 113.5 84.5t101.5 126t72.5 178t27.5 244.5q0 299 -127 458t-342 159z" />
<glyph unicode="&#x3bc;" horiz-adv-x="1155" d="M166 1016h121v-645q0 -78 18.5 -132.5t52 -88t79.5 -49t102 -15.5q80 0 141 35t103 93t64.5 133t22.5 157v512h121v-1016h-112l-5 197q-16 -33 -44.5 -72t-70.5 -72t-99.5 -55.5t-131.5 -22.5q-86 0 -150.5 38t-92.5 79v-543h-119v1467z" />
<glyph unicode="&#x3c0;" horiz-adv-x="1304" d="M1126 96q31 0 49.5 2t28.5 6l10 -100q-20 -4 -55 -10t-69 -6q-115 0 -169.5 64.5t-54.5 215.5v647h-440v-915h-121v915h-221v111h1126v-111h-221v-624q0 -61 8.5 -99t25.5 -59.5t42.5 -29t60.5 -7.5z" />
<glyph unicode="&#x1e80;" horiz-adv-x="1572" d="M483 0h-141l-311 1440h133l260 -1247l299 1212h127l291 -1210l270 1245h131l-328 -1440h-143l-287 1198zM993 1563l-477 200l53 119l465 -229z" />
<glyph unicode="&#x1e81;" horiz-adv-x="1400" d="M45 1016h129l250 -881l219 850h125l219 -850l248 881h121l-305 -1016h-131l-218 836l-219 -836h-131zM893 1204l-463 215l58 115l450 -242z" />
<glyph unicode="&#x1e82;" horiz-adv-x="1572" d="M483 0h-141l-311 1440h133l260 -1247l299 1212h127l291 -1210l270 1245h131l-328 -1440h-143l-287 1198zM1020 1882l53 -119l-477 -200l-41 90z" />
<glyph unicode="&#x1e83;" horiz-adv-x="1400" d="M45 1016h129l250 -881l219 850h125l219 -850l248 881h121l-305 -1016h-131l-218 836l-219 -836h-131zM922 1534l57 -115l-465 -215l-43 88z" />
<glyph unicode="&#x1e84;" horiz-adv-x="1572" d="M483 0h-141l-311 1440h133l260 -1247l299 1212h127l291 -1210l270 1245h131l-328 -1440h-143l-287 1198zM487 1708q0 49 28.5 78t69.5 29q43 0 71 -29t28 -78q0 -47 -28 -76.5t-71 -29.5q-41 0 -69.5 29.5t-28.5 76.5zM893 1708q0 49 28.5 78t69.5 29q43 0 71.5 -29 t28.5 -78q0 -47 -28.5 -76.5t-71.5 -29.5q-41 0 -69.5 29.5t-28.5 76.5z" />
<glyph unicode="&#x1e85;" horiz-adv-x="1400" d="M45 1016h129l250 -881l219 850h125l219 -850l248 881h121l-305 -1016h-131l-218 836l-219 -836h-131zM402 1311q0 47 27.5 74.5t68.5 27.5t67.5 -27.5t26.5 -74.5t-26.5 -75t-67.5 -28t-68.5 28t-27.5 75zM811 1311q0 47 27 74.5t68 27.5t68.5 -27.5t27.5 -74.5 t-27.5 -75t-68.5 -28t-68 28t-27 75z" />
<glyph unicode="&#x1ea0;" horiz-adv-x="1185" d="M883 401h-592l-129 -401h-123l481 1440h144l483 -1440h-133zM326 514h520l-258 778zM500 -297q0 45 26.5 72.5t67.5 27.5t65.5 -27.5t24.5 -72.5t-24.5 -72t-65.5 -27t-67.5 27t-26.5 72z" />
<glyph unicode="&#x1ea1;" horiz-adv-x="1060" d="M780 492q-16 4 -45.5 9t-68.5 9t-84 7t-88 3q-152 0 -212.5 -63.5t-60.5 -173.5q0 -106 67.5 -157.5t176.5 -51.5q63 0 120.5 23.5t100.5 61.5t68.5 87t25.5 100v146zM418 -25q-53 0 -109.5 15.5t-101.5 50.5t-74 94.5t-29 145.5q0 147 94.5 240t284.5 93q45 0 92.5 -3 t87 -8t70.5 -10t47 -7v100q0 133 -75.5 190.5t-217.5 57.5q-102 0 -169.5 -23.5t-110.5 -46.5l-39 90q39 23 127 54.5t223 31.5q180 0 278.5 -85t98.5 -259v-696h-109l-4 156q-31 -51 -71.5 -86t-89 -55.5t-100.5 -30t-103 -9.5zM438 -297q0 45 26.5 72.5t67.5 27.5 t65.5 -27.5t24.5 -72.5t-24.5 -72t-65.5 -27t-67.5 27t-26.5 72z" />
<glyph unicode="&#x1ea2;" horiz-adv-x="1185" d="M883 401h-592l-129 -401h-123l481 1440h144l483 -1440h-133zM326 514h520l-258 778zM549 1935q55 0 91 -13t57.5 -34.5t30.5 -50.5t9 -57q0 -70 -41 -121t-92 -98l-67 57q29 29 55.5 62.5t26.5 74.5q0 76 -86 76q-25 0 -46.5 -4t-37.5 -8v102q16 4 43.5 9t56.5 5z" />
<glyph unicode="&#x1ea3;" horiz-adv-x="1060" d="M780 492q-16 4 -45.5 9t-68.5 9t-84 7t-88 3q-152 0 -212.5 -63.5t-60.5 -173.5q0 -106 67.5 -157.5t176.5 -51.5q63 0 120.5 23.5t100.5 61.5t68.5 87t25.5 100v146zM418 -25q-53 0 -109.5 15.5t-101.5 50.5t-74 94.5t-29 145.5q0 147 94.5 240t284.5 93q45 0 92.5 -3 t87 -8t70.5 -10t47 -7v100q0 133 -75.5 190.5t-217.5 57.5q-102 0 -169.5 -23.5t-110.5 -46.5l-39 90q39 23 127 54.5t223 31.5q180 0 278.5 -85t98.5 -259v-696h-109l-4 156q-31 -51 -71.5 -86t-89 -55.5t-100.5 -30t-103 -9.5zM539 1378q0 33 -21.5 54.5t-66.5 21.5 q-27 0 -50.5 -2t-37.5 -6v104q41 10 113 11q53 0 89 -14.5t58.5 -37t31.5 -50t9 -56.5q0 -70 -41 -121t-92 -98l-68 55q29 27 52.5 63.5t23.5 75.5z" />
<glyph unicode="&#x1ea4;" horiz-adv-x="1185" d="M883 381h-590l-131 -381h-123l481 1380h144l483 -1380h-133zM332 494h512l-256 745zM858 1450l-269 178l-268 -178l-68 70l279 231h115l278 -231zM839 1683l-51 91l262 161l58 -104z" />
<glyph unicode="&#x1ea5;" horiz-adv-x="1060" d="M780 492q-16 4 -45.5 9t-68.5 9t-84 7t-88 3q-152 0 -212.5 -63.5t-60.5 -173.5q0 -106 67.5 -157.5t176.5 -51.5q63 0 120.5 23.5t100.5 61.5t68.5 87t25.5 100v146zM418 -25q-53 0 -109.5 15.5t-101.5 50.5t-74 94.5t-29 145.5q0 147 94.5 240t284.5 93q45 0 92.5 -3 t87 -8t70.5 -10t47 -7v100q0 133 -75.5 190.5t-217.5 57.5q-102 0 -169.5 -23.5t-110.5 -46.5l-39 90q39 23 127 54.5t223 31.5q180 0 278.5 -85t98.5 -259v-696h-109l-4 156q-31 -51 -71.5 -86t-89 -55.5t-100.5 -30t-103 -9.5zM758 1163l-244 183l-244 -183l-69 68 l262 235h102l262 -235zM762 1389l-52 86l271 165l55 -100z" />
<glyph unicode="&#x1ea6;" horiz-adv-x="1185" d="M883 381h-590l-131 -381h-123l481 1380h144l483 -1380h-133zM332 494h512l-256 745zM249 1520l279 227h115l278 -227l-67 -70l-269 174l-268 -174zM716 1851l84 84l248 -252l-76 -71z" />
<glyph unicode="&#x1ea7;" horiz-adv-x="1060" d="M780 492q-16 4 -45.5 9t-68.5 9t-84 7t-88 3q-152 0 -212.5 -63.5t-60.5 -173.5q0 -106 67.5 -157.5t176.5 -51.5q63 0 120.5 23.5t100.5 61.5t68.5 87t25.5 100v146zM418 -25q-53 0 -109.5 15.5t-101.5 50.5t-74 94.5t-29 145.5q0 147 94.5 240t284.5 93q45 0 92.5 -3 t87 -8t70.5 -10t47 -7v100q0 133 -75.5 190.5t-217.5 57.5q-102 0 -169.5 -23.5t-110.5 -46.5l-39 90q39 23 127 54.5t223 31.5q180 0 278.5 -85t98.5 -259v-696h-109l-4 156q-31 -51 -71.5 -86t-89 -55.5t-100.5 -30t-103 -9.5zM610 1565l93 77l243 -272l-80 -65zM817 1231 l-69 -68l-244 180l-244 -180l-69 68l262 233h102z" />
<glyph unicode="&#x1ea8;" horiz-adv-x="1185" d="M883 381h-590l-131 -381h-123l481 1380h144l483 -1380h-133zM332 494h512l-256 745zM928 1524l-59 -74l-277 172l-276 -172l-60 74l279 221h115zM799 1925q35 10 94 10q92 0 126 -41t34 -90q0 -59 -29.5 -98t-74.5 -80l-64 53q25 23 42.5 46.5t17.5 58.5q0 61 -74 61 q-41 0 -72 -10v90z" />
<glyph unicode="&#x1ea9;" horiz-adv-x="1060" d="M780 492q-16 4 -45.5 9t-68.5 9t-84 7t-88 3q-152 0 -212.5 -63.5t-60.5 -173.5q0 -106 67.5 -157.5t176.5 -51.5q63 0 120.5 23.5t100.5 61.5t68.5 87t25.5 100v146zM418 -25q-53 0 -109.5 15.5t-101.5 50.5t-74 94.5t-29 145.5q0 147 94.5 240t284.5 93q45 0 92.5 -3 t87 -8t70.5 -10t47 -7v100q0 133 -75.5 190.5t-217.5 57.5q-102 0 -169.5 -23.5t-110.5 -46.5l-39 90q39 23 127 54.5t223 31.5q180 0 278.5 -85t98.5 -259v-696h-109l-4 156q-31 -51 -71.5 -86t-89 -55.5t-100.5 -30t-103 -9.5zM200 1229l269 235h102l268 -235l-69 -66 l-250 178l-250 -178zM712 1630q16 4 41 7t54 3q45 0 75.5 -12t49 -32.5t26.5 -45t8 -49.5q0 -59 -30.5 -100t-75.5 -82l-64 53q25 23 42.5 48.5t17.5 60.5q0 29 -14.5 50t-55.5 21q-23 0 -43 -2t-31 -6v86z" />
<glyph unicode="&#x1eaa;" horiz-adv-x="1185" d="M883 381h-590l-131 -381h-123l481 1380h144l483 -1380h-133zM332 494h512l-256 745zM921 1493l-59 -76l-270 148l-271 -148l-59 76l272 182h115zM745 1729q-51 0 -90 15t-74 33l-67 32q-33 15 -70 16q-37 0 -56.5 -20.5t-19.5 -71.5h-104q0 102 41 152t131 50 q51 0 92 -14t76 -32.5t67.5 -33t71.5 -14.5q37 0 54.5 19.5t17.5 70.5h104q0 -106 -43 -154t-131 -48z" />
<glyph unicode="&#x1eab;" horiz-adv-x="1060" d="M780 492q-16 4 -45.5 9t-68.5 9t-84 7t-88 3q-152 0 -212.5 -63.5t-60.5 -173.5q0 -106 67.5 -157.5t176.5 -51.5q63 0 120.5 23.5t100.5 61.5t68.5 87t25.5 100v146zM418 -25q-53 0 -109.5 15.5t-101.5 50.5t-74 94.5t-29 145.5q0 147 94.5 240t284.5 93q45 0 92.5 -3 t87 -8t70.5 -10t47 -7v100q0 133 -75.5 190.5t-217.5 57.5q-102 0 -169.5 -23.5t-110.5 -46.5l-39 90q39 23 127 54.5t223 31.5q180 0 278.5 -85t98.5 -259v-696h-109l-4 156q-31 -51 -71.5 -86t-89 -55.5t-100.5 -30t-103 -9.5zM840 1221l-60 -74l-264 129l-264 -129 l-60 74l273 163h102zM194 1464q0 102 47.5 149.5t129.5 47.5q47 0 82.5 -15.5t68.5 -35t63.5 -34.5t67.5 -15q76 0 78 88h109q0 -102 -46.5 -149.5t-121.5 -47.5q-53 0 -91 15.5t-70 35t-62.5 34.5t-67.5 15q-76 0 -78 -88h-109z" />
<glyph unicode="&#x1eac;" horiz-adv-x="1185" d="M883 401h-592l-129 -401h-123l481 1440h144l483 -1440h-133zM326 514h520l-258 778zM869 1561l-281 198l-280 -198l-68 69l291 252h115l290 -252zM500 -297q0 45 26.5 72.5t67.5 27.5t65.5 -27.5t24.5 -72.5t-24.5 -72t-65.5 -27t-67.5 27t-26.5 72z" />
<glyph unicode="&#x1ead;" horiz-adv-x="1060" d="M780 492q-16 4 -45.5 9t-68.5 9t-84 7t-88 3q-152 0 -212.5 -63.5t-60.5 -173.5q0 -106 67.5 -157.5t176.5 -51.5q63 0 120.5 23.5t100.5 61.5t68.5 87t25.5 100v146zM418 -25q-53 0 -109.5 15.5t-101.5 50.5t-74 94.5t-29 145.5q0 147 94.5 240t284.5 93q45 0 92.5 -3 t87 -8t70.5 -10t47 -7v100q0 133 -75.5 190.5t-217.5 57.5q-102 0 -169.5 -23.5t-110.5 -46.5l-39 90q39 23 127 54.5t223 31.5q180 0 278.5 -85t98.5 -259v-696h-109l-4 156q-31 -51 -71.5 -86t-89 -55.5t-100.5 -30t-103 -9.5zM205 1253l276 258h102l277 -258l-70 -65 l-258 201l-258 -201zM447 -297q0 45 26.5 72.5t67.5 27.5t65.5 -27.5t24.5 -72.5t-24.5 -72t-65.5 -27t-67.5 27t-26.5 72z" />
<glyph unicode="&#x1eae;" horiz-adv-x="1185" d="M885 365h-594l-129 -365h-123l481 1343h144l483 -1343h-133zM330 477h514l-256 729zM565 1659l-63 80l235 196l74 -92zM590 1530q88 0 148.5 46t60.5 140h113q0 -59 -20.5 -111.5t-61.5 -92t-101.5 -63.5t-138.5 -24t-138.5 24t-101.5 63.5t-61.5 92t-20.5 111.5h113 q0 -94 60.5 -140t148.5 -46z" />
<glyph unicode="&#x1eaf;" horiz-adv-x="1060" d="M780 492q-16 4 -45.5 9t-68.5 9t-84 7t-88 3q-152 0 -212.5 -63.5t-60.5 -173.5q0 -106 67.5 -157.5t176.5 -51.5q63 0 120.5 23.5t100.5 61.5t68.5 87t25.5 100v146zM418 -25q-53 0 -109.5 15.5t-101.5 50.5t-74 94.5t-29 145.5q0 147 94.5 240t284.5 93q45 0 92.5 -3 t87 -8t70.5 -10t47 -7v100q0 133 -75.5 190.5t-217.5 57.5q-102 0 -169.5 -23.5t-110.5 -46.5l-39 90q39 23 127 54.5t223 31.5q180 0 278.5 -85t98.5 -259v-696h-109l-4 156q-31 -51 -71.5 -86t-89 -55.5t-100.5 -30t-103 -9.5zM714 1565l-215 -205l-73 70l200 210z M516 1243q86 0 144.5 46t58.5 141h110q0 -59 -19.5 -111.5t-58.5 -90.5t-97 -59.5t-138 -21.5t-138.5 21.5t-97.5 59.5t-58.5 90t-19.5 112h111q0 -94 58.5 -140.5t144.5 -46.5z" />
<glyph unicode="&#x1eb0;" horiz-adv-x="1185" d="M885 365h-594l-129 -365h-123l481 1343h144l483 -1343h-133zM330 477h514l-256 729zM369 1843l74 92l235 -196l-63 -80zM590 1530q88 0 148.5 46t60.5 140h113q0 -59 -20.5 -111.5t-61.5 -92t-101.5 -63.5t-138.5 -24t-138.5 24t-101.5 63.5t-61.5 92t-20.5 111.5h113 q0 -94 60.5 -140t148.5 -46z" />
<glyph unicode="&#x1eb1;" horiz-adv-x="1060" d="M780 492q-16 4 -45.5 9t-68.5 9t-84 7t-88 3q-152 0 -212.5 -63.5t-60.5 -173.5q0 -106 67.5 -157.5t176.5 -51.5q63 0 120.5 23.5t100.5 61.5t68.5 87t25.5 100v146zM418 -25q-53 0 -109.5 15.5t-101.5 50.5t-74 94.5t-29 145.5q0 147 94.5 240t284.5 93q45 0 92.5 -3 t87 -8t70.5 -10t47 -7v100q0 133 -75.5 190.5t-217.5 57.5q-102 0 -169.5 -23.5t-110.5 -46.5l-39 90q39 23 127 54.5t223 31.5q180 0 278.5 -85t98.5 -259v-696h-109l-4 156q-31 -51 -71.5 -86t-89 -55.5t-100.5 -30t-103 -9.5zM383 1640l201 -210l-74 -70l-215 205z M492 1243q86 0 144.5 46t58.5 141h110q0 -59 -19.5 -111.5t-58.5 -90.5t-97 -59.5t-138 -21.5t-138.5 21.5t-97.5 59.5t-58.5 90t-19.5 112h111q0 -94 58.5 -140.5t144.5 -46.5z" />
<glyph unicode="&#x1eb2;" horiz-adv-x="1185" d="M885 365h-594l-129 -365h-123l481 1343h144l483 -1343h-133zM330 477h514l-256 729zM455.5 1445.5q-58.5 20.5 -98 56.5t-62 83t-27.5 103h113q8 -84 66.5 -121t140.5 -37t140.5 37t66.5 121h112q-4 -55 -26.5 -102.5t-62.5 -83.5t-98 -56.5t-132 -20.5t-132.5 20.5z M463 1925q37 10 94 10q92 0 127 -38.5t35 -86.5q0 -61 -34 -101t-79 -81l-61 49q23 23 44 51.5t21 59.5q0 57 -75 57q-41 0 -72 -10v90z" />
<glyph unicode="&#x1eb3;" horiz-adv-x="1060" d="M780 492q-16 4 -45.5 9t-68.5 9t-84 7t-88 3q-152 0 -212.5 -63.5t-60.5 -173.5q0 -106 67.5 -157.5t176.5 -51.5q63 0 120.5 23.5t100.5 61.5t68.5 87t25.5 100v146zM418 -25q-53 0 -109.5 15.5t-101.5 50.5t-74 94.5t-29 145.5q0 147 94.5 240t284.5 93q45 0 92.5 -3 t87 -8t70.5 -10t47 -7v100q0 133 -75.5 190.5t-217.5 57.5q-102 0 -169.5 -23.5t-110.5 -46.5l-39 90q39 23 127 54.5t223 31.5q180 0 278.5 -85t98.5 -259v-696h-109l-4 156q-31 -51 -71.5 -86t-89 -55.5t-100.5 -30t-103 -9.5zM516 1497q0 55 -61 55q-27 0 -43.5 -2 t-26.5 -6v86q14 4 39.5 7t54.5 3q86 0 117 -37.5t31 -89.5q0 -55 -33 -95t-76 -79l-63 47q23 23 42 51.5t19 59.5zM277.5 1221.5q-76.5 74.5 -83.5 187.5h111q8 -84 65.5 -125t137.5 -41t137 41t66 125h110q-6 -113 -83 -187.5t-230 -74.5q-154 0 -230.5 74.5z" />
<glyph unicode="&#x1eb4;" horiz-adv-x="1185" d="M885 365h-594l-129 -365h-123l481 1343h144l483 -1343h-133zM330 477h514l-256 729zM723 1720q-45 0 -81 16.5t-67 35.5l-60 34q-28 16 -58 17q-35 0 -52.5 -20.5t-17.5 -71.5h-117q0 100 46.5 153t134.5 53q45 0 79.5 -15t65.5 -34l61 -35q30 -16 64 -16q39 0 56.5 20.5 t17.5 73.5h117q-1 -211 -189 -211zM909 1651q-16 -98 -96 -162t-223 -64t-222 62.5t-95 163.5h118q16 -66 68.5 -91.5t130.5 -25.5t131 26.5t70 90.5h118z" />
<glyph unicode="&#x1eb5;" horiz-adv-x="1060" d="M780 492q-16 4 -45.5 9t-68.5 9t-84 7t-88 3q-152 0 -212.5 -63.5t-60.5 -173.5q0 -106 67.5 -157.5t176.5 -51.5q63 0 120.5 23.5t100.5 61.5t68.5 87t25.5 100v146zM418 -25q-53 0 -109.5 15.5t-101.5 50.5t-74 94.5t-29 145.5q0 147 94.5 240t284.5 93q45 0 92.5 -3 t87 -8t70.5 -10t47 -7v100q0 133 -75.5 190.5t-217.5 57.5q-102 0 -169.5 -23.5t-110.5 -46.5l-39 90q39 23 127 54.5t223 31.5q180 0 278.5 -85t98.5 -259v-696h-109l-4 156q-31 -51 -71.5 -86t-89 -55.5t-100.5 -30t-103 -9.5zM496 1147q-154 0 -230.5 62.5t-83.5 176.5 h111q8 -84 65.5 -114.5t137.5 -30.5t137 31t66 114h110q-6 -115 -82.5 -177t-230.5 -62zM182 1475q0 102 47.5 149t129.5 47q45 0 78.5 -15.5t64.5 -34.5t60.5 -34.5t64.5 -15.5q76 0 78 88h108q0 -102 -46 -149.5t-122 -47.5q-49 0 -86 15.5t-67.5 35t-59 35t-63.5 15.5 q-76 0 -78 -88h-109z" />
<glyph unicode="&#x1eb6;" horiz-adv-x="1185" d="M883 401h-592l-129 -401h-123l481 1440h144l483 -1440h-133zM326 514h520l-258 778zM588 1659q88 0 137.5 49t49.5 143h114q0 -59 -18.5 -112t-55 -95t-94 -67t-137.5 -25t-137 25t-94 65.5t-54.5 95t-17.5 113.5h119q0 -94 51 -143t137 -49zM496 -297q0 45 26.5 72.5 t67.5 27.5t65.5 -27.5t24.5 -72.5t-24.5 -72t-65.5 -27t-67.5 27t-26.5 72z" />
<glyph unicode="&#x1eb7;" horiz-adv-x="1060" d="M780 492q-16 4 -45.5 9t-68.5 9t-84 7t-88 3q-152 0 -212.5 -63.5t-60.5 -173.5q0 -106 67.5 -157.5t176.5 -51.5q63 0 120.5 23.5t100.5 61.5t68.5 87t25.5 100v146zM418 -25q-53 0 -109.5 15.5t-101.5 50.5t-74 94.5t-29 145.5q0 147 94.5 240t284.5 93q45 0 92.5 -3 t87 -8t70.5 -10t47 -7v100q0 133 -75.5 190.5t-217.5 57.5q-102 0 -169.5 -23.5t-110.5 -46.5l-39 90q39 23 127 54.5t223 31.5q180 0 278.5 -85t98.5 -259v-696h-109l-4 156q-31 -51 -71.5 -86t-89 -55.5t-100.5 -30t-103 -9.5zM543 1280q88 0 136 45t48 139h111 q0 -59 -17.5 -110t-53.5 -91t-92 -62.5t-134 -22.5q-80 0 -136.5 22.5t-92 61t-52 91t-16.5 111.5h115q0 -94 49 -139t135 -45zM440 -297q0 45 26.5 72.5t67.5 27.5t65.5 -27.5t24.5 -72.5t-24.5 -72t-65.5 -27t-67.5 27t-26.5 72z" />
<glyph unicode="&#x1eb8;" horiz-adv-x="1069" d="M188 1440h795v-119h-666v-512h521v-119h-521v-571h687v-119h-816v1440zM506 -297q0 45 26.5 72.5t67.5 27.5t65.5 -27.5t24.5 -72.5t-24.5 -72t-65.5 -27t-67.5 27t-26.5 72z" />
<glyph unicode="&#x1eb9;" horiz-adv-x="1116" d="M629 88q96 0 160.5 19.5t103.5 35.5l35 -94q-31 -20 -113 -46t-199 -26q-248 0 -368.5 138.5t-120.5 392.5q0 121 30.5 220t88 169t140.5 107.5t187 37.5q98 0 176 -29.5t132.5 -96t83 -170t28.5 -250.5v-21h-745q10 -182 101.5 -284.5t279.5 -102.5zM872 573 q-12 174 -81.5 267.5t-219.5 93.5q-154 0 -229.5 -94.5t-91.5 -266.5h622zM494 -297q0 45 26.5 72.5t67.5 27.5t65.5 -27.5t24.5 -72.5t-24.5 -72t-65.5 -27t-67.5 27t-26.5 72z" />
<glyph unicode="&#x1eba;" horiz-adv-x="1069" d="M188 1440h795v-119h-666v-512h521v-119h-521v-571h687v-119h-816v1440zM518 1935q55 0 91 -13t57.5 -34.5t30.5 -50.5t9 -57q0 -70 -41 -121t-92 -98l-67 57q29 29 55.5 62.5t26.5 74.5q0 76 -86 76q-25 0 -46.5 -4t-37.5 -8v102q16 4 43.5 9t56.5 5z" />
<glyph unicode="&#x1ebb;" horiz-adv-x="1116" d="M629 88q96 0 160.5 19.5t103.5 35.5l35 -94q-31 -20 -113 -46t-199 -26q-248 0 -368.5 138.5t-120.5 392.5q0 121 30.5 220t88 169t140.5 107.5t187 37.5q98 0 176 -29.5t132.5 -96t83 -170t28.5 -250.5v-21h-745q10 -182 101.5 -284.5t279.5 -102.5zM872 573 q-12 174 -81.5 267.5t-219.5 93.5q-154 0 -229.5 -94.5t-91.5 -266.5h622zM571 1380q0 33 -21.5 54.5t-66.5 21.5q-27 0 -50.5 -2t-37.5 -6v104q41 10 113 11q53 0 89 -14.5t58.5 -37t31.5 -50t9 -56.5q0 -70 -41 -121t-92 -98l-68 55q29 27 52.5 63.5t23.5 75.5z" />
<glyph unicode="&#x1ebc;" horiz-adv-x="1069" d="M188 1440h795v-119h-666v-512h521v-119h-521v-571h687v-119h-816v1440zM413 1815q51 0 91 -18.5t74 -42t67 -42t71 -18.5q96 0 97 118h108q0 -115 -54 -171t-153 -56q-51 0 -89 18.5t-71.5 41t-66.5 41t-70 18.5q-100 0 -100 -117h-108q0 111 51 169.5t153 58.5z" />
<glyph unicode="&#x1ebd;" horiz-adv-x="1116" d="M629 88q96 0 160.5 19.5t103.5 35.5l35 -94q-31 -20 -113 -46t-199 -26q-248 0 -368.5 138.5t-120.5 392.5q0 121 30.5 220t88 169t140.5 107.5t187 37.5q98 0 176 -29.5t132.5 -96t83 -170t28.5 -250.5v-21h-745q10 -182 101.5 -284.5t279.5 -102.5zM872 573 q-12 174 -81.5 267.5t-219.5 93.5q-154 0 -229.5 -94.5t-91.5 -266.5h622zM409 1421q51 0 89 -18.5t70 -42t63.5 -42t70.5 -18.5q51 0 71.5 32t20.5 87h109q0 -111 -51 -169t-150 -58q-49 0 -86 18.5t-70.5 41t-64.5 41t-67 18.5q-51 0 -73 -31t-22 -86h-108q0 106 50 166.5 t148 60.5z" />
<glyph unicode="&#x1ebe;" horiz-adv-x="1069" d="M188 1380h795v-118h-666v-484h521v-119h-521v-540h687v-119h-816v1380zM879 1450l-269 178l-268 -178l-68 70l279 231h115l278 -231zM860 1683l-51 91l262 161l58 -104z" />
<glyph unicode="&#x1ebf;" horiz-adv-x="1116" d="M629 88q96 0 160.5 19.5t103.5 35.5l35 -94q-31 -20 -113 -46t-199 -26q-248 0 -368.5 138.5t-120.5 392.5q0 121 30.5 220t88 169t140.5 107.5t187 37.5q98 0 176 -29.5t132.5 -96t83 -170t28.5 -250.5v-21h-745q10 -182 101.5 -284.5t279.5 -102.5zM872 573 q-12 174 -81.5 267.5t-219.5 93.5q-154 0 -229.5 -94.5t-91.5 -266.5h622zM813 1163l-244 183l-244 -183l-69 68l262 235h102l262 -235zM817 1389l-52 86l271 165l55 -100z" />
<glyph unicode="&#x1ec0;" horiz-adv-x="1069" d="M188 1380h795v-118h-666v-484h521v-119h-521v-540h687v-119h-816v1380zM229 1520l279 227h115l278 -227l-67 -70l-269 174l-268 -174zM696 1851l84 84l248 -252l-76 -71z" />
<glyph unicode="&#x1ec1;" horiz-adv-x="1116" d="M629 88q96 0 160.5 19.5t103.5 35.5l35 -94q-31 -20 -113 -46t-199 -26q-248 0 -368.5 138.5t-120.5 392.5q0 121 30.5 220t88 169t140.5 107.5t187 37.5q98 0 176 -29.5t132.5 -96t83 -170t28.5 -250.5v-21h-745q10 -182 101.5 -284.5t279.5 -102.5zM872 573 q-12 174 -81.5 267.5t-219.5 93.5q-154 0 -229.5 -94.5t-91.5 -266.5h622zM671 1565l93 77l243 -272l-80 -65zM878 1231l-69 -68l-244 180l-244 -180l-69 68l262 233h102z" />
<glyph unicode="&#x1ec2;" horiz-adv-x="1069" d="M188 1380h795v-118h-666v-484h521v-119h-521v-540h687v-119h-816v1380zM925 1524l-59 -74l-277 172l-276 -172l-60 74l279 221h115zM796 1925q35 10 94 10q92 0 126 -41t34 -90q0 -59 -29.5 -98t-74.5 -80l-64 53q25 23 42.5 46.5t17.5 58.5q0 61 -74 61q-41 0 -72 -10 v90z" />
<glyph unicode="&#x1ec3;" horiz-adv-x="1116" d="M629 88q96 0 160.5 19.5t103.5 35.5l35 -94q-31 -20 -113 -46t-199 -26q-248 0 -368.5 138.5t-120.5 392.5q0 121 30.5 220t88 169t140.5 107.5t187 37.5q98 0 176 -29.5t132.5 -96t83 -170t28.5 -250.5v-21h-745q10 -182 101.5 -284.5t279.5 -102.5zM872 573 q-12 174 -81.5 267.5t-219.5 93.5q-154 0 -229.5 -94.5t-91.5 -266.5h622zM249 1229l269 235h102l268 -235l-69 -66l-250 178l-250 -178zM761 1630q16 4 41 7t54 3q45 0 75.5 -12t49 -32.5t26.5 -45t8 -49.5q0 -59 -30.5 -100t-75.5 -82l-64 53q25 23 42.5 48.5t17.5 60.5 q0 29 -14.5 50t-55.5 21q-23 0 -43 -2t-31 -6v86z" />
<glyph unicode="&#x1ec4;" horiz-adv-x="1069" d="M188 1343h795v-118h-666v-465h521v-119h-521v-522h687v-119h-816v1343zM938 1493l-59 -76l-271 148l-270 -148l-59 76l272 182h115zM762 1729q-51 0 -90 15t-74 33l-68 32q-33 15 -69 16q-37 0 -56.5 -20.5t-19.5 -71.5h-104q0 102 40.5 152t131.5 50q51 0 92 -14 t75.5 -32.5t67.5 -33t72 -14.5q37 0 54 19.5t17 70.5h105q0 -106 -43 -154t-131 -48z" />
<glyph unicode="&#x1ec5;" horiz-adv-x="1116" d="M629 88q96 0 160.5 19.5t103.5 35.5l35 -94q-31 -20 -113 -46t-199 -26q-248 0 -368.5 138.5t-120.5 392.5q0 121 30.5 220t88 169t140.5 107.5t187 37.5q98 0 176 -29.5t132.5 -96t83 -170t28.5 -250.5v-21h-745q10 -182 101.5 -284.5t279.5 -102.5zM872 573 q-12 174 -81.5 267.5t-219.5 93.5q-154 0 -229.5 -94.5t-91.5 -266.5h622zM897 1221l-60 -74l-264 129l-264 -129l-60 74l273 163h102zM251 1464q0 102 47.5 149.5t129.5 47.5q47 0 82.5 -15.5t68.5 -35t63.5 -34.5t67.5 -15q76 0 78 88h109q0 -102 -46.5 -149.5 t-121.5 -47.5q-53 0 -91 15.5t-70 35t-62.5 34.5t-67.5 15q-76 0 -78 -88h-109z" />
<glyph unicode="&#x1ec6;" horiz-adv-x="1069" d="M188 1440h795v-119h-666v-512h521v-119h-521v-571h687v-119h-816v1440zM885 1561l-281 198l-280 -198l-68 69l291 252h115l290 -252zM506 -297q0 45 26.5 72.5t67.5 27.5t65.5 -27.5t24.5 -72.5t-24.5 -72t-65.5 -27t-67.5 27t-26.5 72z" />
<glyph unicode="&#x1ec7;" horiz-adv-x="1116" d="M629 88q96 0 160.5 19.5t103.5 35.5l35 -94q-31 -20 -113 -46t-199 -26q-248 0 -368.5 138.5t-120.5 392.5q0 121 30.5 220t88 169t140.5 107.5t187 37.5q98 0 176 -29.5t132.5 -96t83 -170t28.5 -250.5v-21h-745q10 -182 101.5 -284.5t279.5 -102.5zM872 573 q-12 174 -81.5 267.5t-219.5 93.5q-154 0 -229.5 -94.5t-91.5 -266.5h622zM256 1253l276 258h102l277 -258l-70 -65l-258 201l-258 -201zM490 -297q0 45 26.5 72.5t67.5 27.5t65.5 -27.5t24.5 -72.5t-24.5 -72t-65.5 -27t-67.5 27t-26.5 72z" />
<glyph unicode="&#x1ec8;" horiz-adv-x="505" d="M317 0h-129v1440h129v-1440zM211 1935q55 0 91 -13t57.5 -34.5t30.5 -50.5t9 -57q0 -70 -41 -121t-92 -98l-67 57q29 29 55.5 62.5t26.5 74.5q0 76 -86 76q-25 0 -46.5 -4t-37.5 -8v102q16 4 43.5 9t56.5 5z" />
<glyph unicode="&#x1ec9;" horiz-adv-x="468" d="M172 1016h123v-1016h-123v1016zM260 1378q0 33 -21.5 54.5t-66.5 21.5q-27 0 -50.5 -2t-37.5 -6v104q41 10 113 11q53 0 89 -14.5t58.5 -37t31.5 -50t9 -56.5q0 -70 -41 -121t-92 -98l-68 55q29 27 52.5 63.5t23.5 75.5z" />
<glyph unicode="&#x1eca;" horiz-adv-x="505" d="M317 0h-129v1440h129v-1440zM162 -297q0 45 26.5 72.5t67.5 27.5t65.5 -27.5t24.5 -72.5t-24.5 -72t-65.5 -27t-67.5 27t-26.5 72z" />
<glyph unicode="&#x1ecb;" horiz-adv-x="468" d="M174 1016h121v-1016h-121v1016zM141 1356q0 45 26 72.5t66 27.5q41 0 68 -27.5t27 -72.5q0 -47 -27 -74t-68 -27t-66.5 28t-25.5 73zM143 -297q0 45 26.5 72.5t67.5 27.5t65.5 -27.5t24.5 -72.5t-24.5 -72t-65.5 -27t-67.5 27t-26.5 72z" />
<glyph unicode="&#x1ecc;" horiz-adv-x="1503" d="M141 721q0 168 40 306t118 236.5t192.5 152.5t262.5 54q147 0 260.5 -54t190.5 -152.5t117 -236.5t40 -306t-40 -306.5t-117 -237.5t-191.5 -153.5t-261.5 -54.5t-262 54.5t-192 153.5t-117 237.5t-40 306.5zM276 721q0 -143 29 -259t88.5 -199t148.5 -128t210 -45 t210 45t148 128t88 199t29 259t-29 259t-88 198t-148.5 127t-209.5 45q-121 0 -210 -45t-148.5 -127t-88.5 -198t-29 -259zM662 -297q0 45 26.5 72.5t67.5 27.5t65.5 -27.5t24.5 -72.5t-24.5 -72t-65.5 -27t-67.5 27t-26.5 72z" />
<glyph unicode="&#x1ecd;" horiz-adv-x="1189" d="M594 88q176 0 260 113.5t84 308.5q0 190 -85 306t-259 116q-172 0 -257 -116t-85 -306q0 -195 84 -308.5t258 -113.5zM594 1042q117 0 204 -39.5t145 -110.5t88 -168t30 -214t-31 -215t-89 -169t-146 -110t-201 -39q-115 0 -203 39t-146.5 110t-88 169t-29.5 215 t30.5 214t89 168t145.5 110.5t202 39.5zM502 -297q0 45 26.5 72.5t67.5 27.5t65.5 -27.5t24.5 -72.5t-24.5 -72t-65.5 -27t-67.5 27t-26.5 72z" />
<glyph unicode="&#x1ece;" horiz-adv-x="1503" d="M141 721q0 168 40 306t118 236.5t192.5 152.5t262.5 54q147 0 260.5 -54t190.5 -152.5t117 -236.5t40 -306t-40 -306.5t-117 -237.5t-191.5 -153.5t-261.5 -54.5t-262 54.5t-192 153.5t-117 237.5t-40 306.5zM276 721q0 -143 29 -259t88.5 -199t148.5 -128t210 -45 t210 45t148 128t88 199t29 259t-29 259t-88 198t-148.5 127t-209.5 45q-121 0 -210 -45t-148.5 -127t-88.5 -198t-29 -259zM725 1935q55 0 91 -13t57.5 -34.5t30.5 -50.5t9 -57q0 -70 -41 -121t-92 -98l-67 57q29 29 55.5 62.5t26.5 74.5q0 76 -86 76q-25 0 -46.5 -4 t-37.5 -8v102q16 4 43.5 9t56.5 5z" />
<glyph unicode="&#x1ecf;" horiz-adv-x="1189" d="M594 88q176 0 260 113.5t84 308.5q0 190 -85 306t-259 116q-172 0 -257 -116t-85 -306q0 -195 84 -308.5t258 -113.5zM594 1042q117 0 204 -39.5t145 -110.5t88 -168t30 -214t-31 -215t-89 -169t-146 -110t-201 -39q-115 0 -203 39t-146.5 110t-88 169t-29.5 215 t30.5 214t89 168t145.5 110.5t202 39.5zM645 1378q0 33 -21.5 54.5t-66.5 21.5q-27 0 -50.5 -2t-37.5 -6v104q41 10 113 11q53 0 89 -14.5t58.5 -37t31.5 -50t9 -56.5q0 -70 -41 -121t-92 -98l-68 55q29 27 52.5 63.5t23.5 75.5z" />
<glyph unicode="&#x1ed0;" horiz-adv-x="1503" d="M141 692q0 162 41 294t120 226.5t192.5 146.5t259.5 52q145 0 257.5 -52t190.5 -146.5t119 -226.5t41 -294t-41 -295t-119 -228t-191.5 -147.5t-258.5 -52.5t-259 52.5t-192 147.5t-119 228t-41 295zM276 692q0 -137 30 -247.5t90.5 -189.5t149.5 -122t206 -43t206 43 t149 122t90 189.5t30 247.5t-30 248t-90 188.5t-149.5 119.5t-205.5 42q-117 0 -206 -42t-149.5 -120.5t-90.5 -189.5t-30 -246zM1024 1450l-269 178l-268 -178l-68 70l279 231h115l278 -231zM1005 1683l-51 91l262 161l58 -104z" />
<glyph unicode="&#x1ed1;" horiz-adv-x="1189" d="M594 88q176 0 260 113.5t84 308.5q0 190 -85 306t-259 116q-172 0 -257 -116t-85 -306q0 -195 84 -308.5t258 -113.5zM594 1042q117 0 204 -39.5t145 -110.5t88 -168t30 -214t-31 -215t-89 -169t-146 -110t-201 -39q-115 0 -203 39t-146.5 110t-88 169t-29.5 215 t30.5 214t89 168t145.5 110.5t202 39.5zM846 1163l-244 183l-244 -183l-69 68l262 235h102l262 -235zM850 1389l-52 86l271 165l55 -100z" />
<glyph unicode="&#x1ed2;" horiz-adv-x="1503" d="M141 692q0 162 41 294t120 226.5t192.5 146.5t259.5 52q145 0 257.5 -52t190.5 -146.5t119 -226.5t41 -294t-41 -295t-119 -228t-191.5 -147.5t-258.5 -52.5t-259 52.5t-192 147.5t-119 228t-41 295zM276 692q0 -137 30 -247.5t90.5 -189.5t149.5 -122t206 -43t206 43 t149 122t90 189.5t30 247.5t-30 248t-90 188.5t-149.5 119.5t-205.5 42q-117 0 -206 -42t-149.5 -120.5t-90.5 -189.5t-30 -246zM415 1520l279 227h115l278 -227l-67 -70l-269 174l-268 -174zM882 1851l84 84l248 -252l-76 -71z" />
<glyph unicode="&#x1ed3;" horiz-adv-x="1189" d="M594 88q176 0 260 113.5t84 308.5q0 190 -85 306t-259 116q-172 0 -257 -116t-85 -306q0 -195 84 -308.5t258 -113.5zM594 1042q117 0 204 -39.5t145 -110.5t88 -168t30 -214t-31 -215t-89 -169t-146 -110t-201 -39q-115 0 -203 39t-146.5 110t-88 169t-29.5 215 t30.5 214t89 168t145.5 110.5t202 39.5zM710 1565l93 77l243 -272l-80 -65zM917 1231l-69 -68l-244 180l-244 -180l-69 68l262 233h102z" />
<glyph unicode="&#x1ed4;" horiz-adv-x="1503" d="M141 692q0 162 41 294t120 226.5t192.5 146.5t259.5 52q145 0 257.5 -52t190.5 -146.5t119 -226.5t41 -294t-41 -295t-119 -228t-191.5 -147.5t-258.5 -52.5t-259 52.5t-192 147.5t-119 228t-41 295zM276 692q0 -137 30 -247.5t90.5 -189.5t149.5 -122t206 -43t206 43 t149 122t90 189.5t30 247.5t-30 248t-90 188.5t-149.5 119.5t-205.5 42q-117 0 -206 -42t-149.5 -120.5t-90.5 -189.5t-30 -246zM1102 1524l-59 -74l-277 172l-276 -172l-60 74l279 221h115zM973 1925q35 10 94 10q92 0 126 -41t34 -90q0 -59 -29.5 -98t-74.5 -80l-64 53 q25 23 42.5 46.5t17.5 58.5q0 61 -74 61q-41 0 -72 -10v90z" />
<glyph unicode="&#x1ed5;" horiz-adv-x="1189" d="M594 88q176 0 260 113.5t84 308.5q0 190 -85 306t-259 116q-172 0 -257 -116t-85 -306q0 -195 84 -308.5t258 -113.5zM594 1042q117 0 204 -39.5t145 -110.5t88 -168t30 -214t-31 -215t-89 -169t-146 -110t-201 -39q-115 0 -203 39t-146.5 110t-88 169t-29.5 215 t30.5 214t89 168t145.5 110.5t202 39.5zM282 1229l269 235h102l268 -235l-69 -66l-250 178l-250 -178zM794 1630q16 4 41 7t54 3q45 0 75.5 -12t49 -32.5t26.5 -45t8 -49.5q0 -59 -30.5 -100t-75.5 -82l-64 53q25 23 42.5 48.5t17.5 60.5q0 29 -14.5 50t-55.5 21 q-23 0 -43 -2t-31 -6v86z" />
<glyph unicode="&#x1ed6;" horiz-adv-x="1503" d="M141 674q0 158 42 287t121 221t192.5 142t257.5 50q143 0 255.5 -50t190.5 -142t120 -221.5t42 -286.5q0 -158 -42 -288t-121 -222t-191.5 -143.5t-255.5 -51.5t-256 51.5t-192 143.5t-121 222t-42 288zM276 674q0 -133 31 -240.5t91.5 -184.5t149.5 -118t204 -41 t203.5 41t149 118t91.5 184.5t31 240.5t-31 240.5t-91.5 182t-149.5 115.5t-203 41q-115 0 -204 -41t-149.5 -116.5t-91.5 -183t-31 -238.5zM1083 1493l-59 -76l-270 148l-271 -148l-59 76l272 182h115zM907 1729q-51 0 -90 15t-74 33l-67 32q-33 15 -70 16 q-37 0 -56.5 -20.5t-19.5 -71.5h-104q0 102 41 152t131 50q51 0 92 -14t76 -32.5t67.5 -33t71.5 -14.5q37 0 54.5 19.5t17.5 70.5h104q0 -106 -43 -154t-131 -48z" />
<glyph unicode="&#x1ed7;" horiz-adv-x="1189" d="M594 88q176 0 260 113.5t84 308.5q0 190 -85 306t-259 116q-172 0 -257 -116t-85 -306q0 -195 84 -308.5t258 -113.5zM594 1042q117 0 204 -39.5t145 -110.5t88 -168t30 -214t-31 -215t-89 -169t-146 -110t-201 -39q-115 0 -203 39t-146.5 110t-88 169t-29.5 215 t30.5 214t89 168t145.5 110.5t202 39.5zM928 1221l-60 -74l-264 129l-264 -129l-60 74l273 163h102zM282 1464q0 102 47.5 149.5t129.5 47.5q47 0 82.5 -15.5t68.5 -35t63.5 -34.5t67.5 -15q76 0 78 88h109q0 -102 -46.5 -149.5t-121.5 -47.5q-53 0 -91 15.5t-70 35 t-62.5 34.5t-67.5 15q-76 0 -78 -88h-109z" />
<glyph unicode="&#x1ed8;" horiz-adv-x="1503" d="M141 721q0 168 40 306t118 236.5t192.5 152.5t262.5 54q147 0 260.5 -54t190.5 -152.5t117 -236.5t40 -306t-40 -306.5t-117 -237.5t-191.5 -153.5t-261.5 -54.5t-262 54.5t-192 153.5t-117 237.5t-40 306.5zM276 721q0 -143 29 -259t88.5 -199t148.5 -128t210 -45 t210 45t148 128t88 199t29 259t-29 259t-88 198t-148.5 127t-209.5 45q-121 0 -210 -45t-148.5 -127t-88.5 -198t-29 -259zM1032 1561l-281 198l-280 -198l-68 69l291 252h115l290 -252zM660 -297q0 45 26.5 72.5t67.5 27.5t65.5 -27.5t24.5 -72.5t-24.5 -72t-65.5 -27 t-67.5 27t-26.5 72z" />
<glyph unicode="&#x1ed9;" horiz-adv-x="1189" d="M594 88q176 0 260 113.5t84 308.5q0 190 -85 306t-259 116q-172 0 -257 -116t-85 -306q0 -195 84 -308.5t258 -113.5zM594 1042q117 0 204 -39.5t145 -110.5t88 -168t30 -214t-31 -215t-89 -169t-146 -110t-201 -39q-115 0 -203 39t-146.5 110t-88 169t-29.5 215 t30.5 214t89 168t145.5 110.5t202 39.5zM267 1253l276 258h102l277 -258l-70 -65l-258 201l-258 -201zM502 -297q0 45 26.5 72.5t67.5 27.5t65.5 -27.5t24.5 -72.5t-24.5 -72t-65.5 -27t-67.5 27t-26.5 72z" />
<glyph unicode="&#x1eda;" horiz-adv-x="1503" d="M141 721q0 168 40 306t118 236.5t192.5 152.5t262.5 54q90 0 165.5 -20t139.5 -57q72 2 99.5 33.5t27.5 84.5q0 49 -13.5 89t-29.5 67h129q14 -29 25.5 -76t11.5 -84q0 -160 -144 -198q98 -100 147.5 -250t49.5 -338q0 -168 -40 -306.5t-117 -237.5t-191.5 -153.5 t-261.5 -54.5t-262 54.5t-192 153.5t-117 237.5t-40 306.5zM276 721q0 -143 29 -259t88.5 -199t148.5 -128t210 -45t210 45t148 128t88 199t29 259t-29 259t-88 198t-148.5 127t-209.5 45q-121 0 -210 -45t-148.5 -127t-88.5 -198t-29 -259zM975 1882l53 -119l-477 -200 l-41 90z" />
<glyph unicode="&#x1edb;" horiz-adv-x="1196" d="M1079 1085q0 -76 -36.5 -121.5t-104.5 -66.5q59 -72 91 -171t32 -216t-31 -215t-89 -169t-146 -110t-201 -39q-115 0 -203 39t-146.5 110t-88 169t-29.5 215t30.5 214t89 168t145.5 110.5t202 39.5q143 0 248 -63q66 4 93.5 30.5t27.5 75.5t-12.5 88t-28.5 66h120 q14 -29 25.5 -73t11.5 -81zM594 88q176 0 260 113.5t84 308.5q0 190 -85 306t-259 116q-172 0 -257 -116t-85 -306q0 -195 84 -308.5t258 -113.5zM803 1534l57 -115l-465 -215l-43 88z" />
<glyph unicode="&#x1edc;" horiz-adv-x="1503" d="M141 721q0 168 40 306t118 236.5t192.5 152.5t262.5 54q90 0 165.5 -20t139.5 -57q72 2 99.5 33.5t27.5 84.5q0 49 -13.5 89t-29.5 67h129q14 -29 25.5 -76t11.5 -84q0 -160 -144 -198q98 -100 147.5 -250t49.5 -338q0 -168 -40 -306.5t-117 -237.5t-191.5 -153.5 t-261.5 -54.5t-262 54.5t-192 153.5t-117 237.5t-40 306.5zM276 721q0 -143 29 -259t88.5 -199t148.5 -128t210 -45t210 45t148 128t88 199t29 259t-29 259t-88 198t-148.5 127t-209.5 45q-121 0 -210 -45t-148.5 -127t-88.5 -198t-29 -259zM940 1563l-477 200l53 119 l465 -229z" />
<glyph unicode="&#x1edd;" horiz-adv-x="1196" d="M1079 1085q0 -76 -36.5 -121.5t-104.5 -66.5q59 -72 91 -171t32 -216t-31 -215t-89 -169t-146 -110t-201 -39q-115 0 -203 39t-146.5 110t-88 169t-29.5 215t30.5 214t89 168t145.5 110.5t202 39.5q143 0 248 -63q66 4 93.5 30.5t27.5 75.5t-12.5 88t-28.5 66h120 q14 -29 25.5 -73t11.5 -81zM594 88q176 0 260 113.5t84 308.5q0 190 -85 306t-259 116q-172 0 -257 -116t-85 -306q0 -195 84 -308.5t258 -113.5zM762 1204l-463 215l58 115l450 -242z" />
<glyph unicode="&#x1ede;" horiz-adv-x="1503" d="M141 721q0 168 40 306t118 236.5t192.5 152.5t262.5 54q90 0 165.5 -20t139.5 -57q72 2 99.5 33.5t27.5 84.5q0 49 -13.5 89t-29.5 67h129q14 -29 25.5 -76t11.5 -84q0 -160 -144 -198q98 -100 147.5 -250t49.5 -338q0 -168 -40 -306.5t-117 -237.5t-191.5 -153.5 t-261.5 -54.5t-262 54.5t-192 153.5t-117 237.5t-40 306.5zM276 721q0 -143 29 -259t88.5 -199t148.5 -128t210 -45t210 45t148 128t88 199t29 259t-29 259t-88 198t-148.5 127t-209.5 45q-121 0 -210 -45t-148.5 -127t-88.5 -198t-29 -259zM694 1935q55 0 91 -13 t57.5 -34.5t30.5 -50.5t9 -57q0 -70 -41 -121t-92 -98l-67 57q29 29 55.5 62.5t26.5 74.5q0 76 -86 76q-25 0 -46.5 -4t-37.5 -8v102q16 4 43.5 9t56.5 5z" />
<glyph unicode="&#x1edf;" horiz-adv-x="1196" d="M1079 1085q0 -76 -36.5 -121.5t-104.5 -66.5q59 -72 91 -171t32 -216t-31 -215t-89 -169t-146 -110t-201 -39q-115 0 -203 39t-146.5 110t-88 169t-29.5 215t30.5 214t89 168t145.5 110.5t202 39.5q143 0 248 -63q66 4 93.5 30.5t27.5 75.5t-12.5 88t-28.5 66h120 q14 -29 25.5 -73t11.5 -81zM594 88q176 0 260 113.5t84 308.5q0 190 -85 306t-259 116q-172 0 -257 -116t-85 -306q0 -195 84 -308.5t258 -113.5zM618 1378q0 33 -21.5 54.5t-66.5 21.5q-27 0 -50.5 -2t-37.5 -6v104q41 10 113 11q53 0 89 -14.5t58.5 -37t31.5 -50t9 -56.5 q0 -70 -41 -121t-92 -98l-68 55q29 27 52.5 63.5t23.5 75.5z" />
<glyph unicode="&#x1ee0;" horiz-adv-x="1503" d="M141 721q0 168 40 306t118 236.5t192.5 152.5t262.5 54q90 0 165.5 -20t139.5 -57q72 2 99.5 33.5t27.5 84.5q0 49 -13.5 89t-29.5 67h129q14 -29 25.5 -76t11.5 -84q0 -160 -144 -198q98 -100 147.5 -250t49.5 -338q0 -168 -40 -306.5t-117 -237.5t-191.5 -153.5 t-261.5 -54.5t-262 54.5t-192 153.5t-117 237.5t-40 306.5zM276 721q0 -143 29 -259t88.5 -199t148.5 -128t210 -45t210 45t148 128t88 199t29 259t-29 259t-88 198t-148.5 127t-209.5 45q-121 0 -210 -45t-148.5 -127t-88.5 -198t-29 -259zM550 1816q51 0 89 -18.5t70 -42 t63.5 -42t70.5 -18.5q51 0 71.5 32t20.5 87h109q0 -111 -51 -169t-150 -58q-49 0 -86 18.5t-70.5 41t-64.5 41t-67 18.5q-51 0 -73 -31t-22 -86h-108q0 106 50 166.5t148 60.5z" />
<glyph unicode="&#x1ee1;" horiz-adv-x="1196" d="M694 1300q45 0 62.5 32t17.5 87h107q0 -111 -42 -169t-128 -58q-43 0 -80 18.5t-71 41t-66.5 41t-63.5 18.5q-51 0 -71.5 -29t-20.5 -84h-107q0 106 48.5 164.5t146.5 58.5q43 0 79 -18.5t67.5 -42t61 -42t60.5 -18.5zM1079 1085q0 -76 -36.5 -121.5t-104.5 -66.5 q59 -72 91 -171t32 -216t-31 -215t-89 -169t-146 -110t-201 -39q-115 0 -203 39t-146.5 110t-88 169t-29.5 215t30.5 214t89 168t145.5 110.5t202 39.5q143 0 248 -63q66 4 93.5 30.5t27.5 75.5t-12.5 88t-28.5 66h120q14 -29 25.5 -73t11.5 -81zM594 88q176 0 260 113.5 t84 308.5q0 190 -85 306t-259 116q-172 0 -257 -116t-85 -306q0 -195 84 -308.5t258 -113.5z" />
<glyph unicode="&#x1ee2;" horiz-adv-x="1503" d="M141 721q0 168 40 306t118 236.5t192.5 152.5t262.5 54q90 0 165.5 -20t139.5 -57q72 2 99.5 33.5t27.5 84.5q0 49 -13.5 89t-29.5 67h129q14 -29 25.5 -76t11.5 -84q0 -160 -144 -198q98 -100 147.5 -250t49.5 -338q0 -168 -40 -306.5t-117 -237.5t-191.5 -153.5 t-261.5 -54.5t-262 54.5t-192 153.5t-117 237.5t-40 306.5zM276 721q0 -143 29 -259t88.5 -199t148.5 -128t210 -45t210 45t148 128t88 199t29 259t-29 259t-88 198t-148.5 127t-209.5 45q-121 0 -210 -45t-148.5 -127t-88.5 -198t-29 -259zM660 -297q0 45 26.5 72.5 t67.5 27.5t65.5 -27.5t24.5 -72.5t-24.5 -72t-65.5 -27t-67.5 27t-26.5 72z" />
<glyph unicode="&#x1ee3;" horiz-adv-x="1196" d="M1079 1085q0 -76 -36.5 -121.5t-104.5 -66.5q59 -72 91 -171t32 -216t-31 -215t-89 -169t-146 -110t-201 -39q-115 0 -203 39t-146.5 110t-88 169t-29.5 215t30.5 214t89 168t145.5 110.5t202 39.5q143 0 248 -63q66 4 93.5 30.5t27.5 75.5t-12.5 88t-28.5 66h120 q14 -29 25.5 -73t11.5 -81zM594 88q176 0 260 113.5t84 308.5q0 190 -85 306t-259 116q-172 0 -257 -116t-85 -306q0 -195 84 -308.5t258 -113.5zM502 -297q0 45 26.5 72.5t67.5 27.5t65.5 -27.5t24.5 -72.5t-24.5 -72t-65.5 -27t-67.5 27t-26.5 72z" />
<glyph unicode="&#x1ee4;" horiz-adv-x="1339" d="M666 -33q-147 0 -242.5 44t-153 124t-80 189.5t-22.5 240.5v875h129v-846q0 -145 22.5 -243.5t68.5 -157t116.5 -83t165.5 -24.5q94 0 163.5 24.5t115.5 83t69.5 155.5t23.5 243v848h129v-877q0 -131 -23.5 -240.5t-81.5 -188.5t-155.5 -123t-244.5 -44zM578 -297 q0 45 26.5 72.5t67.5 27.5t65.5 -27.5t24.5 -72.5t-24.5 -72t-65.5 -27t-67.5 27t-26.5 72z" />
<glyph unicode="&#x1ee5;" horiz-adv-x="1157" d="M870 1016h121v-1016h-112l-5 197q-49 -98 -138 -160t-230 -62q-168 0 -254 95.5t-86 281.5v664h121v-647q0 -80 18.5 -134.5t52 -87t79.5 -47t102 -14.5q78 0 139 35t104 92t65.5 130t22.5 151v522zM463 -297q0 45 26.5 72.5t67.5 27.5t65.5 -27.5t24.5 -72.5t-24.5 -72 t-65.5 -27t-67.5 27t-26.5 72z" />
<glyph unicode="&#x1ee6;" horiz-adv-x="1339" d="M666 -33q-147 0 -242.5 44t-153 124t-80 189.5t-22.5 240.5v875h129v-846q0 -145 22.5 -243.5t68.5 -157t116.5 -83t165.5 -24.5q94 0 163.5 24.5t115.5 83t69.5 155.5t23.5 243v848h129v-877q0 -131 -23.5 -240.5t-81.5 -188.5t-155.5 -123t-244.5 -44zM633 1935 q55 0 91 -13t57.5 -34.5t30.5 -50.5t9 -57q0 -70 -41 -121t-92 -98l-67 57q29 29 55.5 62.5t26.5 74.5q0 76 -86 76q-25 0 -46.5 -4t-37.5 -8v102q16 4 43.5 9t56.5 5z" />
<glyph unicode="&#x1ee7;" horiz-adv-x="1157" d="M870 1016h121v-1016h-112l-5 197q-49 -98 -138 -160t-230 -62q-168 0 -254 95.5t-86 281.5v664h121v-647q0 -80 18.5 -134.5t52 -87t79.5 -47t102 -14.5q78 0 139 35t104 92t65.5 130t22.5 151v522zM590 1378q0 33 -21.5 54.5t-66.5 21.5q-27 0 -50.5 -2t-37.5 -6v104 q41 10 113 11q53 0 89 -14.5t58.5 -37t31.5 -50t9 -56.5q0 -70 -41 -121t-92 -98l-68 55q29 27 52.5 63.5t23.5 75.5z" />
<glyph unicode="&#x1ee8;" horiz-adv-x="1345" d="M666 -33q-147 0 -242.5 44t-153 124t-80 189.5t-22.5 240.5v875h129v-846q0 -145 22.5 -243.5t68.5 -157t116.5 -83t165.5 -24.5q94 0 163.5 24.5t115.5 83t69.5 155.5t23.5 243v848h93q45 0 70.5 27.5t25.5 70.5q0 41 -12.5 77t-22.5 58h121q10 -23 22.5 -61.5 t12.5 -81.5q0 -84 -47.5 -131t-133.5 -60v-776q0 -131 -23.5 -240.5t-81.5 -188.5t-155.5 -123t-244.5 -44zM895 1882l53 -119l-477 -200l-41 90z" />
<glyph unicode="&#x1ee9;" horiz-adv-x="1202" d="M870 1016h74q55 0 87 24.5t32 73.5q0 33 -13.5 68t-25.5 57h121q10 -23 21.5 -56.5t11.5 -72.5q0 -74 -48.5 -124t-138.5 -60v-926h-112l-5 197q-49 -98 -138 -160t-230 -62q-168 0 -254 95.5t-86 281.5v664h121v-647q0 -80 18.5 -134.5t52 -87t79.5 -47t102 -14.5 q78 0 139 35t104 92t65.5 130t22.5 151v522zM829 1534l57 -115l-465 -215l-43 88z" />
<glyph unicode="&#x1eea;" horiz-adv-x="1345" d="M666 -33q-147 0 -242.5 44t-153 124t-80 189.5t-22.5 240.5v875h129v-846q0 -145 22.5 -243.5t68.5 -157t116.5 -83t165.5 -24.5q94 0 163.5 24.5t115.5 83t69.5 155.5t23.5 243v848h93q45 0 70.5 27.5t25.5 70.5q0 41 -12.5 77t-22.5 58h121q10 -23 22.5 -61.5 t12.5 -81.5q0 -84 -47.5 -131t-133.5 -60v-776q0 -131 -23.5 -240.5t-81.5 -188.5t-155.5 -123t-244.5 -44zM852 1561l-477 200l53 119l465 -229z" />
<glyph unicode="&#x1eeb;" horiz-adv-x="1202" d="M870 1016h74q55 0 87 24.5t32 73.5q0 33 -13.5 68t-25.5 57h121q10 -23 21.5 -56.5t11.5 -72.5q0 -74 -48.5 -124t-138.5 -60v-926h-112l-5 197q-49 -98 -138 -160t-230 -62q-168 0 -254 95.5t-86 281.5v664h121v-647q0 -80 18.5 -134.5t52 -87t79.5 -47t102 -14.5 q78 0 139 35t104 92t65.5 130t22.5 151v522zM786 1204l-463 215l58 115l450 -242z" />
<glyph unicode="&#x1eec;" horiz-adv-x="1345" d="M666 -33q-147 0 -242.5 44t-153 124t-80 189.5t-22.5 240.5v875h129v-846q0 -145 22.5 -243.5t68.5 -157t116.5 -83t165.5 -24.5q94 0 163.5 24.5t115.5 83t69.5 155.5t23.5 243v848h93q45 0 70.5 27.5t25.5 70.5q0 41 -12.5 77t-22.5 58h121q10 -23 22.5 -61.5 t12.5 -81.5q0 -84 -47.5 -131t-133.5 -60v-776q0 -131 -23.5 -240.5t-81.5 -188.5t-155.5 -123t-244.5 -44zM637 1935q55 0 91 -13t57.5 -34.5t30.5 -50.5t9 -57q0 -70 -41 -121t-92 -98l-67 57q29 29 55.5 62.5t26.5 74.5q0 76 -86 76q-25 0 -46.5 -4t-37.5 -8v102 q16 4 43.5 9t56.5 5z" />
<glyph unicode="&#x1eed;" horiz-adv-x="1202" d="M870 1016h74q55 0 87 24.5t32 73.5q0 33 -13.5 68t-25.5 57h121q10 -23 21.5 -56.5t11.5 -72.5q0 -74 -48.5 -124t-138.5 -60v-926h-112l-5 197q-49 -98 -138 -160t-230 -62q-168 0 -254 95.5t-86 281.5v664h121v-647q0 -80 18.5 -134.5t52 -87t79.5 -47t102 -14.5 q78 0 139 35t104 92t65.5 130t22.5 151v522zM606 1378q0 33 -21.5 54.5t-66.5 21.5q-27 0 -50.5 -2t-37.5 -6v104q41 10 113 11q53 0 89 -14.5t58.5 -37t31.5 -50t9 -56.5q0 -70 -41 -121t-92 -98l-68 55q29 27 52.5 63.5t23.5 75.5z" />
<glyph unicode="&#x1eee;" horiz-adv-x="1345" d="M666 -33q-147 0 -242.5 44t-153 124t-80 189.5t-22.5 240.5v875h129v-846q0 -145 22.5 -243.5t68.5 -157t116.5 -83t165.5 -24.5q94 0 163.5 24.5t115.5 83t69.5 155.5t23.5 243v848h93q45 0 70.5 27.5t25.5 70.5q0 41 -12.5 77t-22.5 58h121q10 -23 22.5 -61.5 t12.5 -81.5q0 -84 -47.5 -131t-133.5 -60v-776q0 -131 -23.5 -240.5t-81.5 -188.5t-155.5 -123t-244.5 -44zM559 1845q51 0 89 -18.5t70 -42t63.5 -42t70.5 -18.5q51 0 71.5 32t20.5 87h109q0 -111 -51 -169t-150 -58q-49 0 -86 18.5t-70.5 41t-64.5 41t-67 18.5 q-51 0 -73 -31t-22 -86h-108q0 106 50 166.5t148 60.5z" />
<glyph unicode="&#x1eef;" horiz-adv-x="1202" d="M870 1016h74q55 0 87 24.5t32 73.5q0 33 -13.5 68t-25.5 57h121q10 -23 21.5 -56.5t11.5 -72.5q0 -74 -48.5 -124t-138.5 -60v-926h-112l-5 197q-49 -98 -138 -160t-230 -62q-168 0 -254 95.5t-86 281.5v664h121v-647q0 -80 18.5 -134.5t52 -87t79.5 -47t102 -14.5 q78 0 139 35t104 92t65.5 130t22.5 151v522zM426 1421q51 0 89 -18.5t70 -42t63.5 -42t70.5 -18.5q51 0 71.5 32t20.5 87h109q0 -111 -51 -169t-150 -58q-49 0 -86 18.5t-70.5 41t-64.5 41t-67 18.5q-51 0 -73 -31t-22 -86h-108q0 106 50 166.5t148 60.5z" />
<glyph unicode="&#x1ef0;" horiz-adv-x="1345" d="M666 -33q-147 0 -242.5 44t-153 124t-80 189.5t-22.5 240.5v875h129v-846q0 -145 22.5 -243.5t68.5 -157t116.5 -83t165.5 -24.5q94 0 163.5 24.5t115.5 83t69.5 155.5t23.5 243v848h93q45 0 70.5 27.5t25.5 70.5q0 41 -12.5 77t-22.5 58h121q10 -23 22.5 -61.5 t12.5 -81.5q0 -84 -47.5 -131t-133.5 -60v-776q0 -131 -23.5 -240.5t-81.5 -188.5t-155.5 -123t-244.5 -44zM580 -297q0 45 26.5 72.5t67.5 27.5t65.5 -27.5t24.5 -72.5t-24.5 -72t-65.5 -27t-67.5 27t-26.5 72z" />
<glyph unicode="&#x1ef1;" horiz-adv-x="1202" d="M870 1016h74q55 0 87 24.5t32 73.5q0 33 -13.5 68t-25.5 57h121q10 -23 21.5 -56.5t11.5 -72.5q0 -74 -48.5 -124t-138.5 -60v-926h-112l-5 197q-49 -98 -138 -160t-230 -62q-168 0 -254 95.5t-86 281.5v664h121v-647q0 -80 18.5 -134.5t52 -87t79.5 -47t102 -14.5 q78 0 139 35t104 92t65.5 130t22.5 151v522zM487 -297q0 45 26.5 72.5t67.5 27.5t65.5 -27.5t24.5 -72.5t-24.5 -72t-65.5 -27t-67.5 27t-26.5 72z" />
<glyph unicode="&#x1ef2;" horiz-adv-x="1114" d="M487 629l-452 811h147l375 -688l383 688h139l-463 -807v-633h-129v629zM768 1563l-477 200l53 119l465 -229z" />
<glyph unicode="&#x1ef3;" horiz-adv-x="1003" d="M45 1016h135l324 -830l330 830h124l-612 -1467h-119l211 500zM708 1204l-463 215l58 115l450 -242z" />
<glyph unicode="&#x1ef4;" horiz-adv-x="1114" d="M487 629l-452 811h147l375 -688l383 688h139l-463 -807v-633h-129v629zM463 -297q0 45 26.5 72.5t67.5 27.5t65.5 -27.5t24.5 -72.5t-24.5 -72t-65.5 -27t-67.5 27t-26.5 72z" />
<glyph unicode="&#x1ef5;" horiz-adv-x="1003" d="M45 1016h135l324 -830l330 830h124l-612 -1467h-119l211 500zM686 -297q0 45 26.5 72.5t67.5 27.5t65.5 -27.5t24.5 -72.5t-24.5 -72t-65.5 -27t-67.5 27t-26.5 72z" />
<glyph unicode="&#x1ef6;" horiz-adv-x="1114" d="M487 629l-452 811h147l375 -688l383 688h139l-463 -807v-633h-129v629zM514 1935q55 0 91 -13t57.5 -34.5t30.5 -50.5t9 -57q0 -70 -41 -121t-92 -98l-67 57q29 29 55.5 62.5t26.5 74.5q0 76 -86 76q-25 0 -46.5 -4t-37.5 -8v102q16 4 43.5 9t56.5 5z" />
<glyph unicode="&#x1ef7;" horiz-adv-x="1003" d="M45 1016h135l324 -830l330 830h124l-612 -1467h-119l211 500zM528 1378q0 33 -21.5 54.5t-66.5 21.5q-27 0 -50.5 -2t-37.5 -6v104q41 10 113 11q53 0 89 -14.5t58.5 -37t31.5 -50t9 -56.5q0 -70 -41 -121t-92 -98l-68 55q29 27 52.5 63.5t23.5 75.5z" />
<glyph unicode="&#x1ef8;" horiz-adv-x="1114" d="M487 629l-452 811h147l375 -688l383 688h139l-463 -807v-633h-129v629zM405 1815q51 0 91 -18.5t74 -42t67 -42t71 -18.5q96 0 97 118h108q0 -115 -54 -171t-153 -56q-51 0 -89 18.5t-71.5 41t-66.5 41t-70 18.5q-100 0 -100 -117h-108q0 111 51 169.5t153 58.5z" />
<glyph unicode="&#x1ef9;" horiz-adv-x="1003" d="M45 1016h135l324 -830l330 830h124l-612 -1467h-119l211 500zM362 1421q51 0 89 -18.5t70 -42t63.5 -42t70.5 -18.5q51 0 71.5 32t20.5 87h109q0 -111 -51 -169t-150 -58q-49 0 -86 18.5t-70.5 41t-64.5 41t-67 18.5q-51 0 -73 -31t-22 -86h-108q0 106 50 166.5t148 60.5 z" />
<glyph unicode="&#x2000;" horiz-adv-x="968" />
<glyph unicode="&#x2001;" horiz-adv-x="1937" />
<glyph unicode="&#x2002;" horiz-adv-x="968" />
<glyph unicode="&#x2003;" horiz-adv-x="1937" />
<glyph unicode="&#x2004;" horiz-adv-x="645" />
<glyph unicode="&#x2005;" horiz-adv-x="483" />
<glyph unicode="&#x2006;" horiz-adv-x="321" />
<glyph unicode="&#x2007;" horiz-adv-x="321" />
<glyph unicode="&#x2008;" horiz-adv-x="241" />
<glyph unicode="&#x2009;" horiz-adv-x="387" />
<glyph unicode="&#x200a;" horiz-adv-x="106" />
<glyph unicode="&#x2010;" horiz-adv-x="864" d="M137 633h588v-117h-588v117z" />
<glyph unicode="&#x2011;" horiz-adv-x="864" d="M137 633h588v-117h-588v117z" />
<glyph unicode="&#x2012;" horiz-adv-x="864" d="M137 633h588v-117h-588v117z" />
<glyph unicode="&#x2013;" horiz-adv-x="845" d="M0 631h846v-109h-846v109z" />
<glyph unicode="&#x2014;" horiz-adv-x="1691" d="M0 631h1692v-109h-1692v109z" />
<glyph unicode="&#x2018;" horiz-adv-x="505" d="M350 1118q0 -53 -29.5 -81.5t-70.5 -28.5q-49 0 -74.5 34.5t-25.5 92.5q0 41 12 94t34.5 108.5t53.5 107.5t69 91l66 -47q-23 -31 -42 -67t-33.5 -72.5t-24 -71.5t-11.5 -61q31 -8 53.5 -33t22.5 -66z" />
<glyph unicode="&#x2019;" horiz-adv-x="505" d="M156 1425q0 53 29.5 82t70.5 29q49 0 74.5 -35t25.5 -92q0 -41 -12 -94t-34.5 -108.5t-53.5 -107.5t-70 -91l-65 47q23 31 42 66.5t33.5 72.5t23.5 71.5t11 61.5q-31 8 -53 32.5t-22 65.5z" />
<glyph unicode="&#x201a;" horiz-adv-x="505" d="M156 98q0 53 29.5 84t70.5 31q47 0 73.5 -35t26.5 -94q0 -41 -12 -95.5t-35.5 -109.5t-55.5 -107.5t-69 -90.5l-59 47q23 31 41 66.5t32.5 72.5t22.5 71.5t10 61.5q-29 8 -52 34.5t-23 63.5z" />
<glyph unicode="&#x201c;" horiz-adv-x="874" d="M334 1118q0 -53 -29.5 -81.5t-70.5 -28.5q-49 0 -74.5 34.5t-25.5 92.5q0 41 12 94t34.5 108.5t53.5 107.5t69 91l66 -47q-23 -31 -42 -67t-33.5 -72.5t-24 -71.5t-11.5 -61q31 -8 53.5 -33t22.5 -66zM700 1118q0 -53 -29.5 -81.5t-70.5 -28.5q-49 0 -74.5 34.5 t-25.5 92.5q0 41 12 94t34.5 108.5t53.5 107.5t69 91l66 -47q-23 -31 -42 -67t-33.5 -72.5t-24 -71.5t-11.5 -61q31 -8 53.5 -33t22.5 -66z" />
<glyph unicode="&#x201d;" horiz-adv-x="874" d="M174 1425q0 53 29.5 82t70.5 29q49 0 74.5 -35t25.5 -92q0 -41 -12 -94t-34.5 -108.5t-53.5 -107.5t-70 -91l-65 47q23 31 42 66.5t33.5 72.5t23.5 71.5t11 61.5q-31 8 -53 32.5t-22 65.5zM543 1425q0 53 29.5 82t70.5 29q49 0 74.5 -35t25.5 -92q0 -41 -12 -94 t-34.5 -108.5t-53.5 -107.5t-70 -91l-65 47q23 31 42 66.5t33.5 72.5t23.5 71.5t11 61.5q-31 8 -53 32.5t-22 65.5z" />
<glyph unicode="&#x201e;" horiz-adv-x="874" d="M156 98q0 53 29.5 84t70.5 31q47 0 73.5 -35t26.5 -94q0 -41 -12 -95.5t-35.5 -109.5t-55.5 -107.5t-69 -90.5l-59 47q23 31 41 66.5t32.5 72.5t22.5 71.5t10 61.5q-29 8 -52 34.5t-23 63.5zM525 98q0 53 29.5 84t70.5 31q47 0 73.5 -35t26.5 -94q0 -41 -12 -95.5 t-35.5 -109.5t-55.5 -107.5t-69 -90.5l-59 47q23 31 41 66.5t32.5 72.5t22.5 71.5t10 61.5q-29 8 -52 34.5t-23 63.5z" />
<glyph unicode="&#x2020;" horiz-adv-x="997" d="M555 918v-1170h-115v1170h-372v108h372v510h115v-510h375v-108h-375z" />
<glyph unicode="&#x2021;" horiz-adv-x="997" d="M555 227v-479h-115v479h-368v109h368v590h-368v108h368v502h115v-502h371v-108h-371v-590h371v-109h-371z" />
<glyph unicode="&#x2022;" horiz-adv-x="915" d="M178 694q0 57 21.5 108.5t59.5 89.5t89 59.5t111 21.5q57 0 108 -21.5t89 -59.5t59.5 -89t21.5 -109q0 -59 -21.5 -111.5t-59.5 -90t-89 -59t-108 -21.5q-59 0 -110.5 21.5t-89.5 59t-59.5 90t-21.5 111.5z" />
<glyph unicode="&#x2026;" horiz-adv-x="1669" d="M213 88q0 49 28.5 80t71.5 31t71.5 -30t28.5 -81q0 -49 -29.5 -77.5t-72.5 -28.5t-70.5 28.5t-27.5 77.5zM736 88q0 49 28.5 80t71.5 31t71.5 -30t28.5 -81q0 -49 -29.5 -77.5t-72.5 -28.5t-70.5 28.5t-27.5 77.5zM1256 88q0 49 28.5 80t71.5 31t71.5 -30t28.5 -81 q0 -49 -29.5 -77.5t-72.5 -28.5t-70.5 28.5t-27.5 77.5z" />
<glyph unicode="&#x202f;" horiz-adv-x="387" />
<glyph unicode="&#x2030;" horiz-adv-x="2586" d="M1868 383q0 199 77.5 304.5t221.5 105.5q147 0 220 -105.5t73 -304.5q0 -205 -78 -307.5t-217 -102.5q-297 0 -297 410zM1974 383q0 -172 50.5 -242.5t140.5 -70.5t138 71.5t48 241.5q0 88 -12 148.5t-36 97.5t-58.5 52t-79.5 15q-41 0 -76 -15t-60.5 -51t-40 -96.5 t-14.5 -150.5zM1243 1413h119l-768 -1413h-121zM127 1028q0 199 78 305.5t221 106.5q147 0 220 -106.5t73 -305.5q0 -205 -78 -306t-217 -101q-297 -1 -297 407zM233 1028q0 -170 50.5 -240.5t140.5 -70.5t138 70.5t48 240.5q0 90 -12 150.5t-36.5 97.5t-59.5 52t-78 15 q-41 0 -76 -15t-60.5 -52t-40 -97.5t-14.5 -150.5zM1118 383q0 199 78 304.5t221 105.5q147 0 220 -105.5t73 -304.5q0 -205 -78 -307.5t-215 -102.5q-299 0 -299 410zM1227 383q0 -172 49 -242.5t141 -70.5q88 0 137.5 71.5t49.5 241.5q0 178 -49.5 245.5t-137.5 67.5 q-43 0 -77.5 -15t-59.5 -51t-39 -96.5t-14 -150.5z" />
<glyph unicode="&#x2039;" horiz-adv-x="591" d="M352 117l-235 395l235 395h123l-227 -395l227 -395h-123z" />
<glyph unicode="&#x203a;" horiz-adv-x="591" d="M344 512l-227 395h123l235 -395l-235 -395h-123z" />
<glyph unicode="&#x2044;" horiz-adv-x="182" d="M410 1413h125l-764 -1413h-125z" />
<glyph unicode="&#x205f;" horiz-adv-x="483" />
<glyph unicode="&#x2070;" d="M131 1030q0 195 81 302.5t226 107.5q154 0 226.5 -107.5t72.5 -302.5q0 -186 -74.5 -296.5t-226.5 -110.5q-162 0 -233.5 109.5t-71.5 297.5zM240 1030q0 -160 51 -239.5t145 -79.5q92 0 142.5 79.5t50.5 239.5q0 319 -193 320q-94 0 -145 -79t-51 -241z" />
<glyph unicode="&#x2074;" d="M600 1100v-203h131v-88h-131v-170h-92v170h-367v59l326 557h108l-309 -528h242v203h92z" />
<glyph unicode="&#x2075;" d="M369 713q96 0 154.5 41t58.5 139q0 70 -43 109.5t-121 39.5q-53 0 -93 -11t-59 -19l-59 39l47 374h416v-88h-340l-27 -227q20 6 58 12t75 6q123 0 188.5 -65.5t65.5 -167.5q0 -119 -80 -195.5t-235 -76.5q-78 0 -128 10t-91 24l22 82q25 -6 71 -16t120 -10z" />
<glyph unicode="&#x2076;" d="M674 1327l-56 14q-39 10 -92 11q-123 0 -188.5 -79t-73.5 -214q25 29 76 61.5t133 32.5q115 0 186.5 -70.5t71.5 -187.5q0 -57 -18.5 -106.5t-54 -86t-87 -58t-114.5 -21.5q-137 0 -218 88t-81 274q0 117 27.5 202t76.5 141t116.5 84t147.5 28q72 0 116 -14.5t54 -18.5z M455 709q90 0 130 51t40 135q0 78 -43 125t-129 47q-37 0 -71 -13.5t-59.5 -35t-41 -48t-15.5 -52.5q0 -41 13.5 -79t38 -67t59.5 -46t78 -17z" />
<glyph unicode="&#x2077;" d="M260 639l307 696h-420v90h535v-63l-309 -723h-113z" />
<glyph unicode="&#x2078;" d="M698 1243q0 -39 -13 -69.5t-34.5 -55t-48.5 -42t-53 -29.5q80 -31 127 -79t47 -130q0 -94 -78 -154.5t-211 -60.5q-141 0 -215 58t-74 148q0 45 14.5 79t37 59.5t53.5 43t65 31.5q-63 29 -103 73t-40 116q0 86 66.5 147.5t195.5 61.5q137 0 200.5 -56.5t63.5 -140.5z M618 842q0 37 -17 62.5t-45 44t-62.5 31.5t-71.5 24q-31 -8 -61.5 -21.5t-55 -33t-40 -46t-15.5 -61.5q0 -61 45 -98t139 -37q96 0 140 37t44 98zM598 1233q0 55 -39 90t-125 35t-124 -35t-38 -92q0 -33 16.5 -57.5t42 -42t55.5 -29.5t58 -19q55 18 104.5 53.5t49.5 96.5z " />
<glyph unicode="&#x2079;" d="M197 731q16 -4 58 -12t95 -8q123 0 188.5 79.5t71.5 213.5q-25 -29 -76 -62t-133 -33q-115 0 -186.5 71t-71.5 187q0 57 18.5 106.5t54.5 86.5t86 58.5t116 21.5q137 0 218 -88t81 -275q0 -225 -100.5 -339.5t-268.5 -114.5q-68 0 -114 11t-56 17zM420 1354 q-90 0 -130 -51.5t-40 -135.5q0 -78 43 -125t129 -47q37 0 70.5 13.5t59.5 35t41 48t15 53.5q0 41 -13 79t-38 66.5t-59.5 46t-77.5 17.5z" />
<glyph unicode="&#x2080;" d="M131 393q0 195 81 302.5t226 107.5q154 0 226.5 -107.5t72.5 -302.5q0 -186 -74.5 -296.5t-226.5 -110.5q-162 0 -233.5 109.5t-71.5 297.5zM240 393q0 -160 51 -239.5t145 -79.5q92 0 142.5 79.5t50.5 239.5q0 319 -193 320q-94 0 -145 -79t-51 -241z" />
<glyph unicode="&#x2081;" d="M424 670l-209 -123l-43 78l266 163h90v-786h-104v668z" />
<glyph unicode="&#x2082;" d="M401 387q72 45 115 88t43 109q0 59 -39 94t-112 35q-74 0 -121 -34t-74 -63l-61 58q12 18 35.5 40.5t55 42t74.5 33t97 13.5q123 0 189.5 -60.5t66.5 -154.5q0 -45 -17.5 -83t-46 -70t-67.5 -61.5t-82 -56.5l-70 -46q-33 -22 -57.5 -48t-40 -57t-15.5 -74h408v-90h-516 v39q0 59 12 105t40 86t72.5 77t110.5 78z" />
<glyph unicode="&#x2083;" d="M287 446h110q82 0 128 40t46 110q0 59 -43 89t-116 30q-80 0 -131.5 -27t-75.5 -45l-47 66q35 33 103.5 63.5t160.5 30.5q70 0 118 -17.5t77.5 -45t43 -64.5t13.5 -76q0 -74 -38 -120t-89 -68q61 -20 104 -66.5t43 -128.5q0 -104 -79.5 -167.5t-231.5 -63.5q-72 0 -125 9 t-94 21l18 86q33 -10 81 -19t108 -9q115 0 165 40t50 105q0 63 -41 102t-144 39h-114v86z" />
<glyph unicode="&#x2084;" d="M600 463v-203h131v-88h-131v-170h-92v170h-367v59l326 557h108l-309 -528h242v203h92z" />
<glyph unicode="&#x2085;" d="M369 76q96 0 154.5 41t58.5 139q0 70 -43 109.5t-121 39.5q-53 0 -93 -11t-59 -19l-59 39l47 374h416v-88h-340l-27 -227q20 6 58 12t75 6q123 0 188.5 -65.5t65.5 -167.5q0 -119 -80 -195.5t-235 -76.5q-78 0 -128 10t-91 24l22 82q25 -6 71 -16t120 -10z" />
<glyph unicode="&#x2086;" d="M674 690l-56 14q-39 10 -92 11q-123 0 -188.5 -79t-73.5 -214q25 29 76 61.5t133 32.5q115 0 186.5 -70.5t71.5 -187.5q0 -57 -18.5 -106.5t-54 -86t-87 -58t-114.5 -21.5q-137 0 -218 88t-81 274q0 117 27.5 202t76.5 141t116.5 84t147.5 28q72 0 116 -14.5t54 -18.5z M455 72q90 0 130 51t40 135q0 78 -43 125t-129 47q-37 0 -71 -13.5t-59.5 -35t-41 -48t-15.5 -52.5q0 -41 13.5 -79t38 -67t59.5 -46t78 -17z" />
<glyph unicode="&#x2087;" d="M260 2l307 696h-420v90h535v-63l-309 -723h-113z" />
<glyph unicode="&#x2088;" d="M698 606q0 -39 -13 -69.5t-34.5 -55t-48.5 -42t-53 -29.5q80 -31 127 -79t47 -130q0 -94 -78 -154.5t-211 -60.5q-141 0 -215 58t-74 148q0 45 14.5 79t37 59.5t53.5 43t65 31.5q-63 29 -103 73t-40 116q0 86 66.5 147.5t195.5 61.5q137 0 200.5 -56.5t63.5 -140.5z M618 205q0 37 -17 62.5t-45 44t-62.5 31.5t-71.5 24q-31 -8 -61.5 -21.5t-55 -33t-40 -46t-15.5 -61.5q0 -61 45 -98t139 -37q96 0 140 37t44 98zM598 596q0 55 -39 90t-125 35t-124 -35t-38 -92q0 -33 16.5 -57.5t42 -42t55.5 -29.5t58 -19q55 18 104.5 53.5t49.5 96.5z " />
<glyph unicode="&#x2089;" d="M197 94q16 -4 58 -12t95 -8q123 0 188.5 79.5t71.5 213.5q-25 -29 -76 -62t-133 -33q-115 0 -186.5 71t-71.5 187q0 57 18.5 106.5t54.5 86.5t86 58.5t116 21.5q137 0 218 -88t81 -275q0 -225 -100.5 -339.5t-268.5 -114.5q-68 0 -114 11t-56 17zM420 717 q-90 0 -130 -51.5t-40 -135.5q0 -78 43 -125t129 -47q37 0 70.5 13.5t59.5 35t41 48t15 53.5q0 41 -13 79t-38 66.5t-59.5 46t-77.5 17.5z" />
<glyph unicode="&#x20ac;" horiz-adv-x="1212" d="M762 1352q-106 0 -181 -36t-125 -95.5t-78 -135t-36 -153.5h590l-33 -105h-569q-2 -47 -2 -71v-41v-43q0 -23 2 -70h526l-31 -104h-483q8 -80 34.5 -154t74 -131t121 -91t178.5 -34q74 0 129 12.5t96 31t69.5 38.5t47.5 37l61 -88q-55 -53 -155.5 -98.5t-252.5 -45.5 q-127 0 -221 37t-158.5 104.5t-103.5 164t-53 217.5h-150v104h140q-4 51 -4 73v40v19v21q0 11 1 27.5t3 44.5h-138v105h152q16 109 54 205t104.5 168.5t162 115.5t224.5 43q145 0 240.5 -44t154.5 -97l-61 -90q-18 14 -47 34.5t-70 39t-93 32t-120 13.5z" />
<glyph unicode="&#x20b9;" horiz-adv-x="1212" d="M385 707q180 0 271.5 66.5t107.5 182.5h-580v115h580q-16 119 -103.5 187.5t-265.5 68.5h-211v113h928l-22 -113h-355q68 -49 107 -116.5t49 -139.5h151l-22 -115h-129q-10 -96 -55 -164.5t-116 -112.5t-165 -64.5t-205 -20.5l565 -594h-149l-582 596v111h201z" />
<glyph unicode="&#x2113;" horiz-adv-x="952" d="M862 119q-45 -53 -110.5 -95t-176.5 -42q-143 0 -210.5 97t-67.5 267l-57 -42l-58 -40l-22 42l-23 40l80 55q41 29 78 62v459q0 258 72.5 374.5t207.5 116.5q109 0 167.5 -83t58.5 -218q0 -184 -104.5 -352t-282.5 -332v-41q0 -158 40 -231.5t144 -73.5q63 0 115.5 32.5 t83.5 73.5zM414 561q127 135 201.5 266t74.5 285q0 115 -34.5 159t-90.5 44q-72 0 -111.5 -78t-39.5 -244v-432z" />
<glyph unicode="&#x2122;" horiz-adv-x="1732" d="M969 1440l256 -445l260 445h106v-785h-100v625l-229 -387h-84l-220 379v-617h-100v785h111zM332 1346h-254v94h614v-94h-256v-691h-104v691z" />
<glyph unicode="&#x2126;" horiz-adv-x="1605" d="M809 1350q-111 0 -199 -38t-151.5 -115t-97 -191.5t-33.5 -270.5q0 -141 28.5 -246.5t74.5 -181.5t102.5 -126t111.5 -81v-100h-514v115h320q-35 31 -79 83t-84 128.5t-67.5 178t-27.5 230.5q0 152 37.5 286t114.5 233.5t192.5 157.5t273.5 58q154 0 266.5 -58 t187 -158.5t111.5 -234.5t37 -286q0 -123 -26.5 -224t-66.5 -178t-86 -131.5t-85 -84.5h328v-115h-514v100q57 33 113.5 84.5t101.5 126t72.5 178t27.5 244.5q0 299 -127 458t-342 159z" />
<glyph unicode="&#x212e;" horiz-adv-x="1824" d="M397 283q0 -27 19 -45q98 -104 225 -162t277 -58q162 0 297 67t233 177h117q-53 -66 -124 -118t-155 -89t-178 -57.5t-193 -20.5q-170 0 -319.5 58.5t-260 158t-175 233.5t-64.5 288t64.5 288t175 234t260 158.5t319.5 58.5t320.5 -58.5t262.5 -158.5t176.5 -234.5 t64.5 -287.5v-21h-1331q-10 0 -11 -8v-403zM1427 733q8 0 9 15v403q0 27 -19 49q-98 98 -225 153.5t-274 55.5q-145 0 -274.5 -59.5t-225.5 -157.5q-10 -8 -15.5 -21.5t-5.5 -27.5v-395q0 -14 11 -15h1019z" />
<glyph unicode="&#x2153;" horiz-adv-x="1875" d="M1219 1413h125l-764 -1413h-125zM410 1307l-209 -123l-43 78l266 163h90v-786h-104v668zM1280 446h110q82 0 128 40t46 110q0 59 -43 89t-116 30q-80 0 -131.5 -27t-75.5 -45l-47 66q35 33 103.5 63.5t160.5 30.5q70 0 118 -17.5t77.5 -45t43 -64.5t13.5 -76 q0 -74 -38 -120t-89 -68q61 -20 104 -66.5t43 -128.5q0 -104 -79.5 -167.5t-231.5 -63.5q-72 0 -125 9t-94 21l18 86q33 -10 81 -19t108 -9q115 0 165 40t50 105q0 63 -41 102t-144 39h-114v86z" />
<glyph unicode="&#x2154;" horiz-adv-x="1875" d="M1287 1413h125l-764 -1413h-125zM403 1024q72 45 115 88t43 109q0 59 -39 94t-112 35q-74 0 -121 -34t-74 -63l-61 58q12 18 35.5 40.5t55 42t74.5 33t97 13.5q123 0 189.5 -60.5t66.5 -154.5q0 -45 -17.5 -83t-46 -70t-67.5 -61.5t-82 -56.5l-70 -46q-33 -22 -57.5 -48 t-40 -57t-15.5 -74h408v-90h-516v39q0 59 12 105t40 86t72.5 77t110.5 78zM1340 446h110q82 0 128 40t46 110q0 59 -43 89t-116 30q-80 0 -131.5 -27t-75.5 -45l-47 66q35 33 103.5 63.5t160.5 30.5q70 0 118 -17.5t77.5 -45t43 -64.5t13.5 -76q0 -74 -38 -120t-89 -68 q61 -20 104 -66.5t43 -128.5q0 -104 -79.5 -167.5t-231.5 -63.5q-72 0 -125 9t-94 21l18 86q33 -10 81 -19t108 -9q115 0 165 40t50 105q0 63 -41 102t-144 39h-114v86z" />
<glyph unicode="&#x2155;" horiz-adv-x="1875" d="M1233 1413h125l-764 -1413h-125zM424 1307l-209 -123l-43 78l266 163h90v-786h-104v668zM1375 76q96 0 154.5 41t58.5 139q0 70 -43 109.5t-121 39.5q-53 0 -93 -11t-59 -19l-59 39l47 374h416v-88h-340l-27 -227q20 6 58 12t75 6q123 0 188.5 -65.5t65.5 -167.5 q0 -119 -80 -195.5t-235 -76.5q-78 0 -128 10t-91 24l22 82q25 -6 71 -16t120 -10z" />
<glyph unicode="&#x2156;" horiz-adv-x="1875" d="M1276 1413h125l-764 -1413h-125zM401 1024q72 45 115 88t43 109q0 59 -39 94t-112 35q-74 0 -121 -34t-74 -63l-61 58q12 18 35.5 40.5t55 42t74.5 33t97 13.5q123 0 189.5 -60.5t66.5 -154.5q0 -45 -17.5 -83t-46 -70t-67.5 -61.5t-82 -56.5l-70 -46q-33 -22 -57.5 -48 t-40 -57t-15.5 -74h408v-90h-516v39q0 59 12 105t40 86t72.5 77t110.5 78zM1418 76q96 0 154.5 41t58.5 139q0 70 -43 109.5t-121 39.5q-53 0 -93 -11t-59 -19l-59 39l47 374h416v-88h-340l-27 -227q20 6 58 12t75 6q123 0 188.5 -65.5t65.5 -167.5q0 -119 -80 -195.5 t-235 -76.5q-78 0 -128 10t-91 24l22 82q25 -6 71 -16t120 -10z" />
<glyph unicode="&#x2157;" horiz-adv-x="1875" d="M1272 1413h125l-764 -1413h-125zM1413 76q96 0 154.5 41t58.5 139q0 70 -43 109.5t-121 39.5q-53 0 -93 -11t-59 -19l-59 39l47 374h416v-88h-340l-27 -227q20 6 58 12t75 6q123 0 188.5 -65.5t65.5 -167.5q0 -119 -80 -195.5t-235 -76.5q-78 0 -128 10t-91 24l22 82 q25 -6 71 -16t120 -10zM283 1083h110q82 0 128 40t46 110q0 59 -43 89t-116 30q-80 0 -131.5 -27t-75.5 -45l-47 66q35 33 103.5 63.5t160.5 30.5q70 0 118 -17.5t77.5 -45t43 -64.5t13.5 -76q0 -74 -38 -120t-89 -68q61 -20 104 -66.5t43 -128.5q0 -104 -79.5 -167.5 t-231.5 -63.5q-72 0 -125 9t-94 21l18 86q33 -10 81 -19t108 -9q115 0 165 40t50 105q0 63 -41 102t-144 39h-114v86z" />
<glyph unicode="&#x2158;" horiz-adv-x="1875" d="M1268 1413h125l-764 -1413h-125zM1409 76q96 0 154.5 41t58.5 139q0 70 -43 109.5t-121 39.5q-53 0 -93 -11t-59 -19l-59 39l47 374h416v-88h-340l-27 -227q20 6 58 12t75 6q123 0 188.5 -65.5t65.5 -167.5q0 -119 -80 -195.5t-235 -76.5q-78 0 -128 10t-91 24l22 82 q25 -6 71 -16t120 -10zM592 1100v-203h131v-88h-131v-170h-92v170h-367v59l326 557h108l-309 -528h242v203h92z" />
<glyph unicode="&#x2159;" horiz-adv-x="1875" d="M1213 1413h125l-764 -1413h-125zM404 1307l-209 -123l-43 78l266 163h90v-786h-104v668zM1655 690l-56 14q-39 10 -92 11q-123 0 -188.5 -79t-73.5 -214q25 29 76 61.5t133 32.5q115 0 186.5 -70.5t71.5 -187.5q0 -57 -18.5 -106.5t-54 -86t-87 -58t-114.5 -21.5 q-137 0 -218 88t-81 274q0 117 27.5 202t76.5 141t116.5 84t147.5 28q72 0 116 -14.5t54 -18.5zM1436 72q90 0 130 51t40 135q0 78 -43 125t-129 47q-37 0 -71 -13.5t-59.5 -35t-41 -48t-15.5 -52.5q0 -41 13.5 -79t38 -67t59.5 -46t78 -17z" />
<glyph unicode="&#x215a;" horiz-adv-x="1875" d="M1274 1413h125l-764 -1413h-125zM1718 690l-56 14q-39 10 -92 11q-123 0 -188.5 -79t-73.5 -214q25 29 76 61.5t133 32.5q115 0 186.5 -70.5t71.5 -187.5q0 -57 -18.5 -106.5t-54 -86t-87 -58t-114.5 -21.5q-137 0 -218 88t-81 274q0 117 27.5 202t76.5 141t116.5 84 t147.5 28q72 0 116 -14.5t54 -18.5zM1499 72q90 0 130 51t40 135q0 78 -43 125t-129 47q-37 0 -71 -13.5t-59.5 -35t-41 -48t-15.5 -52.5q0 -41 13.5 -79t38 -67t59.5 -46t78 -17zM369 713q96 0 154.5 41t58.5 139q0 70 -43 109.5t-121 39.5q-53 0 -93 -11t-59 -19l-59 39 l47 374h416v-88h-340l-27 -227q20 6 58 12t75 6q123 0 188.5 -65.5t65.5 -167.5q0 -119 -80 -195.5t-235 -76.5q-78 0 -128 10t-91 24l22 82q25 -6 71 -16t120 -10z" />
<glyph unicode="&#x215b;" horiz-adv-x="1875" d="M1213 1413h125l-764 -1413h-125zM406 1307l-209 -123l-43 78l266 163h90v-786h-104v668zM1689 606q0 -39 -13 -69.5t-34.5 -55t-48.5 -42t-53 -29.5q80 -31 127 -79t47 -130q0 -94 -78 -154.5t-211 -60.5q-141 0 -215 58t-74 148q0 45 14.5 79t37 59.5t53.5 43t65 31.5 q-63 29 -103 73t-40 116q0 86 66.5 147.5t195.5 61.5q137 0 200.5 -56.5t63.5 -140.5zM1609 205q0 37 -17 62.5t-45 44t-62.5 31.5t-71.5 24q-31 -8 -61.5 -21.5t-55 -33t-40 -46t-15.5 -61.5q0 -61 45 -98t139 -37q96 0 140 37t44 98zM1589 596q0 55 -39 90t-125 35 t-124 -35t-38 -92q0 -33 16.5 -57.5t42 -42t55.5 -29.5t58 -19q55 18 104.5 53.5t49.5 96.5z" />
<glyph unicode="&#x215c;" horiz-adv-x="1875" d="M1256 1413h125l-764 -1413h-125zM1724 606q0 -39 -13 -69.5t-34.5 -55t-48.5 -42t-53 -29.5q80 -31 127 -79t47 -130q0 -94 -78 -154.5t-211 -60.5q-141 0 -215 58t-74 148q0 45 14.5 79t37 59.5t53.5 43t65 31.5q-63 29 -103 73t-40 116q0 86 66.5 147.5t195.5 61.5 q137 0 200.5 -56.5t63.5 -140.5zM1644 205q0 37 -17 62.5t-45 44t-62.5 31.5t-71.5 24q-31 -8 -61.5 -21.5t-55 -33t-40 -46t-15.5 -61.5q0 -61 45 -98t139 -37q96 0 140 37t44 98zM1624 596q0 55 -39 90t-125 35t-124 -35t-38 -92q0 -33 16.5 -57.5t42 -42t55.5 -29.5 t58 -19q55 18 104.5 53.5t49.5 96.5zM264 1083h110q82 0 128 40t46 110q0 59 -43 89t-116 30q-80 0 -131.5 -27t-75.5 -45l-47 66q35 33 103.5 63.5t160.5 30.5q70 0 118 -17.5t77.5 -45t43 -64.5t13.5 -76q0 -74 -38 -120t-89 -68q61 -20 104 -66.5t43 -128.5 q0 -104 -79.5 -167.5t-231.5 -63.5q-72 0 -125 9t-94 21l18 86q33 -10 81 -19t108 -9q115 0 165 40t50 105q0 63 -41 102t-144 39h-114v86z" />
<glyph unicode="&#x215d;" horiz-adv-x="1875" d="M1276 1413h125l-764 -1413h-125zM369 713q96 0 154.5 41t58.5 139q0 70 -43 109.5t-121 39.5q-53 0 -93 -11t-59 -19l-59 39l47 374h416v-88h-340l-27 -227q20 6 58 12t75 6q123 0 188.5 -65.5t65.5 -167.5q0 -119 -80 -195.5t-235 -76.5q-78 0 -128 10t-91 24l22 82 q25 -6 71 -16t120 -10zM1747 606q0 -39 -13 -69.5t-34.5 -55t-48.5 -42t-53 -29.5q80 -31 127 -79t47 -130q0 -94 -78 -154.5t-211 -60.5q-141 0 -215 58t-74 148q0 45 14.5 79t37 59.5t53.5 43t65 31.5q-63 29 -103 73t-40 116q0 86 66.5 147.5t195.5 61.5 q137 0 200.5 -56.5t63.5 -140.5zM1667 205q0 37 -17 62.5t-45 44t-62.5 31.5t-71.5 24q-31 -8 -61.5 -21.5t-55 -33t-40 -46t-15.5 -61.5q0 -61 45 -98t139 -37q96 0 140 37t44 98zM1647 596q0 55 -39 90t-125 35t-124 -35t-38 -92q0 -33 16.5 -57.5t42 -42t55.5 -29.5 t58 -19q55 18 104.5 53.5t49.5 96.5z" />
<glyph unicode="&#x215e;" horiz-adv-x="1875" d="M1209 1413h125l-764 -1413h-125zM1679 606q0 -39 -13 -69.5t-34.5 -55t-48.5 -42t-53 -29.5q80 -31 127 -79t47 -130q0 -94 -78 -154.5t-211 -60.5q-141 0 -215 58t-74 148q0 45 14.5 79t37 59.5t53.5 43t65 31.5q-63 29 -103 73t-40 116q0 86 66.5 147.5t195.5 61.5 q137 0 200.5 -56.5t63.5 -140.5zM1599 205q0 37 -17 62.5t-45 44t-62.5 31.5t-71.5 24q-31 -8 -61.5 -21.5t-55 -33t-40 -46t-15.5 -61.5q0 -61 45 -98t139 -37q96 0 140 37t44 98zM1579 596q0 55 -39 90t-125 35t-124 -35t-38 -92q0 -33 16.5 -57.5t42 -42t55.5 -29.5 t58 -19q55 18 104.5 53.5t49.5 96.5zM260 639l307 696h-420v90h535v-63l-309 -723h-113z" />
<glyph unicode="&#x2202;" horiz-adv-x="1159" d="M920 725q2 16 3 38.5t1 61.5q0 256 -93.5 378t-273.5 122q-94 0 -174 -29.5t-121 -56.5l-43 94q23 14 57.5 32.5t79.5 34t98.5 26t112.5 10.5q231 0 354 -157t123 -460q0 -190 -37.5 -345t-109.5 -265.5t-178.5 -171t-243.5 -60.5q-182 0 -285.5 110t-103.5 290 q0 106 34 195.5t95 154t146 100t188 35.5q63 0 120.5 -13t105.5 -32.5t84 -44t61 -47.5zM559 752q-84 0 -148.5 -28t-108.5 -77t-66.5 -116.5t-22.5 -147.5q0 -137 69.5 -217t211.5 -80q174 0 280.5 141.5t132.5 384.5q-14 14 -46 39t-77 46.5t-102 38t-123 16.5z" />
<glyph unicode="&#x2206;" horiz-adv-x="1179" d="M35 0l483 1440h139l488 -1440h-1110zM195 117h778l-389 1177z" />
<glyph unicode="&#x220f;" horiz-adv-x="1544" d="M1083 1321h-624v-1567h-129v1567h-246v119h1376v-119h-248v-1567h-129v1567z" />
<glyph unicode="&#x2211;" horiz-adv-x="1193" d="M129 -246v103l479 739l-477 741v103h924v-119h-770l467 -721l-478 -727h836v-119h-981z" />
<glyph unicode="&#x2212;" horiz-adv-x="1212" d="M154 764h905v-109h-905v109z" />
<glyph unicode="&#x2215;" horiz-adv-x="182" d="M410 1413h125l-764 -1413h-125z" />
<glyph unicode="&#x2219;" horiz-adv-x="514" d="M158 643q0 49 28.5 80t71.5 31t71.5 -30t28.5 -81q0 -49 -29.5 -77.5t-72.5 -28.5t-70.5 28.5t-27.5 77.5z" />
<glyph unicode="&#x221a;" horiz-adv-x="1232" d="M1233 1563l-457 -1563h-145l-281 803l-196 -92l-41 96l313 143l276 -811l410 1424h121z" />
<glyph unicode="&#x221e;" horiz-adv-x="1343" d="M365 1020q61 0 109 -20.5t86 -54.5t67.5 -77t54.5 -88q31 53 62.5 97.5t66.5 76t78 49t98 17.5q123 0 202 -84t79 -231q0 -70 -21.5 -127.5t-59.5 -98.5t-89 -63.5t-109 -22.5q-57 0 -102 15.5t-82 46t-70 75.5t-63 103q-33 -53 -65 -96t-70.5 -76t-84.5 -50.5 t-108 -17.5q-55 0 -103 21.5t-85 61.5t-58.5 97.5t-21.5 126.5q0 72 22.5 131.5t60.5 101.5t91.5 64.5t114.5 22.5zM356 487q51 0 88 18.5t67 49.5t55 70l50 80q-20 43 -42.5 82.5t-51 70.5t-67.5 49.5t-90 18.5q-92 0 -140.5 -55.5t-48.5 -168.5q0 -102 48 -158.5 t132 -56.5zM979 926q-45 0 -80 -18.5t-62.5 -49.5t-52.5 -70l-49 -81q25 -47 49.5 -87t53 -70t63.5 -46.5t78 -16.5q84 0 136 52.5t52 165.5q0 121 -54 171t-134 50z" />
<glyph unicode="&#x222b;" horiz-adv-x="759" d="M461 -12q2 -31 2 -58v-59q0 -74 -15.5 -137.5t-52.5 -109.5t-97 -71.5t-151 -25.5q-57 0 -93 7t-58 13l16 101l43 -7q31 -5 82 -6q117 0 160 55.5t43 174.5v92l-43 1143q-2 31 -2 56v58q0 68 14.5 128.5t50 106.5t95 73.5t149.5 27.5q59 0 100 -8t60 -12l-16 -100l-41 7 q-29 5 -78 5q-63 0 -104.5 -14.5t-64 -44t-31.5 -73.5t-9 -104v-76z" />
<glyph unicode="&#x2248;" horiz-adv-x="1212" d="M827 877q70 0 119 29.5t101 76.5l65 -76q-57 -57 -127 -99t-162 -42q-72 0 -129 26.5t-104 55.5q-37 23 -76 42t-92 19q-63 0 -131 -37.5t-129 -97.5l-64 80q27 27 63 56.5t78 54t89 40t100 15.5q72 0 129 -26.5t105 -55.5q37 -23 77.5 -42t87.5 -19zM827 469 q70 0 119 29.5t101 76.5l65 -75q-57 -59 -127 -100.5t-162 -41.5q-72 0 -129 27t-104 55q-37 23 -76 42.5t-92 19.5q-63 0 -131 -38t-129 -97l-64 77q27 27 63 56.5t78 54.5t89 40t100 15q72 0 129 -26.5t105 -55.5q37 -23 77.5 -41t87.5 -18z" />
<glyph unicode="&#x2260;" horiz-adv-x="1212" d="M188 971h482l127 278h114l-129 -278h242v-109h-293l-143 -313h436v-111h-489l-125 -274h-113l127 274h-236v111h285l145 313h-430v109z" />
<glyph unicode="&#x2264;" horiz-adv-x="1212" d="M332 793l667 -332l-43 -101l-747 377v105l741 377l47 -101zM203 109h807v-109h-807v109z" />
<glyph unicode="&#x2265;" horiz-adv-x="1212" d="M217 1118l45 101l744 -377v-105l-748 -377l-45 101l670 327zM1008 0h-803v109h803v-109z" />
<glyph unicode="&#x25ca;" horiz-adv-x="1177" d="M643 0h-117l-409 717l418 723h118l408 -723zM932 715l-340 612l-350 -606l348 -612z" />
<glyph unicode="&#xe000;" horiz-adv-x="1014" d="M0 1015h1015v-1015h-1015v1015z" />
<glyph unicode="&#xf001;" horiz-adv-x="1212" d="M915 909h-522v-909h-123v909h-200v107h200v110q0 94 17.5 172t58.5 134.5t107.5 87t162.5 30.5q51 0 94.5 -7t65.5 -13l-16 -100q-16 4 -49 8t-66 4q-74 0 -122 -18.5t-77.5 -59.5t-41 -105.5t-11.5 -158.5v-84h645v-1016h-123v909zM883 1356q0 45 25.5 72.5t66.5 27.5 t67.5 -27.5t26.5 -72.5q0 -47 -26.5 -74t-67.5 -27t-66.5 28t-25.5 73z" />
<glyph unicode="&#xf002;" horiz-adv-x="1218" d="M70 909v107h200v110q0 94 17.5 172t58.5 134.5t107.5 87t162.5 30.5q51 0 94.5 -7t65.5 -13l-16 -100q-16 4 -49 8t-66 4q-74 0 -122 -18.5t-77.5 -59.5t-41 -105.5t-11.5 -158.5v-84h314v-107h-314v-909h-123v909h-200zM1053 0h-121v1536h121v-1536z" />
<glyph unicode="&#xf506;" horiz-adv-x="1875" d="M1225 1413h125l-764 -1413h-125zM424 1307l-209 -123l-43 78l266 163h90v-786h-104v668zM1272 2l307 696h-420v90h535v-63l-309 -723h-113z" />
<glyph unicode="&#xf507;" horiz-adv-x="1875" d="M1266 1413h125l-764 -1413h-125zM391 1024q72 45 115 88t43 109q0 59 -39 94t-112 35q-74 0 -121 -34t-74 -63l-61 58q12 18 35.5 40.5t55 42t74.5 33t97 13.5q123 0 189.5 -60.5t66.5 -154.5q0 -45 -17.5 -83t-46 -70t-67.5 -61.5t-82 -56.5l-70 -46q-33 -22 -57.5 -48 t-40 -57t-15.5 -74h408v-90h-516v39q0 59 12 105t40 86t72.5 77t110.5 78zM1298 2l307 696h-420v90h535v-63l-309 -723h-113z" />
<glyph unicode="&#xf508;" horiz-adv-x="1875" d="M1266 1413h125l-764 -1413h-125zM1298 2l307 696h-420v90h535v-63l-309 -723h-113zM277 1083h110q82 0 128 40t46 110q0 59 -43 89t-116 30q-80 0 -131.5 -27t-75.5 -45l-47 66q35 33 103.5 63.5t160.5 30.5q70 0 118 -17.5t77.5 -45t43 -64.5t13.5 -76q0 -74 -38 -120 t-89 -68q61 -20 104 -66.5t43 -128.5q0 -104 -79.5 -167.5t-231.5 -63.5q-72 0 -125 9t-94 21l18 86q33 -10 81 -19t108 -9q115 0 165 40t50 105q0 63 -41 102t-144 39h-114v86z" />
<glyph unicode="&#xf509;" horiz-adv-x="1875" d="M1268 1413h125l-764 -1413h-125zM592 1100v-203h131v-88h-131v-170h-92v170h-367v59l326 557h108l-309 -528h242v203h92zM1300 2l307 696h-420v90h535v-63l-309 -723h-113z" />
<glyph unicode="&#xf50a;" horiz-adv-x="1875" d="M1280 1413h125l-764 -1413h-125zM371 713q96 0 154.5 41t58.5 139q0 70 -43 109.5t-121 39.5q-53 0 -93 -11t-59 -19l-59 39l47 374h416v-88h-340l-27 -227q20 6 58 12t75 6q123 0 188.5 -65.5t65.5 -167.5q0 -119 -80 -195.5t-235 -76.5q-78 0 -128 10t-91 24l22 82 q25 -6 71 -16t120 -10zM1313 2l307 696h-420v90h535v-63l-309 -723h-113z" />
<glyph unicode="&#xf50b;" horiz-adv-x="1875" d="M1276 1413h125l-764 -1413h-125zM674 1327l-56 14q-39 10 -92 11q-123 0 -188.5 -79t-73.5 -214q25 29 76 61.5t133 32.5q115 0 186.5 -70.5t71.5 -187.5q0 -57 -18.5 -106.5t-54 -86t-87 -58t-114.5 -21.5q-137 0 -218 88t-81 274q0 117 27.5 202t76.5 141t116.5 84 t147.5 28q72 0 116 -14.5t54 -18.5zM455 709q90 0 130 51t40 135q0 78 -43 125t-129 47q-37 0 -71 -13.5t-59.5 -35t-41 -48t-15.5 -52.5q0 -41 13.5 -79t38 -67t59.5 -46t78 -17zM1309 2l307 696h-420v90h535v-63l-309 -723h-113z" />
<glyph unicode="&#xf50c;" horiz-adv-x="1875" d="M1219 1413h125l-764 -1413h-125zM410 1307l-209 -123l-43 78l266 163h90v-786h-104v668zM1186 94q16 -4 58 -12t95 -8q123 0 188.5 79.5t71.5 213.5q-25 -29 -76 -62t-133 -33q-115 0 -186.5 71t-71.5 187q0 57 18.5 106.5t54.5 86.5t86 58.5t116 21.5q137 0 218 -88 t81 -275q0 -225 -100.5 -339.5t-268.5 -114.5q-68 0 -114 11t-56 17zM1409 717q-90 0 -130 -51.5t-40 -135.5q0 -78 43 -125t129 -47q37 0 70.5 13.5t59.5 35t41 48t15 53.5q0 41 -13 79t-38 66.5t-59.5 46t-77.5 17.5z" />
<glyph unicode="&#xf50d;" horiz-adv-x="1875" d="M1270 1413h125l-764 -1413h-125zM395 1024q72 45 115 88t43 109q0 59 -39 94t-112 35q-74 0 -121 -34t-74 -63l-61 58q12 18 35.5 40.5t55 42t74.5 33t97 13.5q123 0 189.5 -60.5t66.5 -154.5q0 -45 -17.5 -83t-46 -70t-67.5 -61.5t-82 -56.5l-70 -46q-33 -22 -57.5 -48 t-40 -57t-15.5 -74h408v-90h-516v39q0 59 12 105t40 86t72.5 77t110.5 78zM1239 94q16 -4 58 -12t95 -8q123 0 188.5 79.5t71.5 213.5q-25 -29 -76 -62t-133 -33q-115 0 -186.5 71t-71.5 187q0 57 18.5 106.5t54.5 86.5t86 58.5t116 21.5q137 0 218 -88t81 -275 q0 -225 -100.5 -339.5t-268.5 -114.5q-68 0 -114 11t-56 17zM1462 717q-90 0 -130 -51.5t-40 -135.5q0 -78 43 -125t129 -47q37 0 70.5 13.5t59.5 35t41 48t15 53.5q0 41 -13 79t-38 66.5t-59.5 46t-77.5 17.5z" />
<glyph unicode="&#xf50e;" horiz-adv-x="1875" d="M1266 1413h125l-764 -1413h-125zM588 1100v-203h131v-88h-131v-170h-92v170h-367v59l326 557h108l-309 -528h242v203h92zM1233 94q16 -4 58 -12t95 -8q123 0 188.5 79.5t71.5 213.5q-25 -29 -76 -62t-133 -33q-115 0 -186.5 71t-71.5 187q0 57 18.5 106.5t54.5 86.5 t86 58.5t116 21.5q137 0 218 -88t81 -275q0 -225 -100.5 -339.5t-268.5 -114.5q-68 0 -114 11t-56 17zM1456 717q-90 0 -130 -51.5t-40 -135.5q0 -78 43 -125t129 -47q37 0 70.5 13.5t59.5 35t41 48t15 53.5q0 41 -13 79t-38 66.5t-59.5 46t-77.5 17.5z" />
<glyph unicode="&#xf50f;" horiz-adv-x="1875" d="M1266 1413h125l-764 -1413h-125zM359 713q96 0 154.5 41t58.5 139q0 70 -43 109.5t-121 39.5q-53 0 -93 -11t-59 -19l-59 39l47 374h416v-88h-340l-27 -227q20 6 58 12t75 6q123 0 188.5 -65.5t65.5 -167.5q0 -119 -80 -195.5t-235 -76.5q-78 0 -128 10t-91 24l22 82 q25 -6 71 -16t120 -10zM1235 94q16 -4 58 -12t95 -8q123 0 188.5 79.5t71.5 213.5q-25 -29 -76 -62t-133 -33q-115 0 -186.5 71t-71.5 187q0 57 18.5 106.5t54.5 86.5t86 58.5t116 21.5q137 0 218 -88t81 -275q0 -225 -100.5 -339.5t-268.5 -114.5q-68 0 -114 11t-56 17z M1458 717q-90 0 -130 -51.5t-40 -135.5q0 -78 43 -125t129 -47q37 0 70.5 13.5t59.5 35t41 48t15 53.5q0 41 -13 79t-38 66.5t-59.5 46t-77.5 17.5z" />
<glyph unicode="&#xf510;" horiz-adv-x="1875" d="M1219 1413h125l-764 -1413h-125zM1186 94q16 -4 58 -12t95 -8q123 0 188.5 79.5t71.5 213.5q-25 -29 -76 -62t-133 -33q-115 0 -186.5 71t-71.5 187q0 57 18.5 106.5t54.5 86.5t86 58.5t116 21.5q137 0 218 -88t81 -275q0 -225 -100.5 -339.5t-268.5 -114.5 q-68 0 -114 11t-56 17zM1409 717q-90 0 -130 -51.5t-40 -135.5q0 -78 43 -125t129 -47q37 0 70.5 13.5t59.5 35t41 48t15 53.5q0 41 -13 79t-38 66.5t-59.5 46t-77.5 17.5zM260 639l307 696h-420v90h535v-63l-309 -723h-113z" />
<glyph unicode="&#xf511;" horiz-adv-x="1875" d="M1276 1413h125l-764 -1413h-125zM1246 94q16 -4 58 -12t95 -8q123 0 188.5 79.5t71.5 213.5q-25 -29 -76 -62t-133 -33q-115 0 -186.5 71t-71.5 187q0 57 18.5 106.5t54.5 86.5t86 58.5t116 21.5q137 0 218 -88t81 -275q0 -225 -100.5 -339.5t-268.5 -114.5 q-68 0 -114 11t-56 17zM1469 717q-90 0 -130 -51.5t-40 -135.5q0 -78 43 -125t129 -47q37 0 70.5 13.5t59.5 35t41 48t15 53.5q0 41 -13 79t-38 66.5t-59.5 46t-77.5 17.5zM698 1243q0 -39 -13 -69.5t-34.5 -55t-48.5 -42t-53 -29.5q80 -31 127 -79t47 -130 q0 -94 -78 -154.5t-211 -60.5q-141 0 -215 58t-74 148q0 45 14.5 79t37 59.5t53.5 43t65 31.5q-63 29 -103 73t-40 116q0 86 66.5 147.5t195.5 61.5q137 0 200.5 -56.5t63.5 -140.5zM618 842q0 37 -17 62.5t-45 44t-62.5 31.5t-71.5 24q-31 -8 -61.5 -21.5t-55 -33t-40 -46 t-15.5 -61.5q0 -61 45 -98t139 -37q96 0 140 37t44 98zM598 1233q0 55 -39 90t-125 35t-124 -35t-38 -92q0 -33 16.5 -57.5t42 -42t55.5 -29.5t58 -19q55 18 104.5 53.5t49.5 96.5z" />
<glyph unicode="&#xf800;" horiz-adv-x="1191" d="M115 702q0 362 120.5 547t362.5 185q246 0 362.5 -184.5t116.5 -547.5q0 -367 -123 -548t-356 -181q-483 0 -483 729zM244 702q0 -166 23.5 -283.5t68.5 -191t110.5 -107.5t149.5 -34q168 0 260 144.5t92 471.5q0 170 -24.5 288t-69.5 190.5t-110.5 105.5t-147.5 33 t-147.5 -33t-110.5 -105.5t-69.5 -190.5t-24.5 -288z" />
<glyph unicode="&#xf801;" horiz-adv-x="970" d="M520 1268l-393 -238l-49 94l461 289h106v-1413h-125v1268z" />
<glyph unicode="&#xf802;" horiz-adv-x="1054" d="M471 680l121 100q53 45 90 90t55.5 92.5t18.5 104.5q0 111 -64.5 182.5t-210.5 71.5q-61 0 -109 -14.5t-86 -36t-67 -48t-49 -53.5l-80 70q25 31 60.5 64.5t86 63.5t115 48.5t144.5 18.5q104 0 176.5 -31t119 -81t68 -115.5t21.5 -133.5q0 -76 -27 -139.5t-72 -117.5 t-101 -103t-116 -95q-80 -63 -142.5 -119.5t-105.5 -115.5t-65.5 -124.5t-22.5 -145.5h676v-113h-805v35q0 111 22.5 196.5t69 161.5t116 144.5t163.5 142.5z" />
<glyph unicode="&#xf803;" horiz-adv-x="1015" d="M313 778h105q86 0 149.5 22.5t103.5 60.5t59.5 89t19.5 111q0 55 -15.5 102t-49.5 83t-88 56.5t-130 20.5q-113 0 -182.5 -37t-108.5 -76l-65 76q20 23 53 49.5t79 48t103 36t127 14.5q104 0 180 -29t124 -78t71.5 -112.5t23.5 -133.5q0 -133 -69.5 -225t-194.5 -125 q145 -29 218 -120t73 -224q0 -98 -37 -175t-101.5 -129t-152.5 -79t-190 -27q-111 0 -196 18.5t-126 37.5l29 102q35 -14 108.5 -29.5t174.5 -15.5q168 0 268 74t100 221q0 61 -21.5 112.5t-64.5 89.5t-109.5 59.5t-156.5 21.5h-111v110z" />
<glyph unicode="&#xf804;" horiz-adv-x="1134" d="M801 877v-420h225v-111h-225v-346h-121v346h-592v86l528 981h134l-514 -956h444v420h121z" />
<glyph unicode="&#xf805;" horiz-adv-x="1019" d="M375 90q174 0 273.5 89t99.5 263q0 66 -15.5 125.5t-50.5 103.5t-91 69.5t-138 25.5q-92 0 -152.5 -19.5t-97.5 -39.5l-68 49l78 651h612v-113h-522l-57 -467q35 18 96 29.5t129 11.5q86 0 160 -25.5t128 -78.5t83.5 -133t29.5 -187q0 -96 -32.5 -181t-95 -148.5 t-153.5 -100.5t-208 -37q-111 0 -195 18.5t-125 37.5l29 102q35 -14 109 -29.5t174 -15.5z" />
<glyph unicode="&#xf806;" horiz-adv-x="1140" d="M692 1331q-100 0 -176 -45t-127 -124t-78.5 -186.5t-31.5 -232.5q51 76 141 128.5t205 52.5q86 0 160.5 -29t131 -87t88 -144t31.5 -199q0 -111 -30.5 -202t-88 -155.5t-138.5 -99.5t-181 -35q-221 0 -336 159t-115 478q0 406 143.5 618t405.5 212q88 0 156 -18.5 t125 -47.5l-41 -98q-45 23 -102.5 39t-141.5 16zM598 82q145 0 228 96t83 275q0 180 -80.5 270t-218.5 90q-66 0 -124 -24.5t-104 -67.5t-72.5 -102.5t-26.5 -129.5q0 -92 21.5 -166.5t62.5 -128t99 -83t132 -29.5z" />
<glyph unicode="&#xf807;" horiz-adv-x="1013" d="M264 0l533 1298h-717v115h852v-94l-533 -1319h-135z" />
<glyph unicode="&#xf808;" horiz-adv-x="1175" d="M999 1092q0 -61 -20.5 -115.5t-56 -98.5t-83.5 -80t-104 -63q66 -29 120 -63.5t92 -80.5t59.5 -103.5t21.5 -129.5q0 -82 -28.5 -151.5t-85 -121.5t-139.5 -82t-189 -30q-115 0 -199 29t-138 78t-80 113.5t-26 136.5q0 156 82 247t228 154q-125 53 -199 133t-74 215 q0 76 29 141.5t82 114.5t130 77t173 28q102 0 178 -27t127 -74t75.5 -110t24.5 -137zM903 360q0 68 -24.5 119t-67.5 89t-103.5 67t-134.5 49q-147 -55 -227 -135t-80 -199q0 -131 86 -200.5t236 -69.5q143 0 229 69.5t86 210.5zM877 1090q0 109 -71 177t-212 68 q-74 0 -129 -20.5t-91 -56t-54.5 -83t-18.5 -100.5q0 -61 25.5 -108t68.5 -83t100.5 -60.5t118.5 -43.5q115 41 189 120t74 190z" />
<glyph unicode="&#xf809;" horiz-adv-x="1140" d="M436 82q106 0 183 42t129.5 118.5t81 186.5t34.5 243q-51 -74 -143 -128.5t-205 -54.5q-86 0 -160.5 29t-131 87.5t-88.5 143.5t-32 199q0 111 31 202t87.5 155.5t137 99.5t181.5 35q223 0 337.5 -156t114.5 -471q0 -418 -139 -629t-410 -211q-88 0 -162.5 14.5 t-121.5 37.5l26 100q41 -16 102.5 -29.5t147.5 -13.5zM541 1331q-143 0 -226.5 -96t-83.5 -274q0 -180 81 -270.5t216 -90.5q66 0 125.5 23.5t105.5 66.5t72.5 102.5t26.5 131.5q0 203 -83.5 305t-233.5 102z" />
<glyph unicode="&#xf80a;" d="M131 1057q0 195 81 302.5t226 107.5q154 0 226.5 -107.5t72.5 -302.5q0 -186 -74.5 -296.5t-226.5 -110.5q-162 0 -233.5 109.5t-71.5 297.5zM240 1057q0 -160 51 -239.5t145 -79.5q92 0 142.5 79.5t50.5 239.5q0 319 -193 320q-94 0 -145 -79t-51 -241z" />
<glyph unicode="&#xf80b;" d="M424 1334l-209 -123l-43 78l266 163h90v-786h-104v668z" />
<glyph unicode="&#xf80c;" d="M401 1051q72 45 115 88t43 109q0 59 -39 94t-112 35q-74 0 -121 -34t-74 -63l-61 58q12 18 35.5 40.5t55 42t74.5 33t97 13.5q123 0 189.5 -60.5t66.5 -154.5q0 -45 -17.5 -83t-46 -70t-67.5 -61.5t-82 -56.5l-70 -46q-33 -22 -57.5 -48t-40 -57t-15.5 -74h408v-90h-516 v39q0 59 12 105t40 86t72.5 77t110.5 78z" />
<glyph unicode="&#xf80d;" d="M287 1110h110q82 0 128 40t46 110q0 59 -43 89t-116 30q-80 0 -131.5 -27t-75.5 -45l-47 66q35 33 103.5 63.5t160.5 30.5q70 0 118 -17.5t77.5 -45t43 -64.5t13.5 -76q0 -74 -38 -120t-89 -68q61 -20 104 -66.5t43 -128.5q0 -104 -79.5 -167.5t-231.5 -63.5 q-72 0 -125 9t-94 21l18 86q33 -10 81 -19t108 -9q115 0 165 40t50 105q0 63 -41 102t-144 39h-114v86z" />
<glyph unicode="&#xf80e;" d="M600 1127v-203h131v-88h-131v-170h-92v170h-367v59l326 557h108l-309 -528h242v203h92z" />
<glyph unicode="&#xf80f;" d="M369 740q96 0 154.5 41t58.5 139q0 70 -43 109.5t-121 39.5q-53 0 -93 -11t-59 -19l-59 39l47 374h416v-88h-340l-27 -227q20 6 58 12t75 6q123 0 188.5 -65.5t65.5 -167.5q0 -119 -80 -195.5t-235 -76.5q-78 0 -128 10t-91 24l22 82q25 -6 71 -16t120 -10z" />
<glyph unicode="&#xf810;" d="M674 1354l-56 14q-39 10 -92 11q-123 0 -188.5 -79t-73.5 -214q25 29 76 61.5t133 32.5q115 0 186.5 -70.5t71.5 -187.5q0 -57 -18.5 -106.5t-54 -86t-87 -58t-114.5 -21.5q-137 0 -218 88t-81 274q0 117 27.5 202t76.5 141t116.5 84t147.5 28q72 0 116 -14.5t54 -18.5z M455 736q90 0 130 51t40 135q0 78 -43 125t-129 47q-37 0 -71 -13.5t-59.5 -35t-41 -48t-15.5 -52.5q0 -41 13.5 -79t38 -67t59.5 -46t78 -17z" />
<glyph unicode="&#xf811;" d="M260 666l307 696h-420v90h535v-63l-309 -723h-113z" />
<glyph unicode="&#xf812;" d="M698 1270q0 -39 -13 -69.5t-34.5 -55t-48.5 -42t-53 -29.5q80 -31 127 -79t47 -130q0 -94 -78 -154.5t-211 -60.5q-141 0 -215 58t-74 148q0 45 14.5 79t37 59.5t53.5 43t65 31.5q-63 29 -103 73t-40 116q0 86 66.5 147.5t195.5 61.5q137 0 200.5 -56.5t63.5 -140.5z M618 869q0 37 -17 62.5t-45 44t-62.5 31.5t-71.5 24q-31 -8 -61.5 -21.5t-55 -33t-40 -46t-15.5 -61.5q0 -61 45 -98t139 -37q96 0 140 37t44 98zM598 1260q0 55 -39 90t-125 35t-124 -35t-38 -92q0 -33 16.5 -57.5t42 -42t55.5 -29.5t58 -19q55 18 104.5 53.5t49.5 96.5z " />
<glyph unicode="&#xf813;" d="M197 758q16 -4 58 -12t95 -8q123 0 188.5 79.5t71.5 213.5q-25 -29 -76 -62t-133 -33q-115 0 -186.5 71t-71.5 187q0 57 18.5 106.5t54.5 86.5t86 58.5t116 21.5q137 0 218 -88t81 -275q0 -225 -100.5 -339.5t-268.5 -114.5q-68 0 -114 11t-56 17zM420 1381 q-90 0 -130 -51.5t-40 -135.5q0 -78 43 -125t129 -47q37 0 70.5 13.5t59.5 35t41 48t15 53.5q0 41 -13 79t-38 66.5t-59.5 46t-77.5 17.5z" />
<glyph unicode="&#xf814;" d="M131 209q0 195 81 302.5t226 107.5q154 0 226.5 -107.5t72.5 -302.5q0 -186 -74.5 -296.5t-226.5 -110.5q-162 0 -233.5 109.5t-71.5 297.5zM240 209q0 -160 51 -239.5t145 -79.5q92 0 142.5 79.5t50.5 239.5q0 319 -193 320q-94 0 -145 -79t-51 -241z" />
<glyph unicode="&#xf815;" d="M424 486l-209 -123l-43 78l266 163h90v-786h-104v668z" />
<glyph unicode="&#xf816;" d="M401 203q72 45 115 88t43 109q0 59 -39 94t-112 35q-74 0 -121 -34t-74 -63l-61 58q12 18 35.5 40.5t55 42t74.5 33t97 13.5q123 0 189.5 -60.5t66.5 -154.5q0 -45 -17.5 -83t-46 -70t-67.5 -61.5t-82 -56.5l-70 -46q-33 -22 -57.5 -48t-40 -57t-15.5 -74h408v-90h-516 v39q0 59 12 105t40 86t72.5 77t110.5 78z" />
<glyph unicode="&#xf817;" d="M287 262h110q82 0 128 40t46 110q0 59 -43 89t-116 30q-80 0 -131.5 -27t-75.5 -45l-47 66q35 33 103.5 63.5t160.5 30.5q70 0 118 -17.5t77.5 -45t43 -64.5t13.5 -76q0 -74 -38 -120t-89 -68q61 -20 104 -66.5t43 -128.5q0 -104 -79.5 -167.5t-231.5 -63.5q-72 0 -125 9 t-94 21l18 86q33 -10 81 -19t108 -9q115 0 165 40t50 105q0 63 -41 102t-144 39h-114v86z" />
<glyph unicode="&#xf818;" d="M600 279v-203h131v-88h-131v-170h-92v170h-367v59l326 557h108l-309 -528h242v203h92z" />
<glyph unicode="&#xf819;" d="M369 -108q96 0 154.5 41t58.5 139q0 70 -43 109.5t-121 39.5q-53 0 -93 -11t-59 -19l-59 39l47 374h416v-88h-340l-27 -227q20 6 58 12t75 6q123 0 188.5 -65.5t65.5 -167.5q0 -119 -80 -195.5t-235 -76.5q-78 0 -128 10t-91 24l22 82q25 -6 71 -16t120 -10z" />
<glyph unicode="&#xf81a;" d="M674 506l-56 14q-39 10 -92 11q-123 0 -188.5 -79t-73.5 -214q25 29 76 61.5t133 32.5q115 0 186.5 -70.5t71.5 -187.5q0 -57 -18.5 -106.5t-54 -86t-87 -58t-114.5 -21.5q-137 0 -218 88t-81 274q0 117 27.5 202t76.5 141t116.5 84t147.5 28q72 0 116 -14.5t54 -18.5z M455 -112q90 0 130 51t40 135q0 78 -43 125t-129 47q-37 0 -71 -13.5t-59.5 -35t-41 -48t-15.5 -52.5q0 -41 13.5 -79t38 -67t59.5 -46t78 -17z" />
<glyph unicode="&#xf81b;" d="M260 -182l307 696h-420v90h535v-63l-309 -723h-113z" />
<glyph unicode="&#xf81c;" d="M698 422q0 -39 -13 -69.5t-34.5 -55t-48.5 -42t-53 -29.5q80 -31 127 -79t47 -130q0 -94 -78 -154.5t-211 -60.5q-141 0 -215 58t-74 148q0 45 14.5 79t37 59.5t53.5 43t65 31.5q-63 29 -103 73t-40 116q0 86 66.5 147.5t195.5 61.5q137 0 200.5 -56.5t63.5 -140.5z M618 21q0 37 -17 62.5t-45 44t-62.5 31.5t-71.5 24q-31 -8 -61.5 -21.5t-55 -33t-40 -46t-15.5 -61.5q0 -61 45 -98t139 -37q96 0 140 37t44 98zM598 412q0 55 -39 90t-125 35t-124 -35t-38 -92q0 -33 16.5 -57.5t42 -42t55.5 -29.5t58 -19q55 18 104.5 53.5t49.5 96.5z" />
<glyph unicode="&#xf81d;" d="M197 -90q16 -4 58 -12t95 -8q123 0 188.5 79.5t71.5 213.5q-25 -29 -76 -62t-133 -33q-115 0 -186.5 71t-71.5 187q0 57 18.5 106.5t54.5 86.5t86 58.5t116 21.5q137 0 218 -88t81 -275q0 -225 -100.5 -339.5t-268.5 -114.5q-68 0 -114 11t-56 17zM420 533 q-90 0 -130 -51.5t-40 -135.5q0 -78 43 -125t129 -47q37 0 70.5 13.5t59.5 35t41 48t15 53.5q0 41 -13 79t-38 66.5t-59.5 46t-77.5 17.5z" />
<glyph horiz-adv-x="1034" d="M420 1698q0 47 28.5 75.5t69.5 28.5t67.5 -28.5t26.5 -75.5t-26.5 -74t-67.5 -27t-69.5 27t-28.5 74z" />
<glyph horiz-adv-x="1507" d="M469 1227v-1227h-125v1440h136l714 -1221v1221h125v-1440h-125zM6 1366q0 49 30 79t71 30q47 0 73.5 -35t26.5 -90q0 -41 -12.5 -94t-36 -108.5t-55 -107.5t-68.5 -91l-59 47q23 31 41 66.5t32.5 72.5t22.5 72t10 59q-29 8 -52.5 32.5t-23.5 67.5z" />
<glyph horiz-adv-x="1034" d="M731 1882l53 -119l-477 -200l-41 90z" />
<glyph horiz-adv-x="1034" d="M725 1563l-477 200l53 119l465 -229z" />
<glyph horiz-adv-x="1034" d="M803 1561l-281 198l-280 -198l-68 69l291 252h115l290 -252z" />
<glyph horiz-adv-x="1034" d="M532 -100q102 -8 152.5 -59.5t50.5 -125.5q0 -98 -69.5 -151t-182.5 -53q-86 0 -134 14t-58 18l20 88q35 -10 70 -18t86 -8q72 0 110.5 24.5t38.5 81.5q0 45 -32.5 70.5t-108.5 25.5q-16 0 -34.5 -1t-34.5 -5l43 199h104z" />
<glyph horiz-adv-x="1034" d="M356 1815q51 0 91 -18.5t74 -42t67 -42t71 -18.5q96 0 97 118h108q0 -115 -54 -171t-153 -56q-51 0 -89 18.5t-71.5 41t-66.5 41t-70 18.5q-100 0 -100 -117h-108q0 111 51 169.5t153 58.5z" />
<glyph horiz-adv-x="1034" d="M442 1440q0 51 31 78.5t72 27.5q47 0 72.5 -34.5t25.5 -90.5q0 -43 -13.5 -95t-36 -106.5t-52 -104.5t-64.5 -91l-61 45q18 31 35.5 68t31 73.5t23.5 70.5t16 60q-29 8 -54.5 36t-25.5 63z" />
<glyph horiz-adv-x="1034" d="M217 1636v115h602v-115h-602z" />
<glyph horiz-adv-x="1034" d="M465 1561l-291 249l68 72l280 -201l281 201l67 -72l-290 -249h-115z" />
<glyph horiz-adv-x="1034" d="M733 1683q0 -96 -61.5 -153t-153.5 -57q-94 0 -156.5 57t-62.5 151q0 96 64.5 153.5t154.5 57.5q94 0 154.5 -57.5t60.5 -151.5zM641 1681q0 59 -35 93t-90 34q-51 0 -87 -33.5t-36 -93.5q0 -59 35 -93t88 -34q55 0 90 33t35 94z" />
<glyph horiz-adv-x="1034" d="M623 -371q-14 -2 -26.5 -3t-33.5 -1q-94 0 -147.5 42t-53.5 110q0 72 38 124t98 99h118q-53 -41 -94 -90t-41 -107q0 -45 28 -65.5t77 -20.5q27 0 37 2v-90z" />
<glyph horiz-adv-x="468" d="M174 1016h121v-1016h-121v1016zM141 1356q0 45 26 72.5t66 27.5q41 0 68 -27.5t27 -72.5q0 -47 -27 -74t-68 -27t-66.5 28t-25.5 73z" />
<glyph horiz-adv-x="1363" d="M317 0h-129v1440h129v-664l601 664h151l-600 -666l649 -774h-166l-635 754v-754zM1298 1118q0 -53 -29.5 -81.5t-70.5 -28.5q-49 0 -74.5 34.5t-25.5 92.5q0 41 12 94t34.5 108.5t53.5 107.5t69 91l66 -47q-23 -31 -42 -67t-33.5 -72.5t-24 -71.5t-11.5 -61 q31 -8 53.5 -33t22.5 -66z" />
<glyph horiz-adv-x="1034" d="M612 -209q0 -86 -42 -168t-91 -139l-59 39q29 43 50.5 98t25.5 88q-23 8 -49.5 33t-26.5 61q0 45 26.5 71t65.5 26q47 0 73.5 -31t26.5 -78z" />
<glyph horiz-adv-x="1034" d="M215 1708q0 49 28.5 78t69.5 29q43 0 71 -29t28 -78q0 -47 -28 -76.5t-71 -29.5q-41 0 -69.5 29.5t-28.5 76.5zM621 1708q0 49 28.5 78t69.5 29q43 0 71.5 -29t28.5 -78q0 -47 -28.5 -76.5t-71.5 -29.5q-41 0 -69.5 29.5t-28.5 76.5z" />
<glyph horiz-adv-x="1034" d="M262 1702l471 156l37 -123l-477 -127z" />
<glyph horiz-adv-x="1034" d="M213 1645l248 237h110l250 -237l-63 -64l-242 184l-242 -184z" />
<glyph horiz-adv-x="1034" d="M612 1425q0 -37 -10 -82t-27.5 -89t-38 -84t-40.5 -66l-64 35q10 18 20.5 43.5t19.5 54.5t15.5 57.5t8.5 53.5q-29 8 -51.5 33.5t-22.5 60.5q0 47 27.5 74.5t66.5 27.5q47 0 71.5 -33t24.5 -86z" />
<glyph horiz-adv-x="1034" d="M614 -209q0 -86 -41 -168t-90 -139l-63 39q29 43 51.5 97t26.5 87q-29 10 -54.5 35t-25.5 59q0 43 25.5 72t68.5 29q47 0 74.5 -31t27.5 -80z" />
<glyph horiz-adv-x="1034" d="M520 1659q88 0 137.5 49t49.5 143h114q0 -59 -18.5 -112t-55 -95t-94 -67t-137.5 -25t-137 25t-94 65.5t-54.5 95t-17.5 113.5h119q0 -94 51 -143t137 -49z" />
<glyph horiz-adv-x="1034" d="M420 1284q0 86 42 168t91 139l59 -39q-29 -43 -50 -98t-25 -88q29 -10 52 -35.5t23 -56.5q0 -47 -27.5 -72.5t-66.5 -25.5q-45 0 -71.5 31.5t-26.5 76.5z" />
<glyph horiz-adv-x="1034" d="M528 1626l283 303l86 -88l-299 -285zM121 1626l282 303l86 -88l-299 -285z" />
<glyph horiz-adv-x="1185" d="M885 365h-594l-129 -365h-123l481 1343h144l483 -1343h-133zM330 477h514l-256 729z" />
<glyph horiz-adv-x="1150" d="M287 821q47 98 137 159.5t225 61.5q166 0 255 -96t89 -282v-664h-121v647q0 80 -19 135.5t-53 88t-80 47t-102 14.5q-78 0 -139 -36t-104 -93.5t-65.5 -131t-22.5 -149.5v-522h-121v1440h121v-619z" />
<glyph horiz-adv-x="505" d="M317 0h-129v1440h129v-1440z" />
<glyph horiz-adv-x="1185" d="M883 381h-590l-131 -381h-123l481 1380h144l483 -1380h-133zM332 494h512l-256 745z" />
<glyph horiz-adv-x="1069" d="M188 1380h795v-118h-666v-484h521v-119h-521v-540h687v-119h-816v1380z" />
<glyph horiz-adv-x="1503" d="M141 692q0 162 41 294t120 226.5t192.5 146.5t259.5 52q145 0 257.5 -52t190.5 -146.5t119 -226.5t41 -294t-41 -295t-119 -228t-191.5 -147.5t-258.5 -52.5t-259 52.5t-192 147.5t-119 228t-41 295zM276 692q0 -137 30 -247.5t90.5 -189.5t149.5 -122t206 -43t206 43 t149 122t90 189.5t30 247.5t-30 248t-90 188.5t-149.5 119.5t-205.5 42q-117 0 -206 -42t-149.5 -120.5t-90.5 -189.5t-30 -246z" />
<glyph horiz-adv-x="505" d="M211 1935q55 0 91 -13t57.5 -34.5t30.5 -50.5t9 -57q0 -70 -41 -121t-92 -98l-67 57q29 29 55.5 62.5t26.5 74.5q0 76 -86 76q-25 0 -46.5 -4t-37.5 -8v102q16 4 43.5 9t56.5 5z" />
<glyph horiz-adv-x="1050" d="M711 1450l-269 178l-268 -178l-68 70l279 231h115l278 -231zM692 1683l-51 91l262 161l58 -104z" />
<glyph horiz-adv-x="1032" d="M666 1163l-244 183l-244 -183l-69 68l262 235h102l262 -235zM670 1389l-52 86l271 165l55 -100z" />
<glyph horiz-adv-x="983" d="M106 1520l279 227h115l278 -227l-67 -70l-269 174l-268 -174zM573 1851l84 84l248 -252l-76 -71z" />
<glyph horiz-adv-x="954" d="M528 1565l93 77l243 -272l-80 -65zM735 1231l-69 -68l-244 180l-244 -180l-69 68l262 233h102z" />
</font>
</defs>
</svg>
